<svg width="22" height="24" viewBox="0 0 22 24" fill="none" xmlns="http://www.w3.org/2000/svg">
<path d="M6.63279 24C1.71557 21.2287 0.420974 18.6056 1.16113 15.023C1.70755 12.3775 3.49677 10.2252 3.66833 7.5849C4.43263 8.97578 4.75199 9.97872 4.83739 11.4322C7.26825 8.4539 8.87461 4.33092 8.96973 0C8.96973 0 15.3012 3.7202 15.7167 9.3396C16.2618 8.18134 16.5361 6.34176 15.9911 5.14952C17.6262 6.34182 27.1969 16.9263 14.6947 24C17.0453 19.4232 15.3011 13.2478 11.2199 10.3956C11.4925 11.622 11.0146 16.1961 9.20909 18.2059C9.70937 14.8476 8.73309 13.4276 8.73309 13.4276C8.73309 13.4276 8.39801 15.3087 7.09793 17.2089C5.91073 18.9441 5.08813 20.7858 6.63279 24Z" fill="white"/>
</svg>
