<svg width="21" height="18" viewBox="0 0 21 18" fill="none" xmlns="http://www.w3.org/2000/svg">
<path d="M0 8.8H5.57143V15.2143C5.57143 16.7528 4.32422 18 2.78571 18V18C1.24721 18 0 16.7528 0 15.2143V8.8Z" fill="white"/>
<path d="M0 3.95976C0 2.18426 1.11462 0.599879 2.78571 0V0V0C4.45681 0.599879 5.57143 2.18426 5.57143 3.95976V8H0V3.95976Z" fill="white"/>
<path d="M7.71429 8.8H13.2857V15.2143C13.2857 16.7528 12.0385 18 10.5 18V18C8.9615 18 7.71429 16.7528 7.71429 15.2143V8.8Z" fill="white"/>
<path d="M7.71429 3.95976C7.71429 2.18426 8.82892 0.599879 10.5 0V0V0C12.1711 0.599879 13.2857 2.18426 13.2857 3.95976V8H7.71429V3.95976Z" fill="white"/>
<path d="M15.4286 8.8H21V15.2143C21 16.7528 19.7528 18 18.2143 18V18C16.6758 18 15.4286 16.7528 15.4286 15.2143V8.8Z" fill="white"/>
<path d="M15.4286 3.95976C15.4286 2.18426 16.5432 0.599879 18.2143 0V0V0C19.8854 0.599879 21 2.18426 21 3.95976V8H15.4286V3.95976Z" fill="white"/>
</svg>
