<svg width="39" height="34" viewBox="0 0 39 34" fill="none" xmlns="http://www.w3.org/2000/svg">
<path d="M0 16.6286H10.3469V30.7143C10.3469 32.3711 9.00379 33.7143 7.34694 33.7143H3C1.34315 33.7143 0 32.3711 0 30.7143V16.6286Z" fill="white"/>
<path d="M0 7.63957C0 4.34221 2.07001 1.39978 5.17347 0.285721C8.27693 1.39978 10.3469 4.34221 10.3469 7.63957V15.1429H0V7.63957Z" fill="white"/>
<path d="M14.3265 16.6286H24.6735V30.7143C24.6735 32.3711 23.3303 33.7143 21.6735 33.7143H17.3265C15.6697 33.7143 14.3265 32.3711 14.3265 30.7143V16.6286Z" fill="white"/>
<path d="M14.3265 7.63957C14.3265 4.34221 16.3966 1.39978 19.5 0.285721C22.6035 1.39978 24.6735 4.34221 24.6735 7.63957V15.1429H14.3265V7.63957Z" fill="white"/>
<path d="M28.6531 16.6286H39V30.7143C39 32.3711 37.6569 33.7143 36 33.7143H31.6531C29.9962 33.7143 28.6531 32.3711 28.6531 30.7143V16.6286Z" fill="white"/>
<path d="M28.6531 7.63957C28.6531 4.34221 30.7231 1.39978 33.8265 0.285721C36.93 1.39978 39 4.34221 39 7.63957V15.1429H28.6531V7.63957Z" fill="white"/>
</svg>
