<svg width="34" height="41" viewBox="0 0 34 41" fill="none" xmlns="http://www.w3.org/2000/svg">
<g filter="url(#filter0_dd_9_2617)">
<mask id="mask0_9_2617" style="mask-type:alpha" maskUnits="userSpaceOnUse" x="4" y="1" width="26" height="32">
<path d="M26.3334 10.3333H7.66671C7.31309 10.3333 6.97395 10.4738 6.7239 10.7239C6.47385 10.9739 6.33337 11.313 6.33337 11.6667V29C6.33337 29.3536 6.47385 29.6928 6.7239 29.9428C6.97395 30.1929 7.31309 30.3333 7.66671 30.3333H26.3334C26.687 30.3333 27.0261 30.1929 27.2762 29.9428C27.5262 29.6928 27.6667 29.3536 27.6667 29V11.6667C27.6667 11.313 27.5262 10.9739 27.2762 10.7239C27.0261 10.4738 26.687 10.3333 26.3334 10.3333Z" fill="white" stroke="#487EB6" stroke-width="4" stroke-linecap="round" stroke-linejoin="round"/>
<path d="M12.3334 13V8.33334C12.3334 7.7205 12.4541 7.11367 12.6886 6.54748C12.9231 5.9813 13.2669 5.46685 13.7002 5.03351C14.1335 4.60017 14.648 4.25642 15.2142 4.0219C15.7804 3.78738 16.3872 3.66667 17 3.66667C17.6129 3.66667 18.2197 3.78738 18.7859 4.0219C19.3521 4.25642 19.8665 4.60017 20.2999 5.03351C20.7332 5.46685 21.077 5.9813 21.3115 6.54748C21.546 7.11367 21.6667 7.7205 21.6667 8.33334V13" stroke="#487EB6" stroke-width="4" stroke-linecap="round" stroke-linejoin="round"/>
</mask>
<g mask="url(#mask0_9_2617)">
<path d="M1 1H33V33H1V1Z" fill="white"/>
</g>
</g>
<defs>
<filter id="filter0_dd_9_2617" x="0.333374" y="0.666672" width="33.3334" height="39.6667" filterUnits="userSpaceOnUse" color-interpolation-filters="sRGB">
<feFlood flood-opacity="0" result="BackgroundImageFix"/>
<feColorMatrix in="SourceAlpha" type="matrix" values="0 0 0 0 0 0 0 0 0 0 0 0 0 0 0 0 0 0 127 0" result="hardAlpha"/>
<feOffset dy="-1"/>
<feComposite in2="hardAlpha" operator="out"/>
<feColorMatrix type="matrix" values="0 0 0 0 0.282353 0 0 0 0 0.494118 0 0 0 0 0.713726 0 0 0 1 0"/>
<feBlend mode="normal" in2="BackgroundImageFix" result="effect1_dropShadow_9_2617"/>
<feColorMatrix in="SourceAlpha" type="matrix" values="0 0 0 0 0 0 0 0 0 0 0 0 0 0 0 0 0 0 127 0" result="hardAlpha"/>
<feOffset dy="4"/>
<feGaussianBlur stdDeviation="2"/>
<feComposite in2="hardAlpha" operator="out"/>
<feColorMatrix type="matrix" values="0 0 0 0 0.282353 0 0 0 0 0.494118 0 0 0 0 0.713726 0 0 0 1 0"/>
<feBlend mode="normal" in2="effect1_dropShadow_9_2617" result="effect2_dropShadow_9_2617"/>
<feBlend mode="normal" in="SourceGraphic" in2="effect2_dropShadow_9_2617" result="shape"/>
</filter>
</defs>
</svg>
