<svg width="35" height="35" viewBox="0 0 35 35" fill="none" xmlns="http://www.w3.org/2000/svg">
<mask id="path-1-outside-1_8_2532" maskUnits="userSpaceOnUse" x="0" y="0" width="35" height="35" fill="black">
<rect fill="white" width="35" height="35"/>
<path d="M31.6413 15.2961L28.3998 14.3294C28.1757 13.5477 27.8675 12.7925 27.4806 12.0771L29.0675 9.10945C29.127 8.99743 29.1488 8.86922 29.1296 8.74384C29.1105 8.61846 29.0513 8.5026 28.961 8.41345L26.6484 6.09347C26.5592 6.00325 26.4432 5.94418 26.3177 5.92502C26.1922 5.90587 26.0639 5.92765 25.9518 5.98713L23.0005 7.56279C22.2774 7.15743 21.5115 6.83324 20.717 6.59613L19.7494 3.39648C19.7084 3.27856 19.6311 3.17666 19.5285 3.10544C19.4259 3.03422 19.3034 2.99735 19.1785 3.00015H15.9079C15.7823 3.00073 15.6601 3.04136 15.5592 3.11612C15.4582 3.19088 15.3838 3.29587 15.3467 3.41581L14.3791 6.6058C13.578 6.84164 12.8056 7.16586 12.0762 7.57246L9.17337 6.00647C9.06124 5.94698 8.9329 5.9252 8.8074 5.94435C8.68189 5.96351 8.56592 6.02258 8.47669 6.1128L6.12539 8.40379C6.03508 8.49293 5.97595 8.6088 5.95678 8.73417C5.9376 8.85955 5.95941 8.98777 6.01895 9.09978L7.58648 11.9998C7.18014 12.7253 6.85562 13.4937 6.61887 14.2908L3.41607 15.2574C3.29601 15.2945 3.19092 15.3688 3.11609 15.4696C3.04125 15.5705 3.00058 15.6926 3 15.8181V19.0854C3.00058 19.2109 3.04125 19.333 3.11609 19.4338C3.19092 19.5347 3.29601 19.609 3.41607 19.6461L6.63822 20.6127C6.87756 21.3965 7.20203 22.1518 7.60583 22.865L6.01895 25.9004C5.95941 26.0124 5.9376 26.1406 5.95678 26.266C5.97595 26.3914 6.03508 26.5072 6.12539 26.5964L8.43798 28.9067C8.52722 28.9969 8.64319 29.056 8.76869 29.0751C8.89419 29.0943 9.02253 29.0725 9.13466 29.013L12.1246 27.418C12.8319 27.7993 13.578 28.1039 14.3501 28.3267L15.3177 31.5843C15.3548 31.7043 15.4292 31.8093 15.5301 31.884C15.6311 31.9588 15.7533 31.9994 15.8789 32H19.1494C19.2751 31.9994 19.3973 31.9588 19.4982 31.884C19.5992 31.8093 19.6736 31.7043 19.7107 31.5843L20.6783 28.317C21.4438 28.0931 22.1834 27.7885 22.8844 27.4084L25.8937 29.013C26.0058 29.0725 26.1342 29.0943 26.2597 29.0751C26.3852 29.056 26.5012 28.9969 26.5904 28.9067L28.903 26.5964C28.9933 26.5072 29.0524 26.3914 29.0716 26.266C29.0908 26.1406 29.069 26.0124 29.0094 25.9004L27.4032 22.9037C27.7877 22.2007 28.0958 21.4586 28.3224 20.6901L31.5833 19.7234C31.7033 19.6864 31.8084 19.612 31.8833 19.5112C31.9581 19.4103 31.9988 19.2883 31.9993 19.1627V15.8664C32.005 15.7462 31.9738 15.6271 31.9098 15.5252C31.8458 15.4232 31.7521 15.3433 31.6413 15.2961ZM17.5432 22.8167C16.4906 22.8167 15.4617 22.5049 14.5865 21.9207C13.7114 21.3365 13.0292 20.5062 12.6264 19.5347C12.2236 18.5632 12.1183 17.4942 12.3236 16.4629C12.5289 15.4315 13.0358 14.4842 13.7801 13.7406C14.5244 12.9971 15.4726 12.4907 16.505 12.2856C17.5373 12.0804 18.6074 12.1857 19.5798 12.5881C20.5522 12.9905 21.3834 13.672 21.9682 14.5463C22.553 15.4206 22.8651 16.4485 22.8651 17.5001C22.8651 18.9101 22.3044 20.2624 21.3063 21.2595C20.3083 22.2566 18.9547 22.8167 17.5432 22.8167Z"/>
</mask>
<path d="M31.6413 15.2961L28.3998 14.3294C28.1757 13.5477 27.8675 12.7925 27.4806 12.0771L29.0675 9.10945C29.127 8.99743 29.1488 8.86922 29.1296 8.74384C29.1105 8.61846 29.0513 8.5026 28.961 8.41345L26.6484 6.09347C26.5592 6.00325 26.4432 5.94418 26.3177 5.92502C26.1922 5.90587 26.0639 5.92765 25.9518 5.98713L23.0005 7.56279C22.2774 7.15743 21.5115 6.83324 20.717 6.59613L19.7494 3.39648C19.7084 3.27856 19.6311 3.17666 19.5285 3.10544C19.4259 3.03422 19.3034 2.99735 19.1785 3.00015H15.9079C15.7823 3.00073 15.6601 3.04136 15.5592 3.11612C15.4582 3.19088 15.3838 3.29587 15.3467 3.41581L14.3791 6.6058C13.578 6.84164 12.8056 7.16586 12.0762 7.57246L9.17337 6.00647C9.06124 5.94698 8.9329 5.9252 8.8074 5.94435C8.68189 5.96351 8.56592 6.02258 8.47669 6.1128L6.12539 8.40379C6.03508 8.49293 5.97595 8.6088 5.95678 8.73417C5.9376 8.85955 5.95941 8.98777 6.01895 9.09978L7.58648 11.9998C7.18014 12.7253 6.85562 13.4937 6.61887 14.2908L3.41607 15.2574C3.29601 15.2945 3.19092 15.3688 3.11609 15.4696C3.04125 15.5705 3.00058 15.6926 3 15.8181V19.0854C3.00058 19.2109 3.04125 19.333 3.11609 19.4338C3.19092 19.5347 3.29601 19.609 3.41607 19.6461L6.63822 20.6127C6.87756 21.3965 7.20203 22.1518 7.60583 22.865L6.01895 25.9004C5.95941 26.0124 5.9376 26.1406 5.95678 26.266C5.97595 26.3914 6.03508 26.5072 6.12539 26.5964L8.43798 28.9067C8.52722 28.9969 8.64319 29.056 8.76869 29.0751C8.89419 29.0943 9.02253 29.0725 9.13466 29.013L12.1246 27.418C12.8319 27.7993 13.578 28.1039 14.3501 28.3267L15.3177 31.5843C15.3548 31.7043 15.4292 31.8093 15.5301 31.884C15.6311 31.9588 15.7533 31.9994 15.8789 32H19.1494C19.2751 31.9994 19.3973 31.9588 19.4982 31.884C19.5992 31.8093 19.6736 31.7043 19.7107 31.5843L20.6783 28.317C21.4438 28.0931 22.1834 27.7885 22.8844 27.4084L25.8937 29.013C26.0058 29.0725 26.1342 29.0943 26.2597 29.0751C26.3852 29.056 26.5012 28.9969 26.5904 28.9067L28.903 26.5964C28.9933 26.5072 29.0524 26.3914 29.0716 26.266C29.0908 26.1406 29.069 26.0124 29.0094 25.9004L27.4032 22.9037C27.7877 22.2007 28.0958 21.4586 28.3224 20.6901L31.5833 19.7234C31.7033 19.6864 31.8084 19.612 31.8833 19.5112C31.9581 19.4103 31.9988 19.2883 31.9993 19.1627V15.8664C32.005 15.7462 31.9738 15.6271 31.9098 15.5252C31.8458 15.4232 31.7521 15.3433 31.6413 15.2961ZM17.5432 22.8167C16.4906 22.8167 15.4617 22.5049 14.5865 21.9207C13.7114 21.3365 13.0292 20.5062 12.6264 19.5347C12.2236 18.5632 12.1183 17.4942 12.3236 16.4629C12.5289 15.4315 13.0358 14.4842 13.7801 13.7406C14.5244 12.9971 15.4726 12.4907 16.505 12.2856C17.5373 12.0804 18.6074 12.1857 19.5798 12.5881C20.5522 12.9905 21.3834 13.672 21.9682 14.5463C22.553 15.4206 22.8651 16.4485 22.8651 17.5001C22.8651 18.9101 22.3044 20.2624 21.3063 21.2595C20.3083 22.2566 18.9547 22.8167 17.5432 22.8167Z" fill="white"/>
<path d="M28.3998 14.3294L25.516 15.1562C25.798 16.1398 26.5619 16.9119 27.5425 17.2043L28.3998 14.3294ZM27.4806 12.0771L24.8351 10.6625C24.3601 11.5508 24.3626 12.6182 24.8418 13.5042L27.4806 12.0771ZM29.0675 9.10945L31.713 10.5241L31.7165 10.5175L29.0675 9.10945ZM28.961 8.41345L26.8363 10.5314C26.842 10.5371 26.8477 10.5428 26.8535 10.5485L28.961 8.41345ZM26.6484 6.09347L24.5155 8.20313L24.5237 8.2114L26.6484 6.09347ZM25.9518 5.98713L24.5458 3.33697L24.5388 3.3407L25.9518 5.98713ZM23.0005 7.56279L21.5337 10.1797C22.4258 10.6798 23.5113 10.6909 24.4135 10.2092L23.0005 7.56279ZM20.717 6.59613L17.8454 7.46453C18.1371 8.42904 18.8935 9.1827 19.8591 9.47085L20.717 6.59613ZM19.7494 3.39648L22.6209 2.52808C22.6092 2.4894 22.5968 2.45095 22.5835 2.41276L19.7494 3.39648ZM19.1785 3.00015V6.00015C19.2009 6.00015 19.2232 5.9999 19.2456 5.9994L19.1785 3.00015ZM15.9079 3.00015V0.000115633L15.894 0.000180483L15.9079 3.00015ZM15.3467 3.41581L12.4806 2.5298C12.479 2.53487 12.4774 2.53994 12.4759 2.54501L15.3467 3.41581ZM14.3791 6.6058L15.2263 9.48369C16.1959 9.19827 16.9566 8.44381 17.25 7.4766L14.3791 6.6058ZM12.0762 7.57246L10.6518 10.2128C11.5538 10.6994 12.6418 10.6918 13.537 10.1928L12.0762 7.57246ZM9.17337 6.00647L10.5977 3.36616C10.5916 3.36286 10.5855 3.35957 10.5793 3.35631L9.17337 6.00647ZM8.47669 6.1128L10.5703 8.2615C10.5835 8.2486 10.5966 8.23558 10.6096 8.22245L8.47669 6.1128ZM6.12539 8.40379L4.0318 6.25509C4.02713 6.25964 4.02248 6.26421 4.01784 6.26879L6.12539 8.40379ZM6.01895 9.09978L3.36994 10.5079C3.37321 10.514 3.3765 10.5202 3.37982 10.5263L6.01895 9.09978ZM7.58648 11.9998L10.204 13.4656C10.7062 12.5689 10.7144 11.4774 10.2256 10.5732L7.58648 11.9998ZM6.61887 14.2908L7.4857 17.1628C8.45224 16.8711 9.20722 16.1128 9.49469 15.145L6.61887 14.2908ZM3.41607 15.2574L2.54924 12.3854C2.54337 12.3872 2.53751 12.3889 2.53165 12.3907L3.41607 15.2574ZM3 15.8181L0 15.8041V15.8181H3ZM3 19.0854H-3.26633e-05L3.26633e-05 19.0994L3 19.0854ZM3.41607 19.6461L2.53165 22.5127C2.5391 22.515 2.54655 22.5173 2.55402 22.5195L3.41607 19.6461ZM6.63822 20.6127L9.50744 19.7366C9.21444 18.7771 8.46121 18.0275 7.50028 17.7392L6.63822 20.6127ZM7.60583 22.865L10.2644 24.255C10.7361 23.3528 10.718 22.273 10.2165 21.387L7.60583 22.865ZM6.01895 25.9004L8.66796 27.3085C8.67118 27.3024 8.67437 27.2964 8.67754 27.2903L6.01895 25.9004ZM6.12539 26.5964L8.24566 24.474C8.24144 24.4698 8.23719 24.4656 8.23294 24.4614L6.12539 26.5964ZM8.43798 28.9067L10.5709 26.797C10.5667 26.7928 10.5625 26.7885 10.5583 26.7843L8.43798 28.9067ZM9.13466 29.013L10.5406 31.6632L10.5467 31.6599L9.13466 29.013ZM12.1246 27.418L13.5481 24.7773C12.6636 24.3005 11.5991 24.2982 10.7126 24.7711L12.1246 27.418ZM14.3501 28.3267L17.2259 27.4725C16.9347 26.4922 16.1642 25.7277 15.1817 25.4442L14.3501 28.3267ZM15.3177 31.5843L12.4419 32.4385C12.445 32.4492 12.4483 32.4598 12.4515 32.4703L15.3177 31.5843ZM15.8789 32L15.865 35H15.8789V32ZM19.1494 32V35L19.1634 35L19.1494 32ZM19.7107 31.5843L22.5768 32.4703C22.5804 32.459 22.5838 32.4476 22.5872 32.4362L19.7107 31.5843ZM20.6783 28.317L19.8361 25.4377C18.8575 25.7239 18.0913 26.4875 17.8018 27.4651L20.6783 28.317ZM22.8844 27.4084L24.296 24.7612C23.4072 24.2873 22.3399 24.291 21.4544 24.7711L22.8844 27.4084ZM25.8937 29.013L24.4821 31.6602L24.4878 31.6632L25.8937 29.013ZM26.5904 28.9067L24.4701 26.7843C24.4659 26.7885 24.4617 26.7928 24.4575 26.797L26.5904 28.9067ZM28.903 26.5964L26.7954 24.4614C26.7912 24.4656 26.7869 24.4698 26.7827 24.474L28.903 26.5964ZM29.0094 25.9004L31.6584 24.4923L31.6535 24.4831L29.0094 25.9004ZM27.4032 22.9037L24.7711 21.4643C24.2848 22.3534 24.2803 23.4278 24.7591 24.321L27.4032 22.9037ZM28.3224 20.6901L27.4698 17.8138C26.4947 18.1028 25.7325 18.8662 25.4449 19.8416L28.3224 20.6901ZM31.5833 19.7234L32.4359 22.5997C32.4465 22.5965 32.4571 22.5933 32.4677 22.5901L31.5833 19.7234ZM31.9993 19.1627L34.9993 19.1767V19.1627H31.9993ZM31.9993 15.8664L29.0027 15.7241C29.0005 15.7715 28.9993 15.819 28.9993 15.8664H31.9993ZM17.5432 19.8167C15.8864 19.8167 14.5432 21.1599 14.5432 22.8167C14.5432 24.4736 15.8864 25.8167 17.5432 25.8167V19.8167ZM32.4987 12.4212L29.2572 11.4545L27.5425 17.2043L30.784 18.171L32.4987 12.4212ZM31.2836 13.5027C30.9998 12.5125 30.6094 11.5561 30.1194 10.65L24.8418 13.5042C25.1256 14.029 25.3516 14.5829 25.516 15.1562L31.2836 13.5027ZM30.1261 13.4917L31.713 10.5241L26.4219 7.69482L24.8351 10.6625L30.1261 13.4917ZM31.7165 10.5175C32.0791 9.83537 32.212 9.05428 32.0952 8.29033L26.1641 9.19735C26.0856 8.68416 26.1749 8.1595 26.4185 7.70135L31.7165 10.5175ZM32.0952 8.29033C31.9783 7.52639 31.6181 6.82093 31.0686 6.27845L26.8535 10.5485C26.4846 10.1843 26.2426 9.71053 26.1641 9.19735L32.0952 8.29033ZM31.0857 6.29552L28.7731 3.97553L24.5237 8.2114L26.8363 10.5314L31.0857 6.29552ZM28.7814 3.98382C28.2384 3.43484 27.5331 3.07578 26.7704 2.95936L25.8651 8.89068C25.3534 8.81257 24.88 8.57166 24.5155 8.20311L28.7814 3.98382ZM26.7704 2.95936C26.0077 2.84295 25.2276 2.97529 24.5458 3.33698L27.3577 8.63729C26.9002 8.88001 26.3768 8.96878 25.8651 8.89068L26.7704 2.95936ZM24.5388 3.3407L21.5876 4.91636L24.4135 10.2092L27.3647 8.63357L24.5388 3.3407ZM24.4674 4.94586C23.5513 4.43237 22.5812 4.02173 21.5749 3.72141L19.8591 9.47085C20.4418 9.64474 21.0034 9.88249 21.5337 10.1797L24.4674 4.94586ZM23.5885 5.72773L22.6209 2.52808L16.8778 4.26488L17.8454 7.46453L23.5885 5.72773ZM22.5835 2.41276C22.3342 1.69446 21.8633 1.07427 21.2394 0.641084L17.8177 5.56979C17.3989 5.27904 17.0827 4.86267 16.9152 4.3802L22.5835 2.41276ZM21.2394 0.641084C20.6154 0.207918 19.8703 -0.0160916 19.1113 0.000899553L19.2456 5.9994C18.7364 6.0108 18.2365 5.86052 17.8177 5.56979L21.2394 0.641084ZM19.1785 0.000148058H15.9079V6.00015H19.1785V0.000148058ZM15.894 0.000180483C15.1304 0.00373197 14.3876 0.250615 13.7736 0.705347L17.3447 5.5269C16.9326 5.83211 16.4342 5.99773 15.9219 6.00012L15.894 0.000180483ZM13.7736 0.705347C13.1596 1.16011 12.7064 1.79915 12.4806 2.5298L18.2129 4.30182C18.0612 4.79259 17.7568 5.22165 17.3447 5.5269L13.7736 0.705347ZM12.4759 2.54501L11.5083 5.73499L17.25 7.4766L18.2176 4.28662L12.4759 2.54501ZM13.5319 3.7279C12.5173 4.02657 11.5392 4.43717 10.6154 4.95213L13.537 10.1928C14.072 9.89455 14.6386 9.65671 15.2263 9.48369L13.5319 3.7279ZM13.5006 4.93216L10.5977 3.36616L7.749 8.64677L10.6518 10.2128L13.5006 4.93216ZM10.5793 3.35631C9.89753 2.99462 9.11746 2.86229 8.35475 2.9787L9.26004 8.91001C8.74833 8.98811 8.22494 8.89934 7.76743 8.65662L10.5793 3.35631ZM8.35475 2.9787C7.59204 3.09511 6.88675 3.45417 6.34376 4.00315L10.6096 8.22245C10.2451 8.59099 9.77175 8.83191 9.26004 8.91001L8.35475 2.9787ZM6.3831 3.9641L4.0318 6.25509L8.21897 10.5525L10.5703 8.2615L6.3831 3.9641ZM4.01784 6.26879C3.46828 6.81127 3.10808 7.51674 2.99125 8.28066L8.9223 9.18769C8.84382 9.70085 8.60187 10.1746 8.23294 10.5388L4.01784 6.26879ZM2.99125 8.28066C2.87442 9.04461 3.00732 9.8257 3.36994 10.5079L8.66796 7.69169C8.91149 8.14983 9.00078 8.6745 8.9223 9.18769L2.99125 8.28066ZM3.37982 10.5263L4.94735 13.4263L10.2256 10.5732L8.65808 7.67325L3.37982 10.5263ZM4.969 10.5339C4.45419 11.4531 4.04302 12.4266 3.74305 13.4366L9.49469 15.145C9.66821 14.5608 9.90609 13.9975 10.204 13.4656L4.969 10.5339ZM5.75204 11.4187L2.54924 12.3854L4.28291 18.1295L7.4857 17.1628L5.75204 11.4187ZM2.53165 12.3907C1.80188 12.6159 1.16253 13.068 0.706993 13.6818L5.52518 17.2575C5.21931 17.6696 4.79015 17.973 4.30049 18.1241L2.53165 12.3907ZM0.706993 13.6818C0.251423 14.2957 0.00359726 15.0392 3.26633e-05 15.8041L5.99997 15.8321C5.99757 16.3459 5.83108 16.8453 5.52518 17.2575L0.706993 13.6818ZM0 15.8181V19.0854H6V15.8181H0ZM3.26633e-05 19.0994C0.00359726 19.8643 0.251423 20.6078 0.706993 21.2216L5.52518 17.646C5.83108 18.0582 5.99757 18.5576 5.99997 19.0714L3.26633e-05 19.0994ZM0.706993 21.2216C1.16253 21.8355 1.80188 22.2876 2.53165 22.5127L4.30049 16.7794C4.79015 16.9305 5.21931 17.2339 5.52518 17.646L0.706993 21.2216ZM2.55402 22.5195L5.77616 23.4862L7.50028 17.7392L4.27813 16.7726L2.55402 22.5195ZM3.76901 21.4889C4.07231 22.4821 4.48349 23.4392 4.99518 24.343L10.2165 21.387C9.92056 20.8643 9.6828 20.3109 9.50744 19.7366L3.76901 21.4889ZM4.94724 21.4751L3.36036 24.5104L8.67754 27.2903L10.2644 24.255L4.94724 21.4751ZM3.36994 24.4923C3.00732 25.1744 2.87442 25.9555 2.99125 26.7195L8.9223 25.8125C9.00078 26.3257 8.91149 26.8503 8.66796 27.3085L3.36994 24.4923ZM2.99125 26.7195C3.10808 27.4834 3.46829 28.1889 4.01784 28.7314L8.23294 24.4614C8.60187 24.8255 8.84382 25.2993 8.9223 25.8125L2.99125 26.7195ZM4.00511 28.7187L6.3177 31.029L10.5583 26.7843L8.24566 24.474L4.00511 28.7187ZM6.30505 31.0163C6.84804 31.5653 7.55332 31.9244 8.31605 32.0408L9.22133 26.1095C9.73306 26.1876 10.2064 26.4285 10.5709 26.797L6.30505 31.0163ZM8.31605 32.0408C9.07876 32.1572 9.85883 32.0249 10.5406 31.6632L7.72872 26.3629C8.18624 26.1201 8.70963 26.0314 9.22133 26.1095L8.31605 32.0408ZM10.5467 31.6599L13.5366 30.0649L10.7126 24.7711L7.72264 26.3661L10.5467 31.6599ZM10.701 30.0588C11.5965 30.5415 12.541 30.9271 13.5185 31.2091L15.1817 25.4442C14.6149 25.2807 14.0672 25.0571 13.5481 24.7773L10.701 30.0588ZM11.4743 29.1809L12.4419 32.4385L18.1935 30.7301L17.2259 27.4725L11.4743 29.1809ZM12.4515 32.4703C12.6774 33.201 13.1306 33.84 13.7446 34.2948L17.3157 29.4733C17.7278 29.7785 18.0322 30.2076 18.1839 30.6983L12.4515 32.4703ZM13.7446 34.2948C14.3586 34.7495 15.1014 34.9964 15.865 35L15.8929 29C16.4051 29.0024 16.9036 29.168 17.3157 29.4733L13.7446 34.2948ZM15.8789 35H19.1494V29H15.8789V35ZM19.1634 35C19.927 34.9964 20.6698 34.7495 21.2838 34.2948L17.7127 29.4733C18.1248 29.168 18.6232 29.0024 19.1355 29L19.1634 35ZM21.2838 34.2948C21.8978 33.84 22.351 33.201 22.5768 32.4703L16.8445 30.6983C16.9962 30.2076 17.3005 29.7785 17.7127 29.4733L21.2838 34.2948ZM22.5872 32.4362L23.5548 29.1689L17.8018 27.4651L16.8342 30.7325L22.5872 32.4362ZM21.5205 31.1964C22.4899 30.9128 23.4265 30.5271 24.3144 30.0456L21.4544 24.7711C20.9402 25.0499 20.3977 25.2734 19.8361 25.4377L21.5205 31.1964ZM21.4729 30.0555L24.4821 31.6602L27.3053 26.3659L24.296 24.7612L21.4729 30.0555ZM24.4878 31.6632C25.1695 32.0249 25.9496 32.1572 26.7123 32.0408L25.807 26.1095C26.3187 26.0314 26.8421 26.1201 27.2996 26.3629L24.4878 31.6632ZM26.7123 32.0408C27.475 31.9244 28.1803 31.5653 28.7233 31.0163L24.4575 26.797C24.822 26.4285 25.2953 26.1876 25.807 26.1095L26.7123 32.0408ZM28.7107 31.029L31.0233 28.7187L26.7827 24.474L24.4701 26.7843L28.7107 31.029ZM31.0105 28.7314C31.5601 28.1889 31.9203 27.4834 32.0371 26.7195L26.1061 25.8125C26.1845 25.2993 26.4265 24.8255 26.7954 24.4614L31.0105 28.7314ZM32.0371 26.7195C32.1539 25.9555 32.021 25.1744 31.6584 24.4923L26.3604 27.3085C26.1169 26.8503 26.0276 26.3257 26.1061 25.8125L32.0371 26.7195ZM31.6535 24.4831L30.0473 21.4864L24.7591 24.321L26.3653 27.3176L31.6535 24.4831ZM30.0353 24.3432C30.5224 23.4524 30.9129 22.5122 31.1999 21.5385L25.4449 19.8416C25.2788 20.4049 25.0529 20.9489 24.7711 21.4643L30.0353 24.3432ZM29.1751 23.5663L32.4359 22.5997L30.7306 16.8471L27.4698 17.8138L29.1751 23.5663ZM32.4677 22.5901C33.1974 22.3649 33.8368 21.9128 34.2923 21.299L29.4742 17.7234C29.78 17.3112 30.2092 17.0078 30.6988 16.8567L32.4677 22.5901ZM34.2923 21.299C34.7479 20.6851 34.9957 19.9416 34.9993 19.1767L28.9994 19.1488C29.0018 18.6349 29.1682 18.1356 29.4742 17.7234L34.2923 21.299ZM34.9993 19.1627V15.8664H28.9993V19.1627H34.9993ZM34.996 16.0087C35.0307 15.2763 34.8404 14.551 34.4507 13.9302L29.3689 17.1202C29.1072 16.7033 28.9794 16.2161 29.0027 15.7241L34.996 16.0087ZM34.4507 13.9302C34.061 13.3095 33.4909 12.8232 32.8173 12.5362L30.4653 18.056C30.0133 17.8634 29.6306 17.537 29.3689 17.1202L34.4507 13.9302ZM17.5432 19.8167C17.0833 19.8167 16.634 19.6805 16.2521 19.4255L12.921 24.4159C14.2894 25.3293 15.898 25.8167 17.5432 25.8167V19.8167ZM16.2521 19.4255C15.8702 19.1706 15.5731 18.8086 15.3977 18.3857L9.85521 20.6837C10.4854 22.2037 11.5525 23.5024 12.921 24.4159L16.2521 19.4255ZM15.3977 18.3857C15.2223 17.9627 15.1765 17.4975 15.2658 17.0487L9.38136 15.877C9.06003 17.4909 9.22497 19.1636 9.85521 20.6837L15.3977 18.3857ZM15.2658 17.0487C15.3552 16.5999 15.5759 16.1872 15.9004 15.863L11.6598 11.6183C10.4957 12.7812 9.70268 14.2632 9.38136 15.877L15.2658 17.0487ZM15.9004 15.863C16.2249 15.5388 16.6387 15.3177 17.0897 15.2281L15.9202 9.34313C14.3065 9.6638 12.8238 10.4554 11.6598 11.6183L15.9004 15.863ZM17.0897 15.2281C17.5407 15.1384 18.0081 15.1845 18.4327 15.3602L20.7269 9.8161C19.2066 9.18701 17.534 9.02246 15.9202 9.34313L17.0897 15.2281ZM18.4327 15.3602C18.8573 15.5359 19.2198 15.8332 19.4745 16.2142L24.4618 12.8785C23.5471 11.5108 22.2472 10.4452 20.7269 9.8161L18.4327 15.3602ZM19.4745 16.2142C19.7293 16.595 19.8651 17.0425 19.8651 17.5001H25.8651C25.8651 15.8545 25.3766 14.2462 24.4618 12.8785L19.4745 16.2142ZM19.8651 17.5001C19.8651 18.1135 19.6212 18.7025 19.1861 19.1371L23.4266 23.3819C24.9876 21.8224 25.8651 19.7067 25.8651 17.5001H19.8651ZM19.1861 19.1371C18.7509 19.5719 18.16 19.8167 17.5432 19.8167V25.8167C19.7494 25.8167 21.8657 24.9412 23.4266 23.3819L19.1861 19.1371Z" fill="#487EB6" mask="url(#path-1-outside-1_8_2532)"/>
</svg>
