<svg width="52" height="51" viewBox="0 0 52 51" fill="none" xmlns="http://www.w3.org/2000/svg">
<g clip-path="url(#clip0_1_6)">
<g filter="url(#filter0_d_1_6)">
<path d="M51.9819 22.1788C51.9819 23.7413 50.6278 24.9653 49.0931 24.9653H46.2042L46.2674 38.8715C46.2674 39.1059 46.2493 39.3403 46.2222 39.5747V40.9722C46.2222 42.8906 44.6062 44.4444 42.6111 44.4444H41.1667C41.0674 44.4444 40.9681 44.4444 40.8688 44.4358C40.7424 44.4444 40.616 44.4444 40.4896 44.4444H37.5556H35.3889C33.3937 44.4444 31.7778 42.8906 31.7778 40.9722V38.8889V33.3333C31.7778 31.7969 30.4868 30.5556 28.8889 30.5556H23.1111C21.5132 30.5556 20.2222 31.7969 20.2222 33.3333V38.8889V40.9722C20.2222 42.8906 18.6062 44.4444 16.6111 44.4444H14.4444H11.5646C11.4292 44.4444 11.2937 44.4358 11.1583 44.4271C11.05 44.4358 10.9417 44.4444 10.8333 44.4444H9.38889C7.39375 44.4444 5.77778 42.8906 5.77778 40.9722V31.25C5.77778 31.1719 5.77778 31.0851 5.78681 31.0069V24.9653H2.88889C1.26389 24.9653 0 23.75 0 22.1788C0 21.3976 0.270833 20.7031 0.902778 20.0955L24.05 0.694444C24.6819 0.0868056 25.4042 0 26.0361 0C26.6681 0 27.3903 0.173611 27.9319 0.607639L50.9889 20.0955C51.7111 20.7031 52.0722 21.3976 51.9819 22.1788Z" fill="white"/>
</g>
</g>
<defs>
<filter id="filter0_d_1_6" x="-4" y="0" width="59.9956" height="52.4444" filterUnits="userSpaceOnUse" color-interpolation-filters="sRGB">
<feFlood flood-opacity="0" result="BackgroundImageFix"/>
<feColorMatrix in="SourceAlpha" type="matrix" values="0 0 0 0 0 0 0 0 0 0 0 0 0 0 0 0 0 0 127 0" result="hardAlpha"/>
<feOffset dy="4"/>
<feGaussianBlur stdDeviation="2"/>
<feComposite in2="hardAlpha" operator="out"/>
<feColorMatrix type="matrix" values="0 0 0 0 0 0 0 0 0 0 0 0 0 0 0 0 0 0 0.25 0"/>
<feBlend mode="normal" in2="BackgroundImageFix" result="effect1_dropShadow_1_6"/>
<feBlend mode="normal" in="SourceGraphic" in2="effect1_dropShadow_1_6" result="shape"/>
</filter>
<clipPath id="clip0_1_6">
<rect width="52" height="51" fill="white"/>
</clipPath>
</defs>
</svg>
