<svg width="26" height="26" viewBox="0 0 26 26" fill="none" xmlns="http://www.w3.org/2000/svg">
<path d="M1.31742 1.31731L1.31731 1.31742C0.793987 1.8409 0.5 2.5508 0.5 3.29101C0.5 4.03121 0.793987 4.74111 1.31731 5.2646L1.31737 5.26465L9.06655 13.0138L1.31737 20.763L1.31731 20.763L1.31127 20.7692C0.802782 21.2957 0.521414 22.0008 0.527774 22.7328C0.534135 23.4647 0.827714 24.1648 1.34528 24.6824C1.86285 25.2 2.56299 25.4935 3.29491 25.4999C4.02683 25.5063 4.73197 25.2249 5.25845 24.7164L5.25851 24.7164L5.26465 24.7103L13.0138 16.9611L20.763 24.7103L20.763 24.7104L20.7692 24.7164C21.2957 25.2249 22.0008 25.5063 22.7328 25.4999C23.4647 25.4935 24.1648 25.2 24.6824 24.6824C25.2 24.1648 25.4935 23.4647 25.4999 22.7328C25.5063 22.0008 25.2249 21.2957 24.7164 20.7692L24.7164 20.7692L24.7103 20.763L16.9611 13.0138L24.7103 5.26465L24.7104 5.2647L24.7164 5.25845C25.2249 4.73197 25.5063 4.02683 25.4999 3.29491C25.4935 2.56299 25.2 1.86285 24.6824 1.34528C24.1648 0.827714 23.4647 0.534135 22.7328 0.527774C22.0008 0.521414 21.2957 0.802782 20.7692 1.31127L20.7692 1.31122L20.763 1.31737L13.0138 9.06655L5.26465 1.31737L5.2646 1.31731C4.74111 0.793987 4.03121 0.5 3.29101 0.5C2.5508 0.5 1.8409 0.793987 1.31742 1.31731Z" fill="#7A22C5" stroke="#7A22C5"/>
</svg>
