<svg width="273" height="52" viewBox="0 0 273 52" fill="none" xmlns="http://www.w3.org/2000/svg">
<g id="Group 31">
<g id="outer">
<mask id="path-1-inside-1_244_6" fill="white">
<path fill-rule="evenodd" clip-rule="evenodd" d="M53.7128 39C50.5001 39 47.6199 40.798 45.493 43.2058C40.729 48.5989 33.7617 52 26 52C11.6406 52 0 40.3594 0 26C0 11.6406 11.6406 0 26 0C34.9621 0 42.8652 4.53447 47.5401 11.4343C49.6542 14.5546 52.9034 17 56.6725 17H216.328C220.097 17 223.346 14.5546 225.46 11.4343C230.135 4.53446 238.038 0 247 0C261.359 0 273 11.6406 273 26C273 40.3594 261.359 52 247 52C239.238 52 232.271 48.5989 227.507 43.2058C225.38 40.798 222.5 39 219.287 39H53.7128Z"/>
</mask>
<path fill-rule="evenodd" clip-rule="evenodd" d="M53.7128 39C50.5001 39 47.6199 40.798 45.493 43.2058C40.729 48.5989 33.7617 52 26 52C11.6406 52 0 40.3594 0 26C0 11.6406 11.6406 0 26 0C34.9621 0 42.8652 4.53447 47.5401 11.4343C49.6542 14.5546 52.9034 17 56.6725 17H216.328C220.097 17 223.346 14.5546 225.46 11.4343C230.135 4.53446 238.038 0 247 0C261.359 0 273 11.6406 273 26C273 40.3594 261.359 52 247 52C239.238 52 232.271 48.5989 227.507 43.2058C225.38 40.798 222.5 39 219.287 39H53.7128Z" fill="#CFD9EC"/>
<path d="M225.46 11.4343L222.976 9.75156L225.46 11.4343ZM47.5401 11.4343L45.0565 13.117L47.5401 11.4343ZM45.493 43.2058L43.2446 41.2197L45.493 43.2058ZM26 55C34.6577 55 42.4321 51.2024 47.7414 45.1919L43.2446 41.2197C39.0259 45.9955 32.8657 49 26 49V55ZM-3 26C-3 42.0163 9.98374 55 26 55V49C13.2975 49 3 38.7025 3 26H-3ZM26 -3C9.98374 -3 -3 9.98374 -3 26H3C3 13.2975 13.2975 3 26 3V-3ZM50.0237 9.75156C44.8145 2.06309 35.999 -3 26 -3V3C33.9253 3 40.9159 7.00585 45.0565 13.117L50.0237 9.75156ZM56.6725 20H216.328V14H56.6725V20ZM247 -3C237.001 -3 228.186 2.06308 222.976 9.75156L227.944 13.117C232.084 7.00584 239.075 3 247 3V-3ZM276 26C276 9.98374 263.016 -3 247 -3V3C259.703 3 270 13.2975 270 26H276ZM247 55C263.016 55 276 42.0163 276 26H270C270 38.7025 259.703 49 247 49V55ZM225.259 45.1919C230.568 51.2024 238.342 55 247 55V49C240.134 49 233.974 45.9955 229.755 41.2197L225.259 45.1919ZM219.287 36H53.7128V42H219.287V36ZM216.328 20C221.451 20 225.509 16.7104 227.944 13.117L222.976 9.75156C221.183 12.3988 218.742 14 216.328 14V20ZM229.755 41.2197C227.285 38.4233 223.651 36 219.287 36V42C221.349 42 223.475 43.1726 225.259 45.1919L229.755 41.2197ZM45.0565 13.117C47.4911 16.7104 51.5486 20 56.6725 20V14C54.2582 14 51.8173 12.3988 50.0237 9.75156L45.0565 13.117ZM47.7414 45.1919C49.5252 43.1726 51.6514 42 53.7128 42V36C49.3488 36 45.7147 38.4233 43.2446 41.2197L47.7414 45.1919Z" fill="white" mask="url(#path-1-inside-1_244_6)"/>
</g>
<path id="inner" fill-rule="evenodd" clip-rule="evenodd" d="M49.0226 36C47.841 36 46.7854 36.7033 46.2081 37.7342C42.4435 44.4563 35.2524 49 27 49C14.8497 49 5 39.1503 5 27C5 14.8497 14.8497 5 27 5C36.596 5 44.7571 11.1438 47.7643 19.7125C48.2263 21.029 49.4168 22 50.8121 22H223.188C224.583 22 225.774 21.029 226.236 19.7125C229.243 11.1438 237.404 5 247 5C259.15 5 269 14.8497 269 27C269 39.1503 259.15 49 247 49C238.748 49 231.557 44.4563 227.792 37.7342C227.215 36.7033 226.159 36 224.977 36H49.0226Z" fill="url(#paint0_linear_244_6)"/>
</g>
<defs>
<linearGradient id="paint0_linear_244_6" x1="74" y1="5" x2="74" y2="49" gradientUnits="userSpaceOnUse">
<stop offset="0.560417" stop-color="#2AFC43"/>
<stop offset="0.6125" stop-color="#15E942"/>
</linearGradient>
</defs>
</svg>


