<svg width="74" height="68" viewBox="0 0 74 68" fill="none" xmlns="http://www.w3.org/2000/svg">
<g clip-path="url(#clip0_6_674)">
<path d="M15.9754 47.1155C15.4414 47.4237 14.746 47.2939 14.3527 46.7878C14.1093 46.4741 8.39258 39.0554 8.3123 34.2216C8.27492 31.9595 10.0452 29.3882 13.5741 26.5812C16.0418 24.6181 18.4801 23.2398 18.583 23.1804C19.187 22.8401 19.9557 23.0608 20.2987 23.6717C20.6409 24.2788 20.4357 25.0436 19.8405 25.3872C19.8363 25.3896 19.8322 25.392 19.828 25.3944C16.3291 27.3683 10.7831 31.5082 10.8278 34.2077C10.8821 37.5116 14.8169 43.2953 16.3281 45.2435C16.7574 45.7975 16.6635 46.592 16.1179 47.0192C16.0712 47.0559 16.0232 47.0879 15.9733 47.1167L15.9754 47.1155Z" fill="#FD1592"/>
<path d="M28.7991 44.7376C28.4501 44.9391 28.0791 45.1505 27.6797 45.3727C24.8307 46.9657 21.9914 48.3764 21.9622 48.3905C21.7137 48.5143 21.4111 48.41 21.2855 48.1588C21.1598 47.9075 21.264 47.6034 21.5077 47.4809C21.5359 47.4674 24.3218 46.0819 27.1319 44.5127C32.3944 41.5754 32.8787 40.7181 32.9218 40.5769C33.1638 39.547 31.5327 36.4652 30.4487 34.7652C30.2981 34.5283 30.3646 34.2165 30.5979 34.0664C30.827 33.9187 31.1424 33.9876 31.294 34.2238C31.8015 35.0188 34.3109 39.0726 33.9006 40.8207C33.8194 41.1648 33.638 41.9397 28.7963 44.735L28.7991 44.7376Z" fill="#FD1592"/>
<path d="M59.0737 14.0271C59.0737 14.0271 53.3818 3.53514 52.3993 3.10002C51.4178 2.66429 17.6016 23.4021 17.6016 23.4021L19.5381 26.6651L59.0737 14.0271Z" fill="#3B4A4E"/>
<path d="M14.4899 22.9808C14.3058 21.8198 16.3275 20.8642 16.9052 21.0228C17.4828 21.1814 19.8827 25.2157 19.8827 25.2157C19.8827 25.2157 58.6086 12.9217 59.7049 13.1341C60.8006 13.3455 62.6598 17.4102 62.1443 18.2013C61.6271 18.992 30.7009 36.0033 30.7009 36.0033L19.5017 31.4191L14.491 22.9802L14.4899 22.9808Z" fill="#757E74"/>
<path d="M24.9727 38.6067L26.2023 42.5428C26.2023 42.5428 28.2924 41.8281 27.9157 37.6828C27.5384 33.5364 24.9733 38.6077 24.9733 38.6077L24.9727 38.6067Z" fill="#FD1592"/>
<path d="M31.5907 32.9001C31.7547 33.5008 31.8541 34.028 31.8689 34.4135C31.949 36.4785 27.4715 38.3599 25.6767 39.4662C23.8819 40.5725 23.4721 44.6798 22.7221 46.8736C21.9715 49.0664 25.079 52.7623 25.9977 53.9913C26.9165 55.2203 28.0404 52.9521 29.3013 53.2097C30.5622 53.4673 32.5973 58.5562 32.6671 59.6416C32.737 60.727 23.237 66.0717 21.3629 65.9564C20.803 65.9222 19.8107 64.6544 18.7077 62.7944C16.1172 58.4299 12.9156 50.7999 13.2583 48.1837C13.747 44.4528 17.29 38.1846 17.5841 36.8876C17.8789 35.5917 15.6152 34.2882 16.2287 33.0957C16.9497 31.6938 25.6637 27.1563 27.4715 26.6747C28.9419 26.2828 30.8777 30.2809 31.5906 32.8974L31.5907 32.9001Z" fill="#3B4A4E"/>
<path d="M31.5907 32.9002C29.8924 34.3798 24.4408 36.9777 22.5381 38.6048C20.2571 40.5554 18.5255 45.144 18.693 46.8783C18.8599 48.6115 26.0785 57.9598 24.794 59.6141C22.7323 62.2708 20.0524 62.7414 18.7089 62.7965C16.1184 58.432 12.9168 50.802 13.2595 48.1858C13.7482 44.4549 17.2912 38.1867 17.5854 36.8897C17.8801 35.5938 15.6164 34.2903 16.2299 33.0978C16.951 31.6959 25.6649 27.1584 27.4728 26.6768C28.9432 26.2849 30.8789 30.283 31.5918 32.8996L31.5907 32.9002Z" fill="#6B28DD"/>
<path d="M23.2825 59.1648L19.7361 61.2123C19.5865 61.2986 19.394 61.2458 19.3065 61.0944C19.2191 60.9429 19.2696 60.7498 19.4192 60.6634L22.9656 58.6159C23.1152 58.5295 23.3077 58.5824 23.3952 58.7338C23.4826 58.8852 23.4321 59.0784 23.2825 59.1648Z" fill="#FD1592"/>
<path d="M22.4593 57.739L18.9129 59.7865C18.7633 59.8729 18.5708 59.82 18.4834 59.6686C18.3959 59.5172 18.4465 59.324 18.596 59.2376L22.1424 57.1901C22.292 57.1038 22.4846 57.1566 22.572 57.308C22.6594 57.4594 22.6089 57.6526 22.4593 57.739Z" fill="#FD1592"/>
<path d="M21.6058 56.2606L18.0594 58.3082C17.9098 58.3945 17.7173 58.3417 17.6298 58.1903C17.5424 58.0388 17.5929 57.8457 17.7425 57.7593L21.2889 55.7118C21.4385 55.6254 21.631 55.6783 21.7185 55.8297C21.8059 55.9811 21.7554 56.1743 21.6058 56.2606Z" fill="#FD1592"/>
<path d="M20.7377 54.7571L17.1913 56.8046C17.0417 56.8909 16.8492 56.8381 16.7617 56.6867C16.6743 56.5353 16.7248 56.3421 16.8744 56.2557L20.4208 54.2082C20.5704 54.1219 20.7629 54.1747 20.8504 54.3261C20.9378 54.4775 20.8873 54.6707 20.7377 54.7571Z" fill="#FD1592"/>
<path d="M35.8913 26.3558L38.8398 31.4627C38.8398 31.4627 36.7338 32.1501 36.8805 32.8575C37.0282 33.5643 40.4991 39.8472 41.3764 39.9225C42.253 39.9968 60.634 29.6481 60.9488 28.5691C61.2635 27.4902 57.4896 21.2223 56.8538 21.1142C56.218 21.006 55.3092 22.3228 55.3092 22.3228L53.7776 19.67L35.8907 26.3548L35.8913 26.3558Z" fill="#273534"/>
<path d="M55.9309 23.1261L39.3074 32.7237L41.7532 36.96L58.3767 27.3624L55.9309 23.1261Z" fill="#6B28DD"/>
<path d="M42.9218 35.2801C42.7722 35.3664 42.5796 35.3136 42.4922 35.1622L41.2805 33.0635C41.1931 32.9121 41.2436 32.7189 41.3932 32.6325C41.5428 32.5462 41.7354 32.599 41.8228 32.7504L43.0345 34.8491C43.1219 35.0005 43.0714 35.1937 42.9218 35.2801Z" fill="#FD1592"/>
<path d="M44.5246 34.3547C44.375 34.441 44.1825 34.3882 44.0951 34.2368L42.8834 32.1381C42.796 31.9867 42.8465 31.7935 42.9961 31.7071C43.1457 31.6208 43.3382 31.6736 43.4256 31.825L44.6373 33.9237C44.7247 34.0751 44.6742 34.2683 44.5246 34.3547Z" fill="#FD1592"/>
<path d="M46.0506 33.4737C45.901 33.56 45.7085 33.5072 45.621 33.3558L44.4094 31.2571C44.3219 31.1057 44.3725 30.9125 44.522 30.8261C44.6716 30.7397 44.8642 30.7926 44.9516 30.944L46.1633 33.0427C46.2507 33.1941 46.2002 33.3873 46.0506 33.4737Z" fill="#FD1592"/>
<path d="M47.6929 32.5255C47.5433 32.6118 47.3508 32.559 47.2633 32.4076L46.0517 30.3089C45.9642 30.1575 46.0148 29.9643 46.1643 29.8779C46.3139 29.7916 46.5065 29.8444 46.5939 29.9958L47.8056 32.0945C47.893 32.2459 47.8425 32.4391 47.6929 32.5255Z" fill="#FD1592"/>
<path d="M49.3747 31.5545C49.2251 31.6409 49.0325 31.588 48.9451 31.4366L47.7334 29.3379C47.646 29.1865 47.6965 28.9933 47.8461 28.907C47.9957 28.8206 48.1882 28.8734 48.2757 29.0249L49.4873 31.1235C49.5748 31.275 49.5243 31.4681 49.3747 31.5545Z" fill="#FD1592"/>
<path d="M50.9785 30.6285C50.829 30.7149 50.6364 30.662 50.549 30.5106L49.3373 28.4119C49.2499 28.2605 49.3004 28.0673 49.45 27.981C49.5996 27.8946 49.7921 27.9474 49.8795 28.0989L51.0912 30.1976C51.1786 30.349 51.1281 30.5422 50.9785 30.6285Z" fill="#FD1592"/>
<path d="M52.5045 29.7475C52.3549 29.8339 52.1623 29.781 52.0749 29.6296L50.8632 27.5309C50.7758 27.3795 50.8263 27.1863 50.9759 27.0999C51.1255 27.0136 51.3181 27.0664 51.4055 27.2178L52.6172 29.3165C52.7046 29.4679 52.6541 29.6611 52.5045 29.7475Z" fill="#FD1592"/>
<path d="M54.1468 28.7993C53.9972 28.8857 53.8046 28.8328 53.7172 28.6814L52.5055 26.5827C52.4181 26.4313 52.4686 26.2381 52.6182 26.1518C52.7678 26.0654 52.9604 26.1183 53.0478 26.2697L54.2595 28.3684C54.3469 28.5198 54.2964 28.713 54.1468 28.7993Z" fill="#FD1592"/>
<path d="M55.946 27.7606C55.7964 27.8469 55.6038 27.7941 55.5164 27.6427L54.3047 25.544C54.2173 25.3926 54.2678 25.1994 54.4174 25.113C54.567 25.0267 54.7595 25.0795 54.847 25.2309L56.0586 27.3296C56.1461 27.481 56.0955 27.6742 55.946 27.7606Z" fill="#FD1592"/>
<path d="M52.8297 11.0698C53.2699 9.38618 52.2664 7.64793 50.5882 7.18734C48.91 6.72674 47.1927 7.71823 46.7525 9.40187C46.3123 11.0855 47.3159 12.8238 48.994 13.2844C50.6722 13.745 52.3895 12.7535 52.8297 11.0698Z" fill="#FD1592"/>
<path d="M49.7189 10.0492C49.5392 10.1529 49.3077 10.0903 49.2021 9.90735L48.3637 8.45529C48.2587 8.27339 48.3186 8.04118 48.4993 7.93682C48.68 7.83247 48.9105 7.89571 49.0161 8.07866L49.8544 9.53071C49.9595 9.71261 49.8996 9.94483 49.7189 10.0492Z" fill="#3B4A4E"/>
<path d="M52.2175 9.46877L50.783 10.297C50.6033 10.4008 50.3718 10.3381 50.2662 10.1552C50.1606 9.97222 50.221 9.74105 50.4018 9.63669L51.8363 8.80846C52.016 8.7047 52.2481 8.7684 52.3531 8.9503C52.4581 9.1322 52.3983 9.36441 52.2175 9.46877Z" fill="#3B4A4E"/>
</g>
<defs>
<clipPath id="clip0_6_674">
<rect width="60.7977" height="42.3275" fill="white" transform="translate(0 30.3989) rotate(-30)"/>
</clipPath>
</defs>
</svg>
