<svg width="82" height="78" viewBox="0 0 82 78" fill="none" xmlns="http://www.w3.org/2000/svg">
<path d="M33.4596 46.5068C33.4596 46.5068 34.2144 49.8232 36.5738 50.406C36.5738 50.406 33.7462 53.2746 30.0922 50.7481L29.5173 48.8031L33.4596 46.5068Z" fill="#00E5FF"/>
<path d="M41.059 40.4373L33.1577 46.7479C29.0079 50.0622 30.0748 52.4981 30.0748 52.4981L38.7774 67.5112C39.0948 68.0468 38.9684 68.7317 38.4834 69.1191L29.9198 72.7495C29.3224 73.2267 28.4404 73.0578 28.0609 72.3982L19.9809 58.303C19.127 56.8123 19.4681 54.9406 20.7722 53.8201C22.1534 52.6381 23.4008 51.0053 22.2362 49.5471C20.0967 46.8683 14.044 51.9234 14.044 51.9234L15.7366 46.626L33.2769 32.617L34.1397 27.1038L28.8986 21.6415L48.3912 12.2704L55.2449 11.4259C55.826 11.3564 56.4023 11.5906 56.7665 12.0467L60.7427 17.0251C61.1403 17.523 61.222 18.2048 60.9551 18.7862L58.0149 25.1432L41.0616 40.4405L41.059 40.4373Z" fill="#0277BD"/>
<g style="mix-blend-mode:multiply" opacity="0.3">
<path d="M60.9551 18.7862C61.2245 18.208 61.1429 17.5262 60.7427 17.0251L59.9526 16.0359L18.3518 49.2615C19.8475 48.6509 21.3697 48.4557 22.2419 49.5477C23.4066 51.0059 22.1566 52.6355 20.778 53.8208C19.4771 54.9387 19.1328 56.8129 19.9899 58.3011L28.0699 72.3963C28.452 73.0591 29.3314 73.2248 29.9288 72.7476L38.4924 69.1171C38.9774 68.7298 39.1037 68.0449 38.7864 67.5092L30.0838 52.4962C30.0838 52.4962 29.0169 50.0603 33.1667 46.746L41.068 40.4354L58.0213 25.1381L60.9615 18.7811L60.9551 18.7862Z" fill="#0277BD"/>
</g>
<path d="M29.4829 22.248L6.35663 38.1091L4.25389 48.0111C4.25389 48.0111 7.95834 53.2224 14.044 51.9234L15.4908 47.3852C15.6517 46.8885 15.9493 46.4509 16.3572 46.1251L33.2744 32.6138L34.1371 27.1006L29.4803 22.2448L29.4829 22.248Z" fill="#FFD740"/>
<path d="M5.96546 39.9577L3.85751 39.6106L2.36519 45.6529L4.6515 46.1311L5.96546 39.9577Z" fill="#00E5FF"/>
<path d="M32.1489 56.5705C42.1059 48.6181 36.5398 44.0467 36.5398 44.0467L38.2807 42.6563C38.2807 42.6563 45.6747 49.2135 33.3825 58.5629L32.1489 56.5705Z" fill="#0277BD"/>
<g style="mix-blend-mode:multiply" opacity="0.5">
<path d="M32.1489 56.5705C42.1059 48.6181 36.5398 44.0467 36.5398 44.0467L38.2807 42.6563C38.2807 42.6563 45.6747 49.2135 33.3825 58.5629L32.1489 56.5705Z" fill="#0277BD"/>
</g>
<path d="M57.3283 12.7501L60.4342 10.2694C60.8454 9.94109 61.443 10.0109 61.7688 10.4188L63.6568 12.7828C63.9852 13.1939 63.9154 13.7915 63.5075 14.1173L60.4015 16.598L57.3257 12.7469L57.3283 12.7501Z" fill="#FFD740"/>
<path d="M23.7839 41.6245L20.0806 44.5822L21.3093 46.1208L25.0127 43.163L23.7839 41.6245Z" fill="#B388FF"/>
<path d="M28.4348 37.9099L24.7314 40.8677L25.9602 42.4062L29.6635 39.4485L28.4348 37.9099Z" fill="#B388FF"/>
<path d="M33.0856 34.1954L29.3823 37.1532L30.611 38.6917L34.3144 35.7339L33.0856 34.1954Z" fill="#B388FF"/>
<path d="M50.3473 19.383L39.0992 28.3667L39.9021 29.372L51.1503 20.3884L50.3473 19.383Z" fill="#B388FF"/>
<path d="M52.3842 21.9333L41.136 30.9169L41.939 31.9223L53.1871 22.9386L52.3842 21.9333Z" fill="#B388FF"/>
<path d="M37.3696 38.0969L57.7363 21.8304C58.1025 21.538 58.634 21.5975 58.9265 21.9636L62.2151 26.0813C63.2515 27.3789 63.0369 29.2706 61.7425 30.3044L44.7482 43.8774C43.4506 44.9137 41.5589 44.6991 40.5251 43.4047L37.2364 39.287C36.9439 38.9208 37.0034 38.3893 37.3696 38.0969Z" fill="#00E5FF"/>
<path d="M39.0812 21.2106C39.7764 22.0811 39.6348 23.3463 38.7643 24.0415C37.8939 24.7367 36.6287 24.595 35.9335 23.7246C35.2383 22.8542 35.3799 21.589 36.2504 20.8938C37.1208 20.1986 38.386 20.3402 39.0812 21.2106Z" fill="#FFD740"/>
<path d="M42.4379 19.0242C42.8894 19.5895 42.7976 20.4099 42.2323 20.8614C41.667 21.3129 40.8466 21.2211 40.3951 20.6558C39.9436 20.0905 40.0354 19.2701 40.6007 18.8186C41.166 18.3671 41.9864 18.4589 42.4379 19.0242Z" fill="#FFD740"/>
<path d="M45.3017 17.4524C45.6198 17.8507 45.5545 18.4342 45.1562 18.7523C44.7579 19.0704 44.1744 19.0051 43.8563 18.6068C43.5382 18.2085 43.6035 17.625 44.0018 17.3069C44.4001 16.9889 44.9836 17.0542 45.3017 17.4524Z" fill="#FFD740"/>
<g style="mix-blend-mode:multiply" opacity="0.7">
<path d="M29.4829 22.248L27.791 23.4099L32.242 27.8829L32.9961 31.3103L14.5212 46.0659C8.56051 50.8212 4.65149 46.1311 4.65149 46.1311L4.25388 48.0111C4.25388 48.0111 7.95833 53.2224 14.044 51.9234L15.7366 46.626L33.2769 32.617L34.1397 27.1038L29.4829 22.248Z" fill="#E6C23A"/>
</g>
<g style="mix-blend-mode:screen">
<path d="M10.2367 38.093L26.2982 26.8959" stroke="#E6C23A" stroke-width="0.822122" stroke-miterlimit="10" stroke-linecap="round"/>
</g>
<g style="mix-blend-mode:multiply" opacity="0.7">
<g style="mix-blend-mode:multiply">
<path d="M47.1147 41.9925C47.0583 41.8692 46.9897 41.7504 46.9025 41.6412L43.4266 37.2891C42.8211 36.5311 41.7177 36.4076 40.9597 37.013C40.2017 37.6184 40.0782 38.7218 40.6836 39.4798L44.1595 43.832C44.2057 43.8898 44.2615 43.9399 44.3116 43.9894C44.675 43.8517 45.0238 43.6626 45.3417 43.4086L47.1147 41.9925Z" fill="#00C3D9"/>
</g>
<g style="mix-blend-mode:multiply">
<path d="M55.4172 25.4608C54.6592 26.0662 54.5357 27.1697 55.1411 27.9277L58.617 32.2798C58.7042 32.3891 58.805 32.4822 58.9127 32.5645L61.1579 30.7713C61.3024 30.6559 61.4367 30.5276 61.5568 30.3948C61.5043 30.2895 61.437 30.1855 61.36 30.0891L57.884 25.7369C57.2786 24.9789 56.1752 24.8554 55.4172 25.4608Z" fill="#00C3D9"/>
</g>
<g style="mix-blend-mode:multiply">
<path d="M51.7178 37.7901L48.2419 33.4379C47.6365 32.6799 46.533 32.5564 45.775 33.1618C45.017 33.7672 44.8935 34.8707 45.4989 35.6287L48.9748 39.9808C49.0621 40.09 49.1628 40.1832 49.2706 40.2655L51.9332 38.1389C51.8768 38.0156 51.8083 37.8967 51.721 37.7875L51.7178 37.7901Z" fill="#00C3D9"/>
</g>
<g style="mix-blend-mode:multiply">
<path d="M56.5389 33.9396L53.063 29.5874C52.4576 28.8294 51.3541 28.7059 50.5961 29.3113C49.8381 29.9167 49.7146 31.0202 50.32 31.7782L53.7959 36.1303C53.8832 36.2395 53.9839 36.3327 54.0917 36.415L56.7543 34.2884C56.698 34.165 56.6294 34.0462 56.5421 33.937L56.5389 33.9396Z" fill="#00C3D9"/>
</g>
</g>
<path d="M41.6316 36.471L41.0824 36.9097C40.4757 37.3942 40.3767 38.2788 40.8612 38.8855L44.7758 43.7869C45.2604 44.3936 46.145 44.4926 46.7516 44.008L47.3009 43.5694C47.9076 43.0848 48.0066 42.2002 47.522 41.5936L43.6074 36.6922C43.1229 36.0855 42.2383 35.9865 41.6316 36.471Z" fill="#52EDFF"/>
<path d="M46.4527 32.6205L45.9035 33.0592C45.2968 33.5437 45.1978 34.4283 45.6823 35.035L49.5969 39.9364C50.0815 40.5431 50.9661 40.6421 51.5728 40.1575L52.122 39.7189C52.7287 39.2343 52.8277 38.3497 52.3431 37.7431L48.4285 32.8417C47.944 32.235 47.0594 32.136 46.4527 32.6205Z" fill="#52EDFF"/>
<path d="M51.2706 28.7726L50.7213 29.2113C50.1147 29.6958 50.0157 30.5804 50.5002 31.1871L54.4148 36.0885C54.8994 36.6951 55.7839 36.7941 56.3906 36.3096L56.9399 35.8709C57.5465 35.3864 57.6455 34.5018 57.161 33.8951L53.2464 28.9938C52.7618 28.3871 51.8772 28.2881 51.2706 28.7726Z" fill="#52EDFF"/>
<path d="M56.0917 24.9221L55.5424 25.3608C54.9358 25.8453 54.8368 26.7299 55.3213 27.3366L59.2359 32.238C59.7205 32.8446 60.6051 32.9436 61.2117 32.4591L61.761 32.0204C62.3676 31.5359 62.4666 30.6513 61.9821 30.0446L58.0675 25.1432C57.583 24.5366 56.6984 24.4376 56.0917 24.9221Z" fill="#52EDFF"/>
<g style="mix-blend-mode:multiply" opacity="0.7">
<path d="M63.66 12.7802L62.8084 11.7139L58.9573 14.7896L60.4015 16.598L63.5075 14.1173C63.9186 13.789 63.9826 13.1907 63.6568 12.7828L63.66 12.7802Z" fill="#E6C23A"/>
</g>
</svg>
