<svg width="71" height="69" viewBox="0 0 71 69" fill="none" xmlns="http://www.w3.org/2000/svg">
<path d="M21.5 69L4 24L62 48L64.5 65L21.5 69Z" fill="url(#paint0_linear_225_2)" fill-opacity="0.3"/>
<path d="M59.5761 43.8044L56.7065 49.1969L9.52171 28.6817C7.48847 27.7975 5.8649 26.948 4.71008 25.5999C3.53467 24.2252 2.9066 22.412 2.92595 19.6586L2.93713 18.1043C21.9723 26.3789 41.007 34.6541 60.0405 42.9324L59.576 43.8054L59.5761 43.8044ZM55.8333 46.659L57.3062 43.8921L5.03784 21.1666C5.21107 22.5626 5.64711 23.5634 6.31327 24.3408L6.31723 24.3424C7.23637 25.4154 8.65546 26.1461 10.4544 26.9286L55.8338 46.6595L55.8333 46.659Z" fill="#1C1D29"/>
<path fill-rule="evenodd" clip-rule="evenodd" d="M58.6731 43.412L56.2697 47.9277L9.98735 27.8054C6.15562 26.1393 3.90404 24.6447 3.93959 19.6145L58.6731 43.412Z" fill="white"/>
<path fill-rule="evenodd" clip-rule="evenodd" d="M58.6731 43.412L56.739 47.0456L10.4572 26.9228C6.92053 25.385 5.0684 24.14 4.78027 19.9798L58.6731 43.412Z" fill="#B3B3B3"/>
<path fill-rule="evenodd" clip-rule="evenodd" d="M27.69 35.5021L24.0081 33.9011L21.1347 27.091L24.8167 28.692L27.69 35.5021Z" fill="white"/>
<path fill-rule="evenodd" clip-rule="evenodd" d="M35.8976 39.0711L30.5284 36.736L27.655 29.9259L33.0253 32.2608L35.8976 39.0711Z" fill="white"/>
<path d="M52.7278 42.0318L51.3658 44.5913C51.323 44.6718 51.3124 44.7511 51.3297 44.8134C51.3363 44.8375 51.3451 44.8553 51.353 44.8585L64.2326 50.4585L64.2309 50.4622C64.2369 50.4646 64.2582 50.4585 64.2863 50.4471C64.3511 50.4209 64.4131 50.3637 64.4558 50.2833L65.8183 47.7232C65.8611 47.6427 65.8717 47.5634 65.8539 47.5016C65.8464 47.4746 65.8381 47.4563 65.8322 47.4528L65.8296 47.4556L52.951 41.8565C52.9431 41.8533 52.9223 41.8579 52.8973 41.868C52.8325 41.8941 52.7705 41.9513 52.7278 42.0318ZM49.5599 43.8065L50.9219 41.247C51.1974 40.7294 51.6529 40.3401 52.1623 40.1317C52.7115 39.9071 53.3263 39.8858 53.8729 40.1237L66.7525 45.7237L66.7508 45.7274C67.2984 45.9662 67.6657 46.4113 67.8134 46.9374C67.952 47.4276 67.8998 47.9914 67.6237 48.5096L66.2617 51.0691C65.9862 51.5866 65.5312 51.9754 65.0212 52.1844C64.4746 52.4082 63.8603 52.4279 63.3128 52.1891L63.3101 52.1919L50.4316 46.5928C49.8855 46.3553 49.5192 45.9081 49.3706 45.3801C49.2326 44.8893 49.2848 44.3255 49.5603 43.808L49.5599 43.8065Z" fill="#1C1D29"/>
<path fill-rule="evenodd" clip-rule="evenodd" d="M51.8248 41.6394L50.4628 44.1989C50.1445 44.7969 50.3373 45.4841 50.8928 45.7251L63.7723 51.3251C64.3269 51.5662 65.041 51.2742 65.3592 50.6761L66.7212 48.1166C67.0395 47.5186 66.8462 46.832 66.2912 46.5904L53.4117 40.9904C52.8572 40.7493 52.1431 41.0413 51.8243 41.6399L51.8248 41.6394Z" fill="#697791"/>
<path fill-rule="evenodd" clip-rule="evenodd" d="M51.604 42.0541L50.6832 43.7837C50.4683 44.1883 50.5987 44.652 50.9739 44.8148L64.5073 50.6989C64.8824 50.8617 65.3647 50.6645 65.5797 50.2599L66.5004 48.5303C66.7159 48.1262 66.5849 47.662 66.2098 47.4993L52.6764 41.6151C52.3012 41.4524 51.8189 41.6496 51.604 42.0541Z" fill="#384357"/>
<path d="M48.4819 49.6608L48.7905 49.8029C49.099 49.9461 49.5497 50.1578 49.7282 50.2322L56.5695 37.378L55.1599 36.7654L48.3327 49.593L48.4824 49.6612L48.4819 49.6608ZM47.7962 51.6293L47.5335 51.5083C47.1856 51.3564 46.8161 51.1633 46.5577 50.8249C46.1979 50.3534 46.0896 49.7572 46.5091 48.9699L53.5729 35.6973L53.5943 35.6744C53.8378 35.2998 54.1887 35.0189 54.5735 34.8613L54.5767 34.858C55.0217 34.6761 55.5178 34.6587 55.9567 34.8498L57.6983 35.6068C58.1422 35.7995 58.4401 36.1677 58.563 36.6055C58.6843 37.0354 58.6365 37.5352 58.3897 37.9989L58.3926 38.0016L51.4014 51.1378C51.2346 51.4512 50.9931 51.7111 50.7129 51.9021C50.4266 52.0978 50.0959 52.2193 49.7636 52.249C49.2212 52.2973 48.3524 51.8899 47.8001 51.6309L47.7977 51.6286L47.7962 51.6293Z" fill="#1C1D29"/>
<path fill-rule="evenodd" clip-rule="evenodd" d="M48.0074 50.5853C48.3696 50.7433 49.4231 51.2866 49.7821 51.2547C50.0795 51.2279 50.3757 51.0382 50.5337 50.7419L57.525 37.6057C57.7485 37.1851 57.6133 36.7022 57.2228 36.5324L55.4812 35.7755C55.0912 35.6062 54.589 35.8109 54.3649 36.232L47.3736 49.3682C46.998 50.0739 47.5216 50.3741 48.0064 50.5854L48.0074 50.5853Z" fill="#F2E827"/>
<path fill-rule="evenodd" clip-rule="evenodd" d="M48.6717 48.5715L50.4129 49.328C50.8034 49.4978 51.3051 49.2926 51.5292 48.8715L56.53 39.4755C56.7536 39.055 56.6183 38.572 56.2278 38.4022L54.4867 37.6457C54.0967 37.4764 53.5945 37.6811 53.3709 38.1017L48.3706 47.4982C48.147 47.9187 48.2828 48.4011 48.6728 48.5714L48.6717 48.5715Z" fill="#EBA50E"/>
<defs>
<linearGradient id="paint0_linear_225_2" x1="34.25" y1="24" x2="34.25" y2="69" gradientUnits="userSpaceOnUse">
<stop stop-color="#181818"/>
<stop offset="1" stop-opacity="0"/>
</linearGradient>
</defs>
</svg>
