<svg width="79" height="51" viewBox="0 0 79 51" fill="none" xmlns="http://www.w3.org/2000/svg">
<g clip-path="url(#clip0_8_1616)">
<path d="M39.7492 23.6624C39.7492 23.6624 40.1454 27.6403 43.5967 31.8337C47.0472 36.0275 47.1199 36.4347 48.3713 36.2791C49.6234 36.1232 53.3203 32.4251 53.2363 31.3714C53.1524 30.3176 50.5912 29.8541 48.0968 25.8987C45.6024 21.9433 45.0963 20.3166 45.0963 20.3166L39.7489 23.6616L39.7492 23.6624Z" fill="#4D5A5A"/>
<path d="M39.3573 28.487L32.1514 31.0472C31.9792 31.1084 31.7904 31.0192 31.7295 30.8479C31.6687 30.6765 31.7588 30.4882 31.931 30.427L38.9662 27.9274L39.8139 24.3187C39.8554 24.1416 40.0329 24.0313 40.2114 24.0718C40.3891 24.1126 40.4995 24.2899 40.458 24.467L39.5692 28.251C39.5432 28.3607 39.464 28.4491 39.3573 28.487Z" fill="#01C3B0"/>
<path d="M35.4526 28.844C35.3747 28.8716 35.2874 28.8704 35.2062 28.8346C33.4925 28.0691 33.3352 26.2014 33.3298 26.1221C33.3164 25.941 33.4531 25.7824 33.635 25.7684C33.817 25.7544 33.9747 25.8895 33.9889 26.0705C33.9938 26.136 34.1299 27.6305 35.4787 28.2331C35.6447 28.3077 35.7191 28.5022 35.6439 28.6686C35.605 28.754 35.5345 28.8149 35.4526 28.844Z" fill="#01C3B0"/>
<path d="M27.1167 20.2015C27.1167 20.2015 2.64675 28.3901 2.31693 29.3019C1.98738 30.2144 5.57843 40.934 6.54257 41.6025C7.50621 42.2721 11.9706 40.3244 12.9529 39.6139C13.9354 38.9042 16.539 33.354 17.6197 32.103C18.7004 30.852 22.6721 30.3804 23.3921 29.5465C24.1128 28.7124 24.7744 24.6468 25.5938 24.5006C26.413 24.3536 30.1055 26.3658 29.898 28.0295C29.6906 29.6933 26.8048 32.8141 27.2189 34.1846C27.633 35.555 29.5652 37.1081 30.5285 36.5493C31.4919 35.9905 32.9032 29.1299 33.6155 27.8648C34.176 26.871 39.0064 25.3111 41.0484 24.6641C41.4613 24.0381 41.7855 23.8513 41.7855 23.8513L41.811 20.4727L27.1167 20.2015ZM21.6765 27.988C20.7215 28.9778 17.6829 29.6235 16.7043 30.5492C15.7257 31.475 13.3427 37.2358 12.3001 38.1842C11.2568 39.1329 8.16194 40.2326 7.50115 39.6003C6.84115 38.9678 3.63398 31.8306 4.85641 30.9291C7.50349 28.9766 22.3009 24.2255 22.7641 24.7114C23.2269 25.1966 22.6322 26.9979 21.6765 27.988Z" fill="#25353A"/>
<path d="M25.8863 20.6212L27.0058 23.3126L31.3125 26.3892L40.9853 22.9525L41.0485 24.6641L47.335 19.667L48.7357 16.4049L71.466 8.32878L70.1666 4.67175L25.8863 20.6212Z" fill="#757E74"/>
<path d="M33.0546 19.1037C33.4686 18.9566 33.653 18.4118 33.4665 17.8869C33.28 17.3619 32.7932 17.0556 32.3792 17.2027C31.9652 17.3498 31.7808 17.8946 31.9674 18.4195C32.1539 18.9445 32.6407 19.2508 33.0546 19.1037Z" fill="#25353A"/>
<path d="M30.8784 19.8769C31.2923 19.7298 31.4767 19.185 31.2902 18.6601C31.1037 18.1351 30.6169 17.8288 30.2029 17.9759C29.789 18.123 29.6046 18.6678 29.7911 19.1927C29.9776 19.7177 30.4644 20.024 30.8784 19.8769Z" fill="#25353A"/>
<path d="M28.1944 22.9261L31.3163 25.0686L37.0876 23.018L35.0702 17.3398L27.1708 20.1464C27.1708 20.1464 28.1603 22.83 28.1944 22.9261Z" fill="#83E0BE"/>
<path d="M33.967 19.96L30.0657 21.3462C29.8935 21.4074 29.7047 21.3182 29.6438 21.1468C29.5829 20.9755 29.6731 20.7871 29.8453 20.726L33.7467 19.3398C33.9189 19.2786 34.1076 19.3678 34.1685 19.5392C34.2294 19.7105 34.1392 19.8989 33.967 19.96Z" fill="#01C3B0"/>
<path d="M34.146 21.4864L31.6636 22.3685C31.4914 22.4297 31.3026 22.3404 31.2417 22.1691C31.1808 21.9978 31.271 21.8094 31.4432 21.7482L33.9257 20.8662C34.0979 20.805 34.2867 20.8943 34.3475 21.0656C34.4084 21.2369 34.3182 21.4253 34.146 21.4864Z" fill="#01C3B0"/>
<path d="M34.2209 22.6159L31.5452 23.5666C31.373 23.6278 31.1842 23.5386 31.1233 23.3672C31.0625 23.1959 31.1526 23.0075 31.3248 22.9464L34.0005 21.9957C34.1727 21.9345 34.3615 22.0237 34.4224 22.1951C34.4833 22.3664 34.3931 22.5547 34.2209 22.6159Z" fill="#01C3B0"/>
<path d="M42.9174 21.8504C44.1994 21.3949 44.8712 19.9916 44.418 18.7161C43.9648 17.4405 42.5582 16.7757 41.2762 17.2312C39.9943 17.6867 39.3224 19.09 39.7756 20.3655C40.2288 21.6411 41.6355 22.3059 42.9174 21.8504Z" fill="#525D5E"/>
<path d="M42.3567 19.761C39.9779 20.6062 39.0001 20.7712 38.3317 20.4385C37.7081 20.1283 37.496 19.4475 37.1757 18.4174C37.0699 18.0778 36.9498 17.6927 36.7988 17.2678C36.6134 16.746 36.411 16.2801 36.216 15.8299C35.7009 14.642 35.2939 13.7039 35.6925 12.793C36.0544 11.9668 37.0534 11.301 38.932 10.6335C40.5208 10.069 41.5051 9.84851 42.1252 9.91898C42.8172 9.99704 43.0549 10.4216 43.264 10.7953C43.4396 11.1092 43.6214 11.4332 44.1063 11.6914C45.6734 12.5255 47.3953 10.9873 47.4125 10.9716C47.5478 10.8484 47.7566 10.8581 47.8798 10.9924C48.003 11.1268 47.9926 11.3348 47.8574 11.4579C47.773 11.5342 45.7673 13.3234 43.7935 12.2731C43.1379 11.9246 42.8766 11.4585 42.6864 11.1184C42.3604 10.5366 42.1634 10.1848 39.1519 11.2548C37.4829 11.8478 36.576 12.4197 36.2985 13.0562C36.0141 13.7056 36.3532 14.4871 36.8226 15.5689C37.0128 16.0078 37.2291 16.5055 37.4222 17.0489C37.5776 17.4862 37.6992 17.8778 37.8071 18.2237C38.0772 19.0925 38.256 19.6673 38.6287 19.8518C39.1541 20.1131 40.3606 19.7743 42.1364 19.1434C42.3086 19.0822 42.4974 19.1714 42.5583 19.3428C42.6191 19.5141 42.529 19.7025 42.3568 19.7636L42.3567 19.761Z" fill="#01C3B0"/>
<path d="M41.7233 18.5908C41.6158 18.629 41.4977 18.5732 41.4596 18.4662L41.209 17.7607C41.171 17.6537 41.2274 17.5358 41.3349 17.4976C41.4424 17.4594 41.5605 17.5153 41.5986 17.6222L41.8492 18.3278C41.8872 18.4347 41.8308 18.5526 41.7233 18.5908Z" fill="#01C3B0"/>
<path d="M44.0128 19.0058L43.1744 19.3037C43.0669 19.3419 42.9488 19.2861 42.9108 19.1791C42.8728 19.0721 42.9292 18.9543 43.0367 18.9161L43.8751 18.6182C43.9826 18.58 44.1008 18.6358 44.1388 18.7428C44.1768 18.8498 44.1204 18.9676 44.0128 19.0058Z" fill="#01C3B0"/>
<path d="M50.6656 19.3838C50.2355 19.5367 49.763 19.3134 49.6109 18.8854L46.6957 10.6805C46.5437 10.2526 46.7693 9.78122 47.1994 9.6284C47.6295 9.47558 48.102 9.69888 48.2541 10.1268L51.1693 18.3317C51.3213 18.7597 51.0957 19.231 50.6656 19.3838Z" fill="#80DEBC"/>
<path d="M52.1222 18.9021C51.6921 19.0549 51.2196 18.8316 51.0676 18.4036L48.1524 10.1988C48.0003 9.77082 48.226 9.29947 48.6561 9.14665C49.0862 8.99383 49.5587 9.21713 49.7107 9.64509L52.6259 17.85C52.778 18.2779 52.5523 18.7493 52.1222 18.9021Z" fill="#80DEBC"/>
<path d="M53.584 18.3827C53.1539 18.5355 52.6814 18.3122 52.5293 17.8843L49.6141 9.67942C49.4621 9.25146 49.6878 8.7801 50.1179 8.62728C50.548 8.47447 51.0205 8.69777 51.1725 9.12573L54.0877 17.3306C54.2398 17.7586 54.0141 18.2299 53.584 18.3827Z" fill="#80DEBC"/>
<path d="M55.0407 17.901C54.6105 18.0538 54.1381 17.8305 53.986 17.4025L51.0711 9.19843C50.919 8.77047 51.1447 8.29912 51.5748 8.1463C52.0049 7.99348 52.4774 8.21678 52.6294 8.64474L55.5446 16.8496C55.6967 17.2776 55.471 17.7489 55.0409 17.9017L55.0407 17.901Z" fill="#80DEBC"/>
<path d="M56.4295 17.3717C55.9994 17.5245 55.527 17.3012 55.3749 16.8733L52.4597 8.66838C52.3076 8.24043 52.5333 7.76907 52.9634 7.61625C53.3935 7.46343 53.866 7.68674 54.0181 8.1147L56.9333 16.3196C57.0853 16.7475 56.8596 17.2189 56.4295 17.3717Z" fill="#80DEBC"/>
<path d="M57.8913 16.8523C57.4612 17.0051 56.9887 16.7818 56.8367 16.3539L53.9215 8.14902C53.7694 7.72106 53.9951 7.24971 54.4252 7.09689C54.8553 6.94407 55.3278 7.16737 55.4798 7.59533L58.395 15.8002C58.5471 16.2282 58.3214 16.6995 57.8913 16.8523Z" fill="#80DEBC"/>
<path d="M59.348 16.3706C58.9179 16.5234 58.4454 16.3001 58.2933 15.8721L55.3784 7.66803C55.2263 7.24007 55.452 6.76872 55.8821 6.6159C56.3122 6.46308 56.7847 6.68639 56.9368 7.11435L59.852 15.3192C60.004 15.7472 59.7783 16.2185 59.3482 16.3713L59.348 16.3706Z" fill="#80DEBC"/>
<path d="M51.1001 18.3074C51.0572 18.3226 51.0098 18.3002 50.9946 18.2576L48.1678 10.3016C48.1527 10.2589 48.1754 10.2116 48.2182 10.1963C48.2611 10.1811 48.3085 10.2035 48.3237 10.2462L51.1504 18.2022C51.1656 18.2448 51.1429 18.2922 51.1001 18.3074Z" fill="#01C3B0"/>
<path d="M52.5509 17.7919C52.5081 17.8071 52.4606 17.7847 52.4454 17.7421L49.6187 9.78607C49.6035 9.74343 49.6262 9.69608 49.669 9.68086C49.7119 9.66563 49.7594 9.68806 49.7745 9.7307L52.6013 17.6867C52.6164 17.7293 52.5938 17.7767 52.5509 17.7919Z" fill="#01C3B0"/>
<path d="M53.9698 17.2878C53.927 17.303 53.8795 17.2806 53.8644 17.2379L51.0376 9.28194C51.0224 9.23929 51.0451 9.19195 51.088 9.17672C51.1308 9.1615 51.1783 9.18393 51.1934 9.22657L54.0202 17.1826C54.0354 17.2252 54.0127 17.2726 53.9698 17.2878Z" fill="#01C3B0"/>
<path d="M55.4206 16.7723C55.3778 16.7875 55.3303 16.7651 55.3152 16.7224L52.4884 8.76645C52.4732 8.72381 52.4959 8.67646 52.5388 8.66123C52.5816 8.64601 52.6291 8.66844 52.6442 8.71108L55.471 16.6671C55.4862 16.7097 55.4635 16.7571 55.4206 16.7723Z" fill="#01C3B0"/>
<path d="M56.8388 16.2684C56.7959 16.2837 56.7484 16.2612 56.7333 16.2186L53.9065 8.2626C53.8914 8.21996 53.914 8.17262 53.9569 8.15739C53.9997 8.14216 54.0472 8.16459 54.0623 8.20723L56.8891 16.1632C56.9043 16.2059 56.8816 16.2532 56.8388 16.2684Z" fill="#01C3B0"/>
<path d="M58.2904 15.7527C58.2475 15.7679 58.2001 15.7455 58.1849 15.7028L55.3581 7.74684C55.343 7.7042 55.3657 7.65685 55.4085 7.64163C55.4514 7.6264 55.4988 7.64883 55.514 7.69147L58.3408 15.6475C58.3559 15.6901 58.3332 15.7375 58.2904 15.7527Z" fill="#01C3B0"/>
<path d="M71.5762 8.63889C71.404 8.70007 71.2152 8.61085 71.1543 8.43951L69.855 4.78248C69.7941 4.61114 69.8843 4.42281 70.0565 4.36163C70.2287 4.30045 70.4174 4.38967 70.4783 4.56101L71.7777 8.21804C71.8385 8.38938 71.7484 8.57771 71.5762 8.63889Z" fill="#01C3B0"/>
<path d="M51.7112 32.4433C51.6106 32.479 51.4954 32.4658 51.4037 32.398C45.7785 28.2531 44.0555 23.3888 43.9851 23.1833C43.926 23.0122 44.017 22.8262 44.1877 22.7655L44.1908 22.7644C44.3635 22.7048 44.5513 22.7961 44.6106 22.968C44.6291 23.02 46.3489 27.8531 51.7982 31.8684C51.9445 31.9762 51.9757 32.1825 51.8662 32.3288C51.8259 32.3833 51.7712 32.422 51.7112 32.4433Z" fill="#01C3B0"/>
<path d="M49.6406 34.5882C49.5564 34.6181 49.4601 34.6139 49.3749 34.5691C46.7108 33.1616 44.8276 30.6917 43.717 28.8676C42.5194 26.8998 41.9521 25.2835 41.9289 25.2157C41.8699 25.0446 41.9598 24.8581 42.1312 24.7972L42.1336 24.7964C42.3063 24.7367 42.4946 24.827 42.5539 24.9989C42.5765 25.0625 44.833 31.4233 49.6859 33.9871C49.8469 34.0722 49.908 34.2714 49.822 34.4321C49.7813 34.5077 49.7161 34.5614 49.6406 34.5882Z" fill="#01C3B0"/>
</g>
<defs>
<clipPath id="clip0_8_1616">
<rect width="73.0749" height="27.3497" fill="white" transform="translate(0 24.4653) rotate(-19.5602)"/>
</clipPath>
</defs>
</svg>
