<svg width="190" height="173" viewBox="0 0 190 173" fill="none" xmlns="http://www.w3.org/2000/svg">
<path fill-rule="evenodd" clip-rule="evenodd" d="M46.9299 140.906C55.5062 137.044 56.7114 128.281 54.6589 117.352C56.5643 117.569 59.9337 119.184 60.4019 122.111C61.4628 128.745 59.1797 141.354 53.226 144.964C51.786 143.174 50.056 142.357 46.9299 140.906Z" fill="#1C1D29"/>
<path fill-rule="evenodd" clip-rule="evenodd" d="M30.9132 135.889C39.6974 134.391 43.2224 123.155 56.8316 122.552C60.1516 122.405 62.0145 125.535 62.1602 128.255C45.8832 124.126 46.2934 140.118 34.8894 144.306C34.6263 141.314 33.2599 138.233 30.9132 135.889Z" fill="#1C1D29"/>
<path d="M45.8054 126.985C51.1325 124.262 56.5346 120.684 61.3511 116.66C65.9624 112.807 70.0349 108.545 72.9983 104.226L73.1157 104.036C77.522 96.7714 75.6817 85.7146 72.407 78.975C71.4636 77.0348 70.3814 75.4009 69.271 74.2587C67.7999 72.7469 66.1704 71.9756 64.5069 72.1962C62.7684 72.428 61.3242 73.6292 60.3963 76.0457C57.9081 82.5338 54.5755 88.4149 50.6204 93.8379C46.6343 99.3032 42.0187 104.306 36.9999 108.999C33.0703 112.673 30.5369 115.608 29.1209 118.061C27.4122 121.019 27.183 123.444 28.077 125.639L28.0799 125.647C28.1393 125.802 28.234 126.001 28.3613 126.249V126.258C29.244 127.963 30.8269 129.436 33.4423 129.951C35.6264 130.379 38.5743 130.085 42.4897 128.51C43.4983 128.106 44.6016 127.6 45.8068 126.983L45.8054 126.985ZM58.2674 113.018C53.7465 116.796 48.6528 120.167 43.6058 122.746C42.5746 123.273 41.6014 123.717 40.6833 124.086C37.7383 125.269 35.7183 125.531 34.3632 125.264C33.4395 125.082 32.9062 124.61 32.6276 124.074H32.6247L32.5314 123.856C32.206 123.057 32.4041 121.976 33.2938 120.433C34.4806 118.378 36.7283 115.803 40.2887 112.473C45.5267 107.575 50.346 102.35 54.5104 96.6394C58.7059 90.8861 62.2436 84.6412 64.8846 77.7429V77.7331C65.1038 77.1613 65.0784 76.9252 65.125 76.9182C65.1604 76.914 65.4094 77.15 65.8097 77.5617C66.5693 78.3428 67.3543 79.5511 68.08 81.0459C70.8327 86.7121 72.482 95.8484 68.9966 101.582C66.2708 105.544 62.5195 109.464 58.266 113.017L58.2674 113.018Z" fill="#1C1D29"/>
<path fill-rule="evenodd" clip-rule="evenodd" d="M44.7048 124.865C54.8272 119.69 65.1745 111.391 71.0137 102.88C78.3255 91.0083 66.4448 66.9529 62.6383 76.8942C57.5106 90.2819 48.9004 101.146 38.6436 110.736C31.1522 117.74 29.0828 121.755 30.3021 124.752C31.4266 127.513 35.1398 129.754 44.7048 124.865Z" fill="#384357"/>
<path fill-rule="evenodd" clip-rule="evenodd" d="M50.0093 121.881C57.9661 117.06 67.3586 109.119 71.0151 102.88C78.3269 91.0069 66.4462 66.9529 62.6397 76.8929C58.3225 88.1647 51.537 97.6467 43.378 106.086C51.5498 103.8 55.2855 116.365 50.0093 121.879V121.881Z" fill="#263042"/>
<path d="M125.683 117.878C120.227 116.352 114.559 114.058 109.367 111.251C104.489 108.612 100.033 105.524 96.5772 102.197C91.9913 97.2785 91.7706 87.9792 93.3337 81.8691C93.7495 80.245 94.2715 78.9075 94.85 78.0069C95.1598 77.525 95.355 77.244 95.3862 77.2426C95.4243 77.2398 95.4696 77.4745 95.7978 77.9901C99.7783 84.2364 104.497 89.6567 109.758 94.456C114.982 99.223 120.754 103.39 126.878 107.155C131.028 109.708 133.748 111.787 135.33 113.573C136.515 114.912 136.924 115.932 136.765 116.782L136.709 117.011C136.545 117.591 136.118 118.159 135.25 118.518C133.973 119.048 131.939 119.194 128.816 118.618C127.886 118.447 126.845 118.204 125.684 117.878H125.683ZM107.073 115.433C112.597 118.42 118.61 120.855 124.385 122.472C125.647 122.825 126.834 123.1 127.95 123.306C132.099 124.072 135.041 123.777 137.092 122.926C139.555 121.904 140.81 120.145 141.333 118.301C141.388 118.105 141.439 117.883 141.484 117.643C141.92 115.315 141.208 112.983 138.938 110.42C137.064 108.305 133.992 105.932 129.396 103.106C123.541 99.5068 118.016 95.5181 113.01 90.9493C108.038 86.4127 103.59 81.3099 99.8589 75.4541C98.4628 73.2624 96.8092 72.3689 95.0665 72.4855C93.3902 72.5993 91.946 73.6797 90.8073 75.4527C89.9374 76.8085 89.2018 78.6223 88.6714 80.696C86.8084 87.975 87.237 99.2356 93.0819 105.471L93.1668 105.555C96.9464 109.208 101.791 112.578 107.074 115.436L107.073 115.433Z" fill="#1C1D29"/>
<path fill-rule="evenodd" clip-rule="evenodd" d="M125.033 120.175C114.076 117.109 102.269 111.026 94.8388 103.844C85.2907 93.658 92.1016 67.734 97.8277 76.7214C105.541 88.8236 116.159 97.7646 128.137 105.131C136.884 110.51 139.719 114.035 139.125 117.213C138.578 120.141 135.388 123.073 125.035 120.176L125.033 120.175Z" fill="#384357"/>
<path fill-rule="evenodd" clip-rule="evenodd" d="M119.237 118.302C110.472 115.155 99.6736 109.233 94.8388 103.845C85.2907 93.6595 92.1016 67.7355 97.8277 76.7215C104.322 86.9116 112.874 94.8593 122.565 101.513C114.098 100.892 112.96 113.943 119.238 118.302H119.237Z" fill="#263042"/>
<path d="M102.688 90.4028C103.626 93.5162 104.426 99.2582 105.004 106.273C105.646 114.075 105.997 123.298 105.943 132.172C105.943 132.506 106.009 132.825 106.134 133.113C107.903 137.228 109.674 141.63 111.226 146.166C112.765 150.665 114.085 155.289 114.972 159.881C115.584 163.055 115.488 165.163 114.912 166.405C114.672 166.923 114.337 167.229 113.945 167.354C113.393 167.53 112.645 167.471 111.778 167.215C109.355 166.503 106.496 164.414 104.087 161.515C101.228 158.076 98.4783 154.891 95.5219 151.948C92.5231 148.962 89.3008 146.209 85.524 143.664C85.1195 143.393 84.6626 143.26 84.2085 143.254C83.9681 143.25 82.8336 142.988 81.7317 142.736C80.535 142.462 79.368 142.192 78.672 142.157C78.2703 142.137 77.887 142.216 77.5447 142.373C72.0718 144.889 67.3685 147.834 63.2084 151.131C59.0652 154.415 55.4568 158.061 52.1567 161.994C50.5497 163.911 48.94 165.085 47.5552 165.487C46.9639 165.659 46.4561 165.67 46.0685 165.515C45.7064 165.371 45.3768 165.043 45.1052 164.522C44.4743 163.309 44.224 161.336 44.538 158.537C45.0019 154.399 46.3613 149.349 47.9894 144.643C49.9401 139.008 52.2401 133.964 53.8315 131.627C54.1582 131.146 54.2855 130.588 54.2304 130.053C53.9743 122.801 54.1483 116.117 54.9334 109.247C55.6873 102.634 57.0184 95.8273 59.0808 88.1394C63.5366 85.8634 73.5755 84.7156 83.258 85.2298C91.4637 85.6653 99.221 87.2838 102.689 90.4056L102.688 90.4028ZM109.799 105.899C109.158 98.1103 108.213 91.6996 107.072 88.3474C106.96 88.0256 106.779 87.7222 106.526 87.4609C102.336 83.1393 93.0833 80.9756 83.5013 80.4671C72.4905 79.8826 60.7584 81.4702 55.8868 84.4627C55.3181 84.7606 54.8711 85.2846 54.6901 85.9477C52.4254 94.2299 50.9741 101.557 50.1579 108.723C49.3714 115.613 49.1791 122.339 49.4153 129.619C47.6556 132.454 45.357 137.551 43.4389 143.092C41.716 148.071 40.2703 153.478 39.7625 158.014C39.3382 161.803 39.7951 164.7 40.8376 166.707C41.6651 168.297 42.849 169.372 44.2819 169.941C45.688 170.5 47.2581 170.535 48.8905 170.062C51.1594 169.404 53.6037 167.708 55.8429 165.038C58.9252 161.364 62.3059 157.952 66.1987 154.866C69.9133 151.922 74.0918 149.28 78.9238 147C79.3623 147.088 80.0074 147.236 80.6623 147.386C81.6015 147.601 82.5606 147.821 83.3259 147.935C86.5948 150.186 89.4423 152.64 92.1214 155.308C94.9731 158.149 97.6254 161.22 100.385 164.54C103.397 168.162 107.132 170.822 110.427 171.79C112.196 172.31 113.902 172.373 115.415 171.891C117.086 171.358 118.43 170.226 119.276 168.401C120.252 166.298 120.508 163.213 119.692 158.984C118.761 154.158 117.381 149.323 115.777 144.634C114.24 140.145 112.495 135.782 110.739 131.688C110.779 122.733 110.428 113.573 109.797 105.898L109.799 105.899Z" fill="#1C1D29"/>
<path fill-rule="evenodd" clip-rule="evenodd" d="M104.796 89.113C106.975 95.5125 108.448 114.424 108.342 132.18C111.935 140.516 115.516 150.013 117.334 159.432C120.136 173.95 109.233 171.443 102.237 163.027C96.6168 156.266 91.4354 150.519 84.1817 145.632C83.183 145.618 79.5491 144.589 78.5504 144.537C67.9768 149.403 60.3822 155.905 53.9998 163.515C47.9512 170.726 40.8984 169.443 42.1488 158.274C43.2196 148.723 48.7292 134.857 51.837 130.289C51.2966 115.405 52.5357 102.929 57.0113 86.5729C65.0657 81.3816 96.6649 80.7255 104.794 89.113H104.796Z" fill="#384357"/>
<path fill-rule="evenodd" clip-rule="evenodd" d="M108.342 132.019V132.182C111.935 140.517 115.515 150.015 117.333 159.433C118.256 164.22 117.69 167.155 116.266 168.638C118.276 160.472 109.367 139.194 104.564 132L108.342 132.019Z" fill="#697791"/>
<path fill-rule="evenodd" clip-rule="evenodd" d="M114.73 169.605C111.464 170.691 106.219 167.818 102.237 163.028C97.5264 157.361 93.1215 152.406 87.5482 148.073L92.8938 148.514C103.654 154.985 107.452 169.39 114.73 169.605Z" fill="#263042"/>
<path fill-rule="evenodd" clip-rule="evenodd" d="M77.6917 144.94C67.5637 149.76 60.2081 156.115 54.0012 163.515C47.9526 170.726 40.8998 169.443 42.1502 158.274C42.6368 153.936 44.04 148.705 45.7162 143.861C41.5674 155.963 50.8963 161.101 57.0466 155.175C61.8037 150.591 67.6231 144.379 71.5456 143.372C73.4213 142.89 75.8529 143.872 77.6917 144.94Z" fill="#263042"/>
<path fill-rule="evenodd" clip-rule="evenodd" d="M52.25 111.872C52.97 103.923 54.468 95.875 57.0127 86.5729C63.985 82.0785 88.5992 80.9855 100.361 86.2132C101.735 87.0829 103.854 88.1914 104.796 89.113C105.315 90.5601 105.63 92.1182 106.066 94.6668C100.015 101.548 89.5456 107.686 77.8078 110.711C69.4536 112.862 64.1321 112.899 56.4102 112.377C55.3507 112.306 53.8979 112.136 52.25 111.873V111.872Z" fill="#263042"/>
<path d="M93.5006 85.9856C94.9802 86.2778 96.7257 86.6544 98.3383 87.066V87.0716C98.764 87.1812 99.1799 87.2908 99.5746 87.4032C97.0906 90.4294 94.5219 93.3447 91.8809 96.1616C88.9599 99.275 85.9314 102.294 82.8138 105.228L78.0779 101.691C80.9735 99.3536 83.7078 96.9512 86.2157 94.4616C88.9712 91.7276 91.4283 88.9107 93.5006 85.9856ZM99.3723 83.3429C97.2533 82.802 94.891 82.3159 93.1526 81.9914C92.3746 81.7961 91.5131 82.1023 91.0365 82.8132C88.9599 85.914 86.4152 88.8868 83.5182 91.7613C80.6043 94.6527 77.2971 97.478 73.7311 100.254C73.6023 100.357 73.4821 100.476 73.3774 100.614C72.7225 101.468 72.8781 102.674 73.7254 103.307L81.7345 109.287C82.4686 109.833 83.5267 109.785 84.2311 109.128C87.8453 105.777 91.3392 102.324 94.6859 98.7551C98.0723 95.1444 101.293 91.4396 104.319 87.6308C104.415 87.51 104.497 87.3751 104.565 87.2304C105.016 86.2568 104.596 85.1188 103.624 84.6903C102.561 84.2224 101.023 83.7588 99.3751 83.3387L99.3709 83.3443L99.3723 83.3429Z" fill="#1C1D29"/>
<path fill-rule="evenodd" clip-rule="evenodd" d="M92.6419 83.8585C95.6068 84.4064 100.562 85.4658 102.807 86.452C96.7681 94.057 90.0788 101.101 82.9199 107.74C80.2506 105.746 77.5814 103.754 74.9122 101.76C82.1136 96.1504 88.3474 90.2735 92.6419 83.8585Z" fill="#961818"/>
<path d="M106.383 125.861C106.4 126.91 106.4 127.969 106.397 129.023C97.3806 125.095 88.7916 120.905 80.6835 115.997C72.0704 110.781 63.9652 104.74 56.4158 97.315L56.809 95.4324C57.1259 93.8926 57.4512 92.3134 57.8473 90.7273C65.3288 98.7453 73.1723 105.44 81.2819 111.171C89.4253 116.925 97.8234 121.699 106.383 125.859V125.861ZM110.271 130.059C110.278 128.257 110.285 126.431 110.237 124.678C110.251 123.949 109.845 123.242 109.14 122.903C100.387 118.707 91.813 113.882 83.5324 108.031C75.2644 102.187 67.2695 95.3046 59.6579 86.9789L59.6551 86.9817C59.3029 86.5967 58.795 86.3551 58.2292 86.3523L56.5728 86.3452C55.7057 86.3157 54.8952 86.8693 54.6434 87.7347C53.9446 90.1133 53.4679 92.4286 53.0082 94.6639C52.8102 95.6263 52.6149 96.5746 52.424 97.433C52.2486 98.0751 52.4141 98.7916 52.9205 99.2974C60.9211 107.303 69.5172 113.754 78.6621 119.291C87.7661 124.803 97.3821 129.394 107.483 133.704C107.739 133.827 108.025 133.896 108.329 133.896C109.404 133.896 110.276 133.03 110.276 131.962C110.276 129.591 110.273 130.289 110.274 130.06L110.271 130.059Z" fill="#1C1D29"/>
<path fill-rule="evenodd" clip-rule="evenodd" d="M108.295 124.64C108.366 127.042 108.326 129.549 108.326 131.96C88.1933 123.374 70.0576 113.707 54.294 97.9347C54.9815 94.8733 55.5247 91.597 56.5035 88.2687C57.075 88.2715 57.6465 88.2729 58.2179 88.2757C73.6307 105.134 90.6121 116.16 108.294 124.638L108.295 124.64Z" fill="#D62727"/>
<path fill-rule="evenodd" clip-rule="evenodd" d="M71.1608 112.088C65.2764 107.944 59.6479 103.292 54.2954 97.9361L54.2996 97.9165C54.5146 96.9583 54.7155 95.9777 54.9206 94.983C55.4029 92.8081 55.9475 90.5771 56.5572 88.2701L58.2207 88.2772C65.8521 96.6253 73.8696 103.542 82.1645 109.427C80.7372 109.901 79.2816 110.329 77.8077 110.71C75.3804 111.335 73.2105 111.782 71.1622 112.088H71.1608Z" fill="#961818"/>
<path fill-rule="evenodd" clip-rule="evenodd" d="M109.369 125.934C109.39 128.397 109.411 131.399 109.432 133.862C90.7536 138.415 71.3448 137.6 51.2033 131.41C51.0632 129.446 51.0505 125.282 50.9104 123.318C68.6161 127.891 89.1424 130.327 109.367 125.934H109.369Z" fill="#1C1D29"/>
<path fill-rule="evenodd" clip-rule="evenodd" d="M8.30045 48.8333C17.6576 53.0004 25.5747 45.5907 32.8525 33.0685C34.069 35.0396 35.2303 39.7223 33.2217 43C28.6683 50.4308 16.8768 60.5843 9.63577 58.5949C10.0219 55.5237 9.41651 53.1339 8.29903 48.8333H8.30045Z" fill="#1C1D29"/>
<path fill-rule="evenodd" clip-rule="evenodd" d="M3.85602 25.2697C11.4676 31.9277 23.0625 24.2567 33.4763 36.2409C36.0154 39.1645 34.8626 43.9287 32.7846 46.7091C24.2253 27.6581 11.6812 43.5901 2.28882e-05 37.1274C2.21094 33.9747 3.68769 29.7163 3.85744 25.2697H3.85602Z" fill="#1C1D29"/>
<path d="M33.5343 12.9188C29.5736 17.6844 26.5282 33.5406 26.5381 49.0231C26.5451 61.5987 28.5283 74.1378 33.6008 80.6666C33.6503 80.7312 33.7041 80.7916 33.7592 80.8492C41.5095 88.9262 60.5491 93.5443 79.6198 94.2734C98.6834 95.0012 118.019 91.8499 126.369 84.3897C126.446 84.3194 126.519 84.245 126.585 84.1691C132.123 78.0295 135.057 65.7082 136.034 53.2C137.252 37.629 135.392 21.4342 131.742 16.5324C131.69 16.4621 131.634 16.3947 131.574 16.3315L131.491 16.2387C122.221 6.34653 102.781 0.833534 83.2509 0.08751C63.7289 -0.658514 43.9269 3.35541 33.9205 12.5114L33.8286 12.5957C33.7182 12.6969 33.6206 12.805 33.5343 12.9188ZM31.2626 49.0231C31.2527 34.496 33.8116 19.966 37.1357 15.962C46.193 7.68544 64.6738 4.07895 83.084 4.78142C101.486 5.48389 119.627 10.4897 128.017 19.4322C131.02 23.6667 132.443 38.3553 131.31 52.8487C130.404 64.4226 127.841 75.6622 123.11 80.9715C115.652 87.5269 97.7131 90.2637 79.7881 89.5795C61.8632 88.8953 44.1886 84.7971 37.2659 77.6895C32.9586 72.0332 31.2725 60.6307 31.2654 49.0231H31.2626Z" fill="#1C1D29"/>
<path fill-rule="evenodd" clip-rule="evenodd" d="M35.4326 14.3251C28.7872 21.9455 24.8618 65.5746 35.4737 79.2306C50.0928 94.4644 109.031 96.7151 124.784 82.6418C136.422 69.8358 135.88 26.0367 129.844 17.9316C112.26 -1.0253 54.4298 -3.23388 35.4326 14.3251Z" fill="#384357"/>
<path fill-rule="evenodd" clip-rule="evenodd" d="M79.7033 91.9271C98.2336 92.6352 116.907 89.6792 124.783 82.6418C136.42 69.8358 135.88 26.0367 129.843 17.9302C120.856 8.24172 101.358 2.93103 81.9043 2.39575C95.7271 4.43292 109.172 8.87254 119.917 15.2425C125.169 18.3559 126.588 19.0921 128.086 25.2373C132.11 41.7369 130.205 59.4322 125.441 73.3411C123.332 79.499 122.728 81.2285 116.92 83.881C106.345 88.7126 93.8047 90.7456 79.7033 91.9271Z" fill="#697791"/>
<path fill-rule="evenodd" clip-rule="evenodd" d="M35.4326 14.3251C28.7871 21.9455 24.8618 65.5746 35.4736 79.2306C38.338 82.2161 42.9112 84.7015 48.5227 86.6642C32.1084 64.7316 31.95 22.3726 61.8645 3.61804C50.8991 5.35596 41.3071 8.8936 35.4312 14.3251H35.4326Z" fill="#263042"/>
<path d="M27.6994 36.408C29.5665 49.6482 38.7709 59.2988 51.1254 65.2192C59.8319 69.3919 70.1226 71.7044 80.4755 72.0992C90.8243 72.494 101.258 70.9738 110.26 67.4783C123.086 62.4992 133.038 53.5287 135.881 40.3868C136.101 39.3598 135.44 38.3497 134.406 38.1319C134.122 38.0729 133.84 38.0785 133.574 38.1403C114.233 42.6235 97.8262 44.6087 81.5548 43.9863C65.2948 43.3653 49.0927 40.1339 30.1522 34.1882C29.1422 33.8721 28.0657 34.4285 27.7474 35.4316C27.6428 35.759 27.6329 36.0947 27.7022 36.408H27.6994ZM52.7889 61.7953C42.4642 56.8485 34.5641 49.1256 32.0406 38.7599C49.9924 44.2027 65.6414 47.1797 81.419 47.7824C97.184 48.3852 113.013 46.6093 131.336 42.5504C128.019 52.6941 119.545 59.7905 108.868 63.9365C100.354 67.2423 90.4537 68.6796 80.6128 68.3044C70.7789 67.9293 61.0243 65.7404 52.7903 61.7953H52.7889Z" fill="#1C1D29"/>
<path fill-rule="evenodd" clip-rule="evenodd" d="M29.5736 36.0048C35.4736 79.2306 124.783 82.6418 134.009 39.9934C95.0113 49.0342 67.7575 47.9931 29.5736 36.0048Z" fill="#263042"/>
<path fill-rule="evenodd" clip-rule="evenodd" d="M43.6355 58.5345C63.091 72.9534 97.7343 74.2755 118.246 61.3837C121.989 57.308 124.796 49.6904 122.452 42.4367C87.3672 47.4945 77.3594 48.6845 41.9508 40.7255C39.9493 46.2047 42.3455 55.7738 43.6355 58.5345Z" fill="#FACF89"/>
<path fill-rule="evenodd" clip-rule="evenodd" d="M123.291 47.1404C123.221 45.5823 122.957 44.0017 122.452 42.438C87.3672 47.4958 77.3594 48.6858 41.9509 40.7268C41.4388 42.1275 41.2153 43.7952 41.187 45.5486C69.7365 55.1654 97.1685 55.7836 123.292 47.1418L123.291 47.1404Z" fill="#F5986A"/>
<g clip-path="url(#clip0_8_2048)">
<path d="M143.153 99.1182C143.153 99.1182 142.057 102.338 143.76 104.071C143.76 104.071 139.848 105.031 138.062 100.964L138.592 99.0066L143.153 99.1182Z" fill="#00E5FF"/>
<path d="M152.806 97.9345L142.769 99.1652C137.498 99.8116 137.129 102.445 137.129 102.445L136.668 119.792C136.657 120.415 136.19 120.931 135.574 121.007L126.379 119.608C125.62 119.701 124.957 119.095 124.98 118.334L125.49 102.096C125.545 100.378 126.817 98.9635 128.515 98.6932C130.311 98.4109 132.229 97.6746 132.002 95.8223C131.584 92.4195 123.78 93.5504 123.78 93.5504L127.999 89.927L150.28 87.195L153.905 82.9528L152.307 75.5536L173.818 77.7945L180.097 80.669C180.628 80.9145 180.996 81.4161 181.067 81.9954L181.843 88.3195C181.92 88.9519 181.632 89.5753 181.1 89.9304L175.263 93.8019L152.807 97.9386L152.806 97.9345Z" fill="#0277BD"/>
<g style="mix-blend-mode:multiply" opacity="0.3">
<path d="M181.1 89.9305C181.633 89.5795 181.921 88.9561 181.843 88.3196L181.689 87.0629L128.844 93.5425C130.438 93.8068 131.836 94.4387 132.006 95.8259C132.233 97.6783 130.315 98.4105 128.519 98.6969C126.825 98.9667 125.549 100.382 125.499 102.099L124.989 118.338C124.966 119.102 125.628 119.704 126.387 119.611L135.583 121.01C136.199 120.935 136.666 120.418 136.676 119.795L137.138 102.448C137.138 102.448 137.506 99.8147 142.778 99.1684L152.815 97.9377L175.272 93.801L181.108 89.9295L181.1 89.9305Z" fill="#0277BD"/>
</g>
<path d="M152.486 76.3765L124.477 77.7566L117.495 85.0858C117.495 85.0858 117.917 91.4656 123.78 93.5505L127.391 90.4447C127.789 90.1061 128.272 89.8895 128.79 89.826L150.28 87.191L153.905 82.9489L152.486 76.3724L152.486 76.3765Z" fill="#FFD740"/>
<path d="M123.175 79.1255L121.562 77.7247L117.123 82.0874L118.819 83.6933L123.175 79.1255Z" fill="#00E5FF"/>
<path d="M136.76 107C149.408 105.45 147.066 98.6385 147.066 98.6385L149.277 98.3673C149.277 98.3673 152.135 107.828 136.766 109.344L136.76 107Z" fill="#0277BD"/>
<g style="mix-blend-mode:multiply" opacity="0.5">
<path d="M136.76 107C149.408 105.45 147.066 98.6385 147.066 98.6385L149.277 98.3673C149.277 98.3673 152.135 107.828 136.766 109.344L136.76 107Z" fill="#0277BD"/>
</g>
<path d="M181.177 82.889L185.122 82.4052C185.645 82.3412 186.117 82.714 186.18 83.2321L186.549 86.2351C186.613 86.7573 186.24 87.2296 185.722 87.2931L181.776 87.7769L181.176 82.8849L181.177 82.889Z" fill="#FFD740"/>
<path d="M137.474 89.8877L132.769 90.4645L133.009 92.4188L137.713 91.842L137.474 89.8877Z" fill="#B388FF"/>
<path d="M143.382 89.1633L138.677 89.7401L138.917 91.6945L143.621 91.1176L143.382 89.1633Z" fill="#B388FF"/>
<path d="M149.289 88.4389L144.585 89.0157L144.825 90.9701L149.529 90.3933L149.289 88.4389Z" fill="#B388FF"/>
<path d="M171.755 84.8767L157.466 86.6287L157.623 87.9057L171.911 86.1538L171.755 84.8767Z" fill="#B388FF"/>
<path d="M172.152 88.1163L157.864 89.8683L158.02 91.1453L172.308 89.3934L172.152 88.1163Z" fill="#B388FF"/>
<path d="M150.892 94.0072L176.763 90.8349C177.228 90.7779 177.65 91.1073 177.707 91.5724L178.348 96.803C178.55 98.4513 177.376 99.9496 175.731 100.151L154.144 102.798C152.495 103 150.997 101.826 150.796 100.181L150.154 94.9507C150.097 94.4856 150.427 94.0642 150.892 94.0072Z" fill="#00E5FF"/>
<path d="M161.203 80.5258C161.339 81.6315 160.555 82.6346 159.449 82.7702C158.343 82.9057 157.34 82.1218 157.205 81.0161C157.069 79.9104 157.853 78.9073 158.959 78.7717C160.064 78.6361 161.068 79.4201 161.203 80.5258Z" fill="#FFD740"/>
<path d="M165.208 80.424C165.296 81.1421 164.788 81.7925 164.069 81.8805C163.351 81.9686 162.701 81.4602 162.613 80.7422C162.525 80.0241 163.033 79.3737 163.751 79.2856C164.469 79.1976 165.12 79.7059 165.208 80.424Z" fill="#FFD740"/>
<path d="M168.471 80.5872C168.533 81.0931 168.171 81.5557 167.665 81.6178C167.159 81.6798 166.697 81.3182 166.634 80.8123C166.572 80.3064 166.934 79.8438 167.44 79.7817C167.946 79.7197 168.408 80.0812 168.471 80.5872Z" fill="#FFD740"/>
<g style="mix-blend-mode:multiply" opacity="0.7">
<path d="M152.486 76.3765L150.436 76.4788L151.881 82.6214L150.726 85.9353L127.258 88.8129C119.689 89.7368 118.819 83.6934 118.819 83.6934L117.495 85.0858C117.495 85.0858 117.917 91.4656 123.78 93.5505L127.999 89.9271L150.28 87.1951L153.905 82.9529L152.486 76.3765Z" fill="#E6C23A"/>
</g>
<g style="mix-blend-mode:screen">
<path d="M127.79 79.7773L147.337 78.6644" stroke="#E6C23A" stroke-width="0.822122" stroke-miterlimit="10" stroke-linecap="round"/>
</g>
<g style="mix-blend-mode:multiply" opacity="0.7">
<g style="mix-blend-mode:multiply">
<path d="M157.147 102.434C157.164 102.299 157.168 102.162 157.151 102.024L156.473 96.4951C156.355 95.5322 155.48 94.8485 154.517 94.9666C153.554 95.0846 152.87 95.9595 152.988 96.9224L153.666 102.451C153.675 102.524 153.697 102.596 153.713 102.665C154.095 102.738 154.491 102.76 154.895 102.71L157.147 102.434Z" fill="#00C3D9"/>
</g>
<g style="mix-blend-mode:multiply">
<path d="M172.885 92.7103C171.922 92.8284 171.238 93.7032 171.356 94.6661L172.034 100.195C172.051 100.333 172.088 100.465 172.137 100.592L174.989 100.242C175.172 100.22 175.354 100.181 175.526 100.131C175.536 100.014 175.534 99.8898 175.519 99.7674L174.841 94.2389C174.723 93.276 173.848 92.5923 172.885 92.7103Z" fill="#00C3D9"/>
</g>
<g style="mix-blend-mode:multiply">
<path d="M163.27 101.269L162.592 95.7407C162.474 94.7778 161.6 94.0941 160.637 94.2122C159.674 94.3302 158.99 95.2051 159.108 96.168L159.786 101.696C159.803 101.835 159.84 101.967 159.888 102.094L163.271 101.679C163.287 101.545 163.291 101.407 163.274 101.269L163.27 101.269Z" fill="#00C3D9"/>
</g>
<g style="mix-blend-mode:multiply">
<path d="M169.394 100.518L168.717 94.9898C168.599 94.0269 167.724 93.3431 166.761 93.4612C165.798 93.5793 165.114 94.4541 165.232 95.417L165.91 100.945C165.927 101.084 165.964 101.216 166.013 101.343L169.395 100.928C169.412 100.794 169.416 100.656 169.399 100.518L169.394 100.518Z" fill="#00C3D9"/>
</g>
</g>
<path d="M155.373 94.8575L154.676 94.943C153.905 95.0375 153.357 95.7389 153.451 96.5095L154.215 102.736C154.309 103.506 155.011 104.054 155.781 103.96L156.479 103.874C157.25 103.78 157.798 103.079 157.703 102.308L156.94 96.0818C156.845 95.3111 156.144 94.763 155.373 94.8575Z" fill="#52EDFF"/>
<path d="M161.498 94.1066L160.8 94.1922C160.029 94.2867 159.481 94.988 159.576 95.7587L160.339 101.985C160.433 102.755 161.135 103.304 161.905 103.209L162.603 103.124C163.374 103.029 163.922 102.328 163.827 101.557L163.064 95.3309C162.97 94.5603 162.268 94.0121 161.498 94.1066Z" fill="#52EDFF"/>
<path d="M167.618 93.3562L166.92 93.4417C166.149 93.5362 165.601 94.2375 165.696 95.0082L166.459 101.234C166.554 102.005 167.255 102.553 168.026 102.459L168.723 102.373C169.494 102.279 170.042 101.577 169.947 100.807L169.184 94.5804C169.09 93.8098 168.388 93.2617 167.618 93.3562Z" fill="#52EDFF"/>
<path d="M173.742 92.6053L173.044 92.6908C172.273 92.7853 171.725 93.4867 171.82 94.2573L172.583 100.483C172.678 101.254 173.379 101.802 174.15 101.708L174.847 101.622C175.618 101.528 176.166 100.826 176.072 100.056L175.308 93.8296C175.214 93.0589 174.512 92.5108 173.742 92.6053Z" fill="#52EDFF"/>
<g style="mix-blend-mode:multiply" opacity="0.7">
<path d="M186.553 86.2346L186.387 84.88L181.495 85.4799L181.776 87.7769L185.722 87.2932C186.244 87.2291 186.612 86.7533 186.549 86.2351L186.553 86.2346Z" fill="#E6C23A"/>
</g>
</g>
<path fill-rule="evenodd" clip-rule="evenodd" d="M100.911 48.9682C96.7582 48.8095 93.229 52.8684 93.0295 58.0329C92.8301 63.1975 96.034 67.5135 100.187 67.6722C104.34 67.831 107.869 63.7721 108.069 58.6076C108.268 53.443 105.064 49.127 100.911 48.9682Z" fill="#1C1D29"/>
<path fill-rule="evenodd" clip-rule="evenodd" d="M98.723 51.8638C97.1373 51.8034 95.7893 53.353 95.7129 55.3255C95.6365 57.2981 96.8601 58.9461 98.4472 59.0065C100.034 59.0669 101.381 57.5173 101.457 55.5447C101.534 53.5722 100.31 51.9242 98.723 51.8638Z" fill="white"/>
<path d="M29.7589 24.2314C29.3063 26.062 28.8961 28.0627 28.541 30.1841C28.1817 32.3267 27.8734 34.6153 27.6244 37.0023C27.5282 37.9338 28.1266 38.7768 29.0036 39.024C47.9187 45.0737 66.1718 48.2826 83.7446 48.5791C101.368 48.8769 118.295 46.244 134.505 40.6158C135.334 40.3292 135.838 39.5326 135.784 38.7037C135.72 37.3381 135.641 36.0835 135.548 34.9455C135.446 33.7049 135.324 32.5065 135.184 31.3587C135.06 30.3148 134.108 29.5688 133.057 29.6924L132.888 29.7191C116.917 31.7085 100.712 32.7833 84.0246 31.9572C67.3388 31.1311 50.1565 28.3957 32.2216 22.759C31.2117 22.4429 30.1352 22.9993 29.8169 24.0024C29.7929 24.0797 29.7731 24.1569 29.7589 24.2342V24.2314ZM32.3178 30.8093C32.5413 29.4789 32.7846 28.2046 33.0449 26.9991C50.5794 32.3211 67.4378 34.9385 83.845 35.7505C100.138 36.557 115.977 35.5763 131.587 33.6993C131.638 34.2065 131.684 34.7207 131.727 35.2419C131.789 36.0076 131.844 36.7593 131.89 37.4927C116.516 42.6558 100.483 45.0667 83.8054 44.7843C67.0644 44.5019 49.6572 41.5052 31.6021 35.8601C31.8072 34.1222 32.0462 32.4306 32.3192 30.8107L32.3178 30.8093Z" fill="#1C1D29"/>
<path fill-rule="evenodd" clip-rule="evenodd" d="M31.6445 24.5714C30.7435 28.1849 30.0136 32.5234 29.527 37.1948C67.0517 49.2085 101.877 49.932 133.874 38.8203C133.755 36.2647 133.554 33.8286 133.279 31.5793C101.022 35.6114 67.824 35.943 31.6431 24.5728L31.6445 24.5714Z" fill="#1C1D29"/>
<path fill-rule="evenodd" clip-rule="evenodd" d="M63.1729 48.1309C67.3288 48.1562 70.6714 52.3668 70.6388 57.5355C70.6063 62.7043 67.21 66.8742 63.0541 66.8475C58.8982 66.8208 55.5557 62.6102 55.5882 57.4428C55.6207 52.274 59.017 48.1042 63.1729 48.1309Z" fill="#1C1D29"/>
<path d="M136.439 125.396C135.85 125.23 135.265 125.019 134.685 124.769C134.136 124.532 133.594 124.252 133.064 123.932C131.1 122.747 130.243 121.814 130.031 120.839C129.797 119.76 130.201 118.266 130.778 116.254C131.079 115.201 131.537 113.753 132.225 112.594C132.726 111.751 133.331 111.081 134.021 111.04C135.33 110.964 136.58 111.029 137.775 111.227C138.988 111.428 140.15 111.761 141.264 112.217C141.559 112.338 141.755 112.9 141.854 113.723C142.016 115.086 141.786 116.885 141.216 118.784C140.588 120.876 139.572 123.013 138.354 124.357C137.674 125.11 136.993 125.553 136.439 125.396ZM133.178 128.214C133.883 128.519 134.624 128.782 135.399 129.001C137.609 129.627 139.585 128.666 141.217 126.862C142.808 125.105 144.1 122.437 144.869 119.871C145.579 117.504 145.858 115.173 145.635 113.309C145.373 111.124 144.427 109.458 142.699 108.751C141.306 108.181 139.872 107.768 138.394 107.523C136.898 107.276 135.359 107.193 133.779 107.286C131.544 107.417 130.004 108.875 128.925 110.694C128.034 112.198 127.475 113.95 127.113 115.213C126.383 117.758 125.878 119.675 126.298 121.609C126.741 123.649 128.101 125.339 131.085 127.141C131.751 127.542 132.451 127.902 133.18 128.217L133.178 128.214Z" fill="#1C1D29"/>
<path fill-rule="evenodd" clip-rule="evenodd" d="M135.918 127.2C134.559 126.815 133.276 126.261 132.073 125.536C127.127 122.551 127.639 120.293 128.945 115.734C129.608 113.42 130.974 109.336 133.9 109.164C136.79 108.996 139.474 109.459 141.981 110.486C144.077 111.345 144.279 115.206 143.042 119.329C141.767 123.576 138.979 128.066 135.918 127.2Z" fill="#384357"/>
<path fill-rule="evenodd" clip-rule="evenodd" d="M135.918 127.2C134.559 126.815 133.276 126.261 132.072 125.536C127.125 122.551 127.637 120.293 128.944 115.734C129.068 115.303 129.216 114.809 129.394 114.291C129.414 116.42 129.399 118.49 130.403 120.056C131.23 121.347 136.163 123.357 138.196 122.253C140.604 120.946 142.456 114.781 142.641 110.908C144.104 112.255 144.134 115.689 143.042 119.328C141.767 123.575 138.979 128.065 135.918 127.198V127.2Z" fill="#263042"/>
<path fill-rule="evenodd" clip-rule="evenodd" d="M113.311 10.9027C109.741 8.98915 105.429 8.68568 103.68 10.2241C101.931 11.7625 103.407 14.5611 106.977 16.4747C110.547 18.3882 114.859 18.6917 116.608 17.1533C118.358 15.6149 116.881 12.8162 113.311 10.9027Z" fill="#697791"/>
<path fill-rule="evenodd" clip-rule="evenodd" d="M103.015 17.8994C100.909 16.7712 98.3652 16.5914 97.334 17.4989C96.3028 18.4065 97.1727 20.0573 99.279 21.1869C101.385 22.3151 103.929 22.4949 104.96 21.5873C105.991 20.6797 105.121 19.0289 103.015 17.8994Z" fill="#697791"/>
<defs>
<clipPath id="clip0_8_2048">
<rect width="68.4088" height="44.67" fill="white" transform="translate(116.662 78.3256) rotate(-6.99039)"/>
</clipPath>
</defs>
</svg>
