<svg width="226" height="173" viewBox="0 0 226 173" fill="none" xmlns="http://www.w3.org/2000/svg">
<path fill-rule="evenodd" clip-rule="evenodd" d="M186.069 144.906C177.492 141.044 176.287 132.281 178.34 121.352C176.434 121.569 173.065 123.184 172.597 126.111C171.536 132.745 173.819 145.354 179.773 148.964C181.213 147.174 182.943 146.357 186.069 144.906Z" fill="#1C1D29"/>
<path fill-rule="evenodd" clip-rule="evenodd" d="M202.085 135.889C193.301 134.391 189.776 123.155 176.167 122.552C172.847 122.405 170.984 125.535 170.838 128.255C187.115 124.126 186.705 140.118 198.109 144.306C198.372 141.314 199.739 138.233 202.085 135.889Z" fill="#1C1D29"/>
<path d="M187.193 126.985C181.866 124.262 176.464 120.684 171.648 116.66C167.036 112.807 162.964 108.545 160 104.226L159.883 104.036C155.477 96.7714 157.317 85.7146 160.592 78.975C161.535 77.0348 162.617 75.4009 163.728 74.2587C165.199 72.7469 166.828 71.9756 168.492 72.1962C170.23 72.428 171.674 73.6292 172.602 76.0457C175.09 82.5338 178.423 88.4149 182.378 93.8379C186.364 99.3032 190.98 104.306 195.999 108.999C199.928 112.673 202.462 115.608 203.878 118.061C205.586 121.019 205.816 123.444 204.922 125.639L204.919 125.647C204.859 125.802 204.765 126.001 204.637 126.249V126.258C203.755 127.963 202.172 129.436 199.556 129.951C197.372 130.379 194.424 130.085 190.509 128.51C189.5 128.106 188.397 127.6 187.192 126.983L187.193 126.985ZM174.731 113.018C179.252 116.796 184.346 120.167 189.393 122.746C190.424 123.273 191.397 123.717 192.315 124.086C195.26 125.269 197.28 125.531 198.635 125.264C199.559 125.082 200.092 124.61 200.371 124.074H200.374L200.467 123.856C200.793 123.057 200.594 121.976 199.705 120.433C198.518 118.378 196.27 115.803 192.71 112.473C187.472 107.575 182.653 102.35 178.488 96.6394C174.293 90.8861 170.755 84.6412 168.114 77.7429V77.7331C167.895 77.1613 167.92 76.9252 167.874 76.9182C167.838 76.914 167.589 77.15 167.189 77.5617C166.429 78.3428 165.644 79.5511 164.919 81.0459C162.166 86.7121 160.517 95.8484 164.002 101.582C166.728 105.544 170.479 109.464 174.733 113.017L174.731 113.018Z" fill="#1C1D29"/>
<path fill-rule="evenodd" clip-rule="evenodd" d="M188.294 124.865C178.171 119.69 167.824 111.391 161.985 102.88C154.673 91.0083 166.554 66.9529 170.36 76.8942C175.488 90.2819 184.098 101.146 194.355 110.736C201.846 117.74 203.916 121.755 202.696 124.752C201.572 127.513 197.859 129.754 188.294 124.865Z" fill="#384357"/>
<path fill-rule="evenodd" clip-rule="evenodd" d="M182.989 121.881C175.032 117.06 165.64 109.119 161.983 102.88C154.672 91.0069 166.552 66.9529 170.359 76.8929C174.676 88.1647 181.462 97.6467 189.621 106.086C181.449 103.8 177.713 116.365 182.989 121.879V121.881Z" fill="#263042"/>
<path d="M107.316 117.878C112.772 116.352 118.44 114.058 123.631 111.251C128.51 108.612 132.966 105.524 136.421 102.197C141.007 97.2785 141.228 87.9792 139.665 81.8691C139.249 80.245 138.727 78.9075 138.149 78.0069C137.839 77.525 137.644 77.244 137.612 77.2426C137.574 77.2398 137.529 77.4745 137.201 77.9901C133.22 84.2364 128.501 89.6567 123.241 94.456C118.017 99.223 112.244 103.39 106.121 107.155C101.971 109.708 99.2504 111.787 97.6689 113.573C96.4835 114.912 96.0747 115.932 96.2332 116.782L96.2898 117.011C96.4538 117.591 96.881 118.159 97.7481 118.518C99.0255 119.048 101.06 119.194 104.183 118.618C105.112 118.447 106.153 118.204 107.315 117.878H107.316ZM125.926 115.433C120.402 118.42 114.389 120.855 108.613 122.472C107.351 122.825 106.165 123.1 105.049 123.306C100.9 124.072 97.9575 123.777 95.9064 122.926C93.4437 121.904 92.189 120.145 91.6656 118.301C91.6105 118.105 91.5596 117.883 91.5143 117.643C91.0786 115.315 91.7901 112.983 94.0605 110.42C95.9347 108.305 99.0071 105.932 103.603 103.106C109.458 99.5068 114.983 95.5181 119.989 90.9493C124.961 86.4127 129.408 81.3099 133.14 75.4541C134.536 73.2624 136.189 72.3689 137.932 72.4855C139.608 72.5993 141.053 73.6797 142.191 75.4527C143.061 76.8085 143.797 78.6223 144.327 80.696C146.19 87.975 145.762 99.2356 139.917 105.471L139.832 105.555C136.052 109.208 131.207 112.578 125.924 115.436L125.926 115.433Z" fill="#1C1D29"/>
<path fill-rule="evenodd" clip-rule="evenodd" d="M107.965 120.175C118.922 117.109 130.729 111.026 138.16 103.844C147.708 93.658 140.897 67.734 135.171 76.7214C127.458 88.8236 116.84 97.7646 104.862 105.131C96.1143 110.51 93.2796 114.035 93.8737 117.213C94.4211 120.141 97.6109 123.073 107.964 120.176L107.965 120.175Z" fill="#384357"/>
<path fill-rule="evenodd" clip-rule="evenodd" d="M113.762 118.302C122.526 115.155 133.325 109.233 138.16 103.845C147.708 93.6595 140.897 67.7355 135.171 76.7215C128.677 86.9116 120.125 94.8593 110.434 101.513C118.901 100.892 120.038 113.943 113.761 118.302H113.762Z" fill="#263042"/>
<path d="M130.311 90.4028C129.373 93.5162 128.572 99.2582 127.995 106.273C127.353 114.075 127.002 123.298 127.056 132.172C127.056 132.506 126.989 132.825 126.865 133.113C125.095 137.228 123.324 141.63 121.773 146.166C120.234 150.665 118.914 155.289 118.027 159.881C117.414 163.055 117.511 165.163 118.086 166.405C118.327 166.923 118.662 167.229 119.054 167.354C119.605 167.53 120.354 167.471 121.221 167.215C123.644 166.503 126.503 164.414 128.912 161.515C131.77 158.076 134.52 154.891 137.477 151.948C140.475 148.962 143.698 146.209 147.475 143.664C147.879 143.393 148.336 143.26 148.79 143.254C149.031 143.25 150.165 142.988 151.267 142.736C152.464 142.462 153.631 142.192 154.327 142.157C154.728 142.137 155.112 142.216 155.454 142.373C160.927 144.889 165.63 147.834 169.79 151.131C173.933 154.415 177.542 158.061 180.842 161.994C182.449 163.911 184.059 165.085 185.443 165.487C186.035 165.659 186.543 165.67 186.93 165.515C187.292 165.371 187.622 165.043 187.893 164.522C188.524 163.309 188.775 161.336 188.461 158.537C187.997 154.399 186.637 149.349 185.009 144.643C183.059 139.008 180.759 133.964 179.167 131.627C178.84 131.146 178.713 130.588 178.768 130.053C179.024 122.801 178.85 116.117 178.065 109.247C177.311 102.634 175.98 95.8273 173.918 88.1394C169.462 85.8634 159.423 84.7156 149.741 85.2298C141.535 85.6653 133.778 87.2838 130.309 90.4056L130.311 90.4028ZM123.2 105.899C123.841 98.1103 124.785 91.6996 125.927 88.3474C126.039 88.0256 126.22 87.7222 126.473 87.4609C130.663 83.1393 139.915 80.9756 149.497 80.4671C160.508 79.8826 172.24 81.4702 177.112 84.4627C177.68 84.7606 178.127 85.2846 178.309 85.9477C180.573 94.2299 182.025 101.557 182.841 108.723C183.627 115.613 183.82 122.339 183.583 129.619C185.343 132.454 187.642 137.551 189.56 143.092C191.283 148.071 192.728 153.478 193.236 158.014C193.66 161.803 193.204 164.7 192.161 166.707C191.334 168.297 190.15 169.372 188.717 169.941C187.311 170.5 185.741 170.535 184.108 170.062C181.839 169.404 179.395 167.708 177.156 165.038C174.073 161.364 170.693 157.952 166.8 154.866C163.085 151.922 158.907 149.28 154.075 147C153.636 147.088 152.991 147.236 152.336 147.386C151.397 147.601 150.438 147.821 149.673 147.935C146.404 150.186 143.556 152.64 140.877 155.308C138.026 158.149 135.373 161.22 132.614 164.54C129.602 168.162 125.866 170.822 122.572 171.79C120.802 172.31 119.096 172.373 117.584 171.891C115.912 171.358 114.568 170.226 113.722 168.401C112.746 166.298 112.49 163.213 113.307 158.984C114.237 154.158 115.618 149.323 117.222 144.634C118.758 140.145 120.504 135.782 122.259 131.688C122.22 122.733 122.57 113.573 123.201 105.898L123.2 105.899Z" fill="#1C1D29"/>
<path fill-rule="evenodd" clip-rule="evenodd" d="M128.203 89.113C126.023 95.5125 124.551 114.424 124.657 132.18C121.064 140.516 117.482 150.013 115.665 159.432C112.862 173.95 123.766 171.443 130.762 163.027C136.382 156.266 141.563 150.519 148.817 145.632C149.816 145.618 153.45 144.589 154.448 144.537C165.022 149.403 172.616 155.905 178.999 163.515C185.047 170.726 192.1 169.443 190.85 158.274C189.779 148.723 184.269 134.857 181.162 130.289C181.702 115.405 180.463 102.929 175.987 86.5729C167.933 81.3816 136.334 80.7255 128.204 89.113H128.203Z" fill="#384357"/>
<path fill-rule="evenodd" clip-rule="evenodd" d="M124.657 132.019V132.182C121.064 140.517 117.484 150.015 115.666 159.433C114.742 164.22 115.308 167.155 116.733 168.638C114.723 160.472 123.631 139.194 128.435 132L124.657 132.019Z" fill="#697791"/>
<path fill-rule="evenodd" clip-rule="evenodd" d="M118.269 169.605C121.535 170.691 126.78 167.818 130.762 163.028C135.472 157.361 139.877 152.406 145.45 148.073L140.105 148.514C129.345 154.985 125.547 169.39 118.269 169.605Z" fill="#263042"/>
<path fill-rule="evenodd" clip-rule="evenodd" d="M155.307 144.94C165.435 149.76 172.79 156.115 178.997 163.515C185.046 170.726 192.099 169.443 190.848 158.274C190.362 153.936 188.959 148.705 187.282 143.861C191.431 155.963 182.102 161.101 175.952 155.175C171.195 150.591 165.375 144.379 161.453 143.372C159.577 142.89 157.146 143.872 155.307 144.94Z" fill="#263042"/>
<path fill-rule="evenodd" clip-rule="evenodd" d="M180.749 111.872C180.029 103.923 178.531 95.875 175.986 86.5729C169.014 82.0785 144.399 80.9855 132.638 86.2132C131.264 87.0829 129.145 88.1914 128.203 89.113C127.684 90.5601 127.368 92.1182 126.933 94.6668C132.984 101.548 143.453 107.686 155.191 110.711C163.545 112.862 168.867 112.899 176.588 112.377C177.648 112.306 179.101 112.136 180.749 111.873V111.872Z" fill="#263042"/>
<path d="M139.498 85.9856C138.018 86.2778 136.273 86.6544 134.66 87.066V87.0716C134.235 87.1812 133.819 87.2908 133.424 87.4032C135.908 90.4294 138.477 93.3447 141.118 96.1616C144.039 99.275 147.067 102.294 150.185 105.228L154.921 101.691C152.025 99.3536 149.291 96.9512 146.783 94.4616C144.027 91.7276 141.57 88.9107 139.498 85.9856ZM133.626 83.3429C135.745 82.802 138.108 82.3159 139.846 81.9914C140.624 81.7961 141.485 82.1023 141.962 82.8132C144.039 85.914 146.583 88.8868 149.48 91.7613C152.394 94.6527 155.701 97.478 159.268 100.254C159.396 100.357 159.516 100.476 159.621 100.614C160.276 101.468 160.12 102.674 159.273 103.307L151.264 109.287C150.53 109.833 149.472 109.785 148.767 109.128C145.153 105.777 141.659 102.324 138.313 98.7551C134.926 95.1444 131.705 91.4396 128.68 87.6308C128.584 87.51 128.501 87.3751 128.434 87.2304C127.982 86.2568 128.402 85.1188 129.374 84.6903C130.438 84.2224 131.976 83.7588 133.623 83.3387L133.628 83.3443L133.626 83.3429Z" fill="#1C1D29"/>
<path fill-rule="evenodd" clip-rule="evenodd" d="M140.357 83.8585C137.392 84.4064 132.437 85.4658 130.192 86.452C136.23 94.057 142.92 101.101 150.079 107.74C152.748 105.746 155.417 103.754 158.086 101.76C150.885 96.1504 144.651 90.2735 140.357 83.8585Z" fill="#961818"/>
<path d="M126.616 125.861C126.599 126.91 126.599 127.969 126.602 129.023C135.618 125.095 144.207 120.905 152.315 115.997C160.928 110.781 169.033 104.74 176.583 97.315L176.19 95.4324C175.873 93.8926 175.547 92.3134 175.151 90.7273C167.67 98.7453 159.826 105.44 151.717 111.171C143.573 116.925 135.175 121.699 126.616 125.859V125.861ZM122.727 130.059C122.72 128.257 122.713 126.431 122.761 124.678C122.747 123.949 123.153 123.242 123.859 122.903C132.612 118.707 141.186 113.882 149.466 108.031C157.734 102.187 165.729 95.3046 173.341 86.9789L173.344 86.9817C173.696 86.5967 174.204 86.3551 174.769 86.3523L176.426 86.3452C177.293 86.3157 178.103 86.8693 178.355 87.7347C179.054 90.1133 179.531 92.4286 179.99 94.6639C180.188 95.6263 180.384 96.5746 180.575 97.433C180.75 98.0751 180.585 98.7916 180.078 99.2974C172.078 107.303 163.481 113.754 154.336 119.291C145.233 124.803 135.617 129.394 125.515 133.704C125.259 133.827 124.974 133.896 124.67 133.896C123.594 133.896 122.723 133.03 122.723 131.962C122.723 129.591 122.726 130.289 122.725 130.06L122.727 130.059Z" fill="#1C1D29"/>
<path fill-rule="evenodd" clip-rule="evenodd" d="M124.703 124.64C124.633 127.042 124.672 129.549 124.672 131.96C144.805 123.374 162.941 113.707 178.705 97.9347C178.017 94.8733 177.474 91.597 176.495 88.2687C175.924 88.2715 175.352 88.2729 174.781 88.2757C159.368 105.134 142.386 116.16 124.705 124.638L124.703 124.64Z" fill="#D62727"/>
<path fill-rule="evenodd" clip-rule="evenodd" d="M161.838 112.088C167.722 107.944 173.351 103.292 178.703 97.9361L178.699 97.9165C178.484 96.9583 178.283 95.9777 178.078 94.983C177.596 92.8081 177.051 90.5771 176.441 88.2701L174.778 88.2772C167.146 96.6253 159.129 103.542 150.834 109.427C152.261 109.901 153.717 110.329 155.191 110.71C157.618 111.335 159.788 111.782 161.836 112.088H161.838Z" fill="#961818"/>
<path fill-rule="evenodd" clip-rule="evenodd" d="M123.63 125.934C123.609 128.397 123.587 131.399 123.566 133.862C142.245 138.415 161.654 137.6 181.795 131.41C181.935 129.446 181.948 125.282 182.088 123.318C164.382 127.891 143.856 130.327 123.631 125.934H123.63Z" fill="#1C1D29"/>
<path fill-rule="evenodd" clip-rule="evenodd" d="M224.698 48.8333C215.341 53.0004 207.424 45.5907 200.146 33.0685C198.93 35.0396 197.768 39.7223 199.777 43C204.33 50.4308 216.122 60.5843 223.363 58.5949C222.977 55.5237 223.582 53.1339 224.7 48.8333H224.698Z" fill="#1C1D29"/>
<path fill-rule="evenodd" clip-rule="evenodd" d="M229.143 25.2697C221.531 31.9277 209.936 24.2567 199.522 36.2409C196.983 39.1645 198.136 43.9287 200.214 46.7091C208.773 27.6581 221.317 43.5901 232.999 37.1274C230.788 33.9747 229.311 29.7163 229.141 25.2697H229.143Z" fill="#1C1D29"/>
<path d="M199.464 12.9188C203.425 17.6844 206.47 33.5406 206.461 49.0231C206.453 61.5987 204.47 74.1378 199.398 80.6666C199.348 80.7312 199.295 80.7916 199.239 80.8492C191.489 88.9262 172.45 93.5443 153.379 94.2734C134.315 95.0012 114.98 91.8499 106.63 84.3897C106.552 84.3194 106.48 84.245 106.414 84.1691C100.876 78.0295 97.9419 65.7082 96.9645 53.2C95.7466 37.629 97.6067 21.4342 101.256 16.5324C101.309 16.4621 101.365 16.3947 101.425 16.3315L101.508 16.2387C110.777 6.34653 130.217 0.833534 149.748 0.08751C169.27 -0.658514 189.072 3.35541 199.078 12.5114L199.17 12.5957C199.28 12.6969 199.378 12.805 199.464 12.9188ZM201.736 49.0231C201.746 34.496 199.187 19.966 195.863 15.962C186.806 7.68544 168.325 4.07895 149.915 4.78142C131.513 5.48389 113.372 10.4897 104.982 19.4322C101.979 23.6667 100.556 38.3553 101.689 52.8487C102.594 64.4226 105.157 75.6622 109.889 80.9715C117.346 87.5269 135.286 90.2637 153.211 89.5795C171.135 88.8953 188.81 84.7971 195.733 77.6895C200.04 72.0332 201.726 60.6307 201.733 49.0231H201.736Z" fill="#1C1D29"/>
<path fill-rule="evenodd" clip-rule="evenodd" d="M197.566 14.3251C204.211 21.9455 208.137 65.5746 197.525 79.2306C182.906 94.4644 123.968 96.7151 108.214 82.6418C96.5769 69.8358 97.1187 26.0367 103.154 17.9316C120.739 -1.0253 178.569 -3.23388 197.566 14.3251Z" fill="#384357"/>
<path fill-rule="evenodd" clip-rule="evenodd" d="M153.295 91.9271C134.765 92.6352 116.092 89.6792 108.216 82.6418C96.5783 69.8358 97.1186 26.0367 103.156 17.9302C112.142 8.24172 131.64 2.93103 151.094 2.39575C137.272 4.43292 123.826 8.87254 113.082 15.2425C107.829 18.3559 106.411 19.0921 104.913 25.2373C100.888 41.7369 102.794 59.4322 107.558 73.3411C109.667 79.499 110.271 81.2285 116.079 83.881C126.654 88.7126 139.194 90.7456 153.295 91.9271Z" fill="#697791"/>
<path fill-rule="evenodd" clip-rule="evenodd" d="M197.566 14.3251C204.211 21.9455 208.137 65.5746 197.525 79.2306C194.661 82.2161 190.087 84.7015 184.476 86.6642C200.89 64.7316 201.049 22.3726 171.134 3.61804C182.099 5.35596 191.691 8.8936 197.567 14.3251H197.566Z" fill="#263042"/>
<path d="M205.299 36.408C203.432 49.6482 194.228 59.2988 181.873 65.2192C173.167 69.3919 162.876 71.7044 152.523 72.0992C142.174 72.494 131.741 70.9738 122.739 67.4783C109.913 62.4992 99.9605 53.5287 97.1173 40.3868C96.898 39.3598 97.5586 38.3497 98.5926 38.1319C98.8769 38.0729 99.1584 38.0785 99.4244 38.1403C118.765 42.6235 135.172 44.6087 151.444 43.9863C167.704 43.3653 183.906 40.1339 202.846 34.1882C203.856 33.8721 204.933 34.4285 205.251 35.4316C205.356 35.759 205.366 36.0947 205.296 36.408H205.299ZM180.21 61.7953C190.534 56.8485 198.435 49.1256 200.958 38.7599C183.006 44.2027 167.357 47.1797 151.58 47.7824C135.815 48.3852 119.986 46.6093 101.662 42.5504C104.979 52.6941 113.454 59.7905 124.131 63.9365C132.645 67.2423 142.545 68.6796 152.386 68.3044C162.22 67.9293 171.974 65.7404 180.208 61.7953H180.21Z" fill="#1C1D29"/>
<path fill-rule="evenodd" clip-rule="evenodd" d="M203.425 36.0048C197.525 79.2306 108.216 82.6418 98.9901 39.9934C137.987 49.0342 165.241 47.9931 203.425 36.0048Z" fill="#263042"/>
<path fill-rule="evenodd" clip-rule="evenodd" d="M189.363 58.5345C169.908 72.9534 135.264 74.2755 114.752 61.3837C111.009 57.308 108.203 49.6904 110.547 42.4367C145.631 47.4945 155.639 48.6845 191.048 40.7255C193.049 46.2047 190.653 55.7738 189.363 58.5345Z" fill="#FACF89"/>
<path fill-rule="evenodd" clip-rule="evenodd" d="M109.708 47.1404C109.777 45.5823 110.042 44.0017 110.547 42.438C145.631 47.4958 155.639 48.6858 191.048 40.7268C191.56 42.1275 191.783 43.7952 191.812 45.5486C163.262 55.1654 135.83 55.7836 109.707 47.1418L109.708 47.1404Z" fill="#F5986A"/>
<path fill-rule="evenodd" clip-rule="evenodd" d="M132.087 48.9682C136.24 48.8095 139.77 52.8684 139.969 58.0329C140.169 63.1975 136.965 67.5135 132.812 67.6722C128.658 67.831 125.129 63.7721 124.93 58.6076C124.73 53.443 127.934 49.127 132.087 48.9682Z" fill="#1C1D29"/>
<path fill-rule="evenodd" clip-rule="evenodd" d="M134.276 51.8638C135.861 51.8034 137.209 53.353 137.286 55.3255C137.362 57.2981 136.139 58.9461 134.551 59.0065C132.964 59.0669 131.618 57.5173 131.541 55.5447C131.465 53.5722 132.688 51.9242 134.276 51.8638Z" fill="white"/>
<g clip-path="url(#clip0_8_2002)">
<path d="M83.9291 92.2902C83.9291 92.2902 81.7551 100.812 72.8649 108.795C63.9763 116.779 63.6837 117.641 61.0131 116.89C58.3409 116.138 51.5193 106.875 52.0495 104.61C52.5796 102.346 58.3036 102.182 65.0339 94.4014C71.7643 86.6205 73.4016 83.2489 73.4016 83.2489L83.9299 92.2886L83.9291 92.2902Z" fill="#4D5A5A"/>
<path d="M83.1903 102.914L98.0198 110.859C98.3742 111.049 98.8143 110.918 99.0032 110.565C99.1921 110.212 99.0581 109.773 98.7037 109.583L84.2253 101.826L83.5719 93.6964C83.54 93.2974 83.1901 92.999 82.7885 93.0282C82.3885 93.0583 82.0899 93.4076 82.1218 93.8066L82.8072 102.331C82.8275 102.578 82.9706 102.796 83.1903 102.914Z" fill="#01C3B0"/>
<path d="M91.5657 104.978C91.726 105.064 91.9164 105.09 92.1048 105.039C96.085 103.939 97.043 99.9286 97.0809 99.7579C97.1699 99.3682 96.9249 98.9781 96.5337 98.8877C96.1426 98.7972 95.7549 99.0392 95.6642 99.428C95.6321 99.5689 94.8431 102.775 91.7105 103.641C91.3248 103.748 91.0988 104.147 91.2074 104.534C91.264 104.732 91.3973 104.888 91.5657 104.978Z" fill="#01C3B0"/>
<path d="M112.548 88.9286C112.548 88.9286 163.074 114.811 163.491 116.903C163.906 118.997 152.56 141.129 150.242 142.266C147.925 143.404 138.857 137.695 136.954 135.826C135.051 133.958 131.219 121.027 129.281 117.949C127.343 114.871 118.859 112.535 117.568 110.484C116.275 108.432 116.177 99.3706 114.443 98.7823C112.71 98.1924 104.014 101.351 103.917 105.039C103.819 108.726 109.067 116.466 107.714 119.311C106.361 122.155 101.646 124.896 99.7351 123.363C97.824 121.83 97.017 106.441 95.8847 103.454C94.9933 101.108 85.001 96.1215 80.7725 94.0407C80.0808 92.5427 79.4374 92.0295 79.4374 92.0295L80.4962 84.6721L112.548 88.9286ZM121.814 107.66C123.564 110.128 129.961 112.535 131.784 114.871C133.608 117.208 136.891 130.524 138.846 132.931C140.802 135.339 147.171 138.752 148.817 137.594C150.462 136.436 159.792 121.969 157.43 119.605C152.316 114.485 121.696 99.27 120.529 100.174C119.362 101.077 120.061 105.191 121.814 107.66Z" fill="#25353A"/>
<path d="M115.086 90.2474L111.763 95.7326L101.381 101.004L81.4745 90.3384L80.7725 94.0407L68.7464 81.0975L66.7755 73.5399L19.9969 48.4759L24.0294 40.9498L115.086 90.2474Z" fill="#757E74"/>
<path d="M99.9945 84.5823C99.1425 84.1258 98.9211 82.88 99.4999 81.7996C100.079 80.7193 101.239 80.2136 102.091 80.6701C102.943 81.1265 103.164 82.3724 102.585 83.4527C102.006 84.533 100.846 85.0388 99.9945 84.5823Z" fill="#25353A"/>
<path d="M104.473 86.9819C103.621 86.5255 103.4 85.2796 103.979 84.1993C104.557 83.119 105.717 82.6132 106.569 83.0697C107.421 83.5262 107.643 84.772 107.064 85.8524C106.485 86.9327 105.325 87.4384 104.473 86.9819Z" fill="#25353A"/>
<path d="M109.305 94.4997L101.808 98.1303L89.9308 91.7663L96.192 80.0807L112.449 88.791C112.449 88.791 109.411 94.3019 109.305 94.4997Z" fill="#83E0BE"/>
<path d="M97.7274 86.144L105.756 90.4459C106.111 90.6358 106.551 90.504 106.74 90.1514C106.929 89.7988 106.795 89.3594 106.44 89.1695L98.4113 84.8676C98.0569 84.6777 97.6169 84.8095 97.4279 85.1621C97.239 85.5148 97.373 85.9541 97.7274 86.144Z" fill="#01C3B0"/>
<path d="M96.8345 89.4052L101.943 92.1426C102.298 92.3325 102.738 92.2007 102.927 91.8481C103.116 91.4954 102.982 91.056 102.627 90.8662L97.5184 88.1288C97.164 87.9389 96.724 88.0707 96.5351 88.4234C96.3461 88.776 96.4801 89.2154 96.8345 89.4052Z" fill="#01C3B0"/>
<path d="M96.2991 91.8373L101.806 94.7877C102.16 94.9776 102.6 94.8458 102.789 94.4932C102.978 94.1406 102.844 93.7012 102.49 93.5113L96.9831 90.5609C96.6287 90.371 96.1886 90.5028 95.9997 90.8554C95.8108 91.208 95.9448 91.6474 96.2991 91.8373Z" fill="#01C3B0"/>
<path d="M77.6352 87.3039C74.997 85.8903 73.9985 82.6163 75.405 79.9913C76.8115 77.3662 80.0904 76.3841 82.7287 77.7977C85.3669 79.2113 86.3654 82.4852 84.9589 85.1103C83.5524 87.7353 80.2735 88.7174 77.6352 87.3039Z" fill="#525D5E"/>
<path d="M79.5439 82.9441C84.4395 85.5672 86.512 86.2484 88.0757 85.7452C89.5343 85.2762 90.2202 83.8652 91.2567 81.7304C91.5987 81.0265 91.9872 80.2284 92.4556 79.354C93.031 78.2803 93.6249 77.3335 94.1977 76.4185C95.7099 74.0046 96.9046 72.0983 96.3381 69.9856C95.8233 68.0689 93.8698 66.2912 90.0037 64.2197C86.7341 62.4678 84.6656 61.6635 83.2938 61.6123C81.7627 61.5538 81.1056 62.399 80.5275 63.1427C80.042 63.7677 79.5397 64.4124 78.3999 64.8141C74.7161 66.1117 71.478 62.1978 71.4457 62.1579C71.1921 61.8455 70.7348 61.7976 70.4225 62.0492C70.1102 62.3008 70.0641 62.7566 70.3177 63.0691C70.476 63.2628 74.2486 67.8162 78.8884 66.1827C80.4295 65.6408 81.1514 64.7133 81.6773 64.036C82.5784 62.878 83.1228 62.1779 89.3205 65.4986C92.7553 67.3389 94.5393 68.8821 94.9331 70.3581C95.3375 71.8645 94.3422 73.4525 92.9642 75.6508C92.4058 76.5427 91.7711 77.5539 91.1718 78.6723C90.6897 79.5722 90.296 80.384 89.9471 81.1006C89.073 82.9015 88.4946 84.0927 87.6231 84.3712C86.3939 84.7661 83.8813 83.6314 80.2269 81.6733C79.8725 81.4834 79.4324 81.6153 79.2435 81.9679C79.0546 82.3205 79.1886 82.7599 79.543 82.9498L79.5439 82.9441Z" fill="#01C3B0"/>
<path d="M81.3077 80.6075C81.529 80.7261 81.8044 80.6436 81.9223 80.4234L82.7003 78.9715C82.8183 78.7513 82.7344 78.4764 82.5131 78.3578C82.2918 78.2393 82.0165 78.3217 81.8985 78.5419L81.1206 79.9939C81.0026 80.214 81.0864 80.489 81.3077 80.6075Z" fill="#01C3B0"/>
<path d="M76.1906 80.7552L77.9161 81.6797C78.1373 81.7982 78.4127 81.7157 78.5307 81.4956C78.6486 81.2754 78.5648 81.0005 78.3435 80.8819L76.6181 79.9574C76.3968 79.8388 76.1215 79.9213 76.0035 80.1415C75.8855 80.3617 75.9694 80.6366 76.1906 80.7552Z" fill="#01C3B0"/>
<path d="M61.5952 79.3832C62.4803 79.8574 63.5817 79.5275 64.0536 78.6468L73.1009 61.7613C73.5728 60.8806 73.2374 59.7809 72.3522 59.3066C71.4671 58.8323 70.3657 59.1622 69.8938 60.0429L60.8465 76.9284C60.3746 77.8092 60.71 78.9089 61.5952 79.3832Z" fill="#80DEBC"/>
<path d="M58.5856 77.8548C59.4707 78.3291 60.5721 77.9992 61.044 77.1185L70.0913 60.233C70.5632 59.3522 70.2278 58.2525 69.3426 57.7783C68.4575 57.304 67.3561 57.6339 66.8842 58.5146L57.8369 75.4001C57.365 76.2809 57.7004 77.3806 58.5856 77.8548Z" fill="#80DEBC"/>
<path d="M55.5773 76.243C56.4624 76.7173 57.5638 76.3874 58.0357 75.5067L67.083 58.6212C67.5549 57.7404 67.2195 56.6407 66.3343 56.1665C65.4492 55.6922 64.3478 56.0221 63.8759 56.9028L54.8286 73.7883C54.3567 74.669 54.6921 75.7688 55.5773 76.243Z" fill="#80DEBC"/>
<path d="M52.5677 74.7146C53.4529 75.1888 54.5542 74.8589 55.0261 73.9782L64.0725 57.0943C64.5444 56.2136 64.209 55.1139 63.3239 54.6396C62.4387 54.1653 61.3374 54.4952 60.8655 55.376L51.8182 72.2615C51.3463 73.1422 51.6817 74.2419 52.5669 74.7162L52.5677 74.7146Z" fill="#80DEBC"/>
<path d="M49.7211 73.1052C50.6063 73.5795 51.7077 73.2496 52.1796 72.3688L61.2268 55.4833C61.6987 54.6026 61.3633 53.5029 60.4782 53.0286C59.593 52.5544 58.4917 52.8843 58.0198 53.765L48.9725 70.6505C48.5006 71.5312 48.836 72.6309 49.7211 73.1052Z" fill="#80DEBC"/>
<path d="M46.7129 71.4934C47.5981 71.9677 48.6994 71.6378 49.1713 70.757L58.2186 53.8715C58.6905 52.9908 58.3551 51.8911 57.4699 51.4168C56.5848 50.9426 55.4834 51.2724 55.0115 52.1532L45.9643 69.0387C45.4924 69.9194 45.8278 71.0191 46.7129 71.4934Z" fill="#80DEBC"/>
<path d="M43.7033 69.9651C44.5885 70.4393 45.6899 70.1094 46.1618 69.2287L55.2082 52.3448C55.6801 51.4641 55.3447 50.3644 54.4595 49.8901C53.5744 49.4158 52.473 49.7457 52.0011 50.6264L42.9538 67.5119C42.4819 68.3927 42.8173 69.4924 43.7025 69.9667L43.7033 69.9651Z" fill="#80DEBC"/>
<path d="M61.005 76.8984C61.0932 76.9456 61.2038 76.9125 61.2509 76.8248L70.0237 60.4514C70.0707 60.3637 70.037 60.2532 69.9488 60.206C69.8606 60.1587 69.75 60.1918 69.703 60.2796L60.9302 76.6529C60.8831 76.7407 60.9168 76.8511 61.005 76.8984Z" fill="#01C3B0"/>
<path d="M58.0192 75.2985C58.1074 75.3458 58.2181 75.3127 58.2651 75.2249L67.0379 58.8516C67.0849 58.7638 67.0513 58.6534 66.9631 58.6061C66.8749 58.5588 66.7642 58.592 66.7172 58.6797L57.9444 75.0531C57.8974 75.1408 57.931 75.2513 58.0192 75.2985Z" fill="#01C3B0"/>
<path d="M55.0992 73.734C55.1874 73.7812 55.298 73.7481 55.345 73.6603L64.1179 57.287C64.1649 57.1992 64.1312 57.0888 64.043 57.0415C63.9548 56.9943 63.8442 57.0274 63.7972 57.1152L55.0243 73.4885C54.9773 73.5762 55.011 73.6867 55.0992 73.734Z" fill="#01C3B0"/>
<path d="M52.1134 72.1342C52.2016 72.1815 52.3122 72.1484 52.3593 72.0606L61.1321 55.6873C61.1791 55.5995 61.1454 55.489 61.0572 55.4418C60.969 55.3945 60.8584 55.4277 60.8114 55.5154L52.0385 71.8888C51.9915 71.9765 52.0252 72.087 52.1134 72.1342Z" fill="#01C3B0"/>
<path d="M49.195 70.5705C49.2832 70.6178 49.3938 70.5846 49.4408 70.4969L58.2136 54.1235C58.2607 54.0358 58.227 53.9253 58.1388 53.8781C58.0506 53.8308 57.94 53.864 57.8929 53.9517L49.1201 70.325C49.0731 70.4128 49.1068 70.5233 49.195 70.5705Z" fill="#01C3B0"/>
<path d="M46.2075 68.9699C46.2957 69.0172 46.4064 68.984 46.4534 68.8963L55.2262 52.523C55.2732 52.4352 55.2395 52.3247 55.1514 52.2775C55.0632 52.2302 54.9525 52.2634 54.9055 52.3511L46.1327 68.7245C46.0856 68.8122 46.1193 68.9227 46.2075 68.9699Z" fill="#01C3B0"/>
<path d="M19.6549 49.114C20.0093 49.3039 20.4494 49.1721 20.6383 48.8195L24.6708 41.2934C24.8597 40.9408 24.7257 40.5014 24.3713 40.3115C24.017 40.1216 23.5769 40.2534 23.388 40.606L19.3555 48.1321C19.1665 48.4848 19.3005 48.9241 19.6549 49.114Z" fill="#01C3B0"/>
<path d="M55.0135 107.445C55.2203 107.556 55.4754 107.565 55.6971 107.448C69.3001 100.287 74.6523 90.2747 74.8732 89.8509C75.0581 89.4982 74.9215 89.0636 74.5703 88.8754L74.5639 88.872C74.2078 88.6853 73.7692 88.822 73.5835 89.1764C73.5262 89.2833 68.1912 99.2288 55.0137 106.165C54.66 106.352 54.5241 106.79 54.714 107.145C54.7837 107.276 54.89 107.379 55.0135 107.445Z" fill="#01C3B0"/>
<path d="M58.8099 112.793C58.9831 112.886 59.1939 112.909 59.3941 112.839C65.6532 110.657 70.5641 105.905 73.5815 102.304C76.8355 98.4185 78.6026 95.0898 78.6754 94.9501C78.8602 94.5974 78.7261 94.162 78.3733 93.973L78.3685 93.9704C78.0124 93.7837 77.5731 93.918 77.3874 94.2723C77.3173 94.4031 70.3111 107.495 58.9096 111.471C58.5313 111.603 58.3327 112.016 58.4667 112.394C58.5303 112.572 58.6543 112.71 58.8099 112.793Z" fill="#01C3B0"/>
</g>
<path d="M203.24 24.2314C203.692 26.062 204.103 28.0627 204.458 30.1841C204.817 32.3267 205.125 34.6153 205.374 37.0023C205.47 37.9338 204.872 38.7768 203.995 39.024C185.08 45.0737 166.827 48.2826 149.254 48.5791C131.63 48.8769 114.704 46.244 98.4936 40.6158C97.6647 40.3292 97.1611 39.5326 97.2149 38.7037C97.2785 37.3381 97.3577 36.0835 97.4511 34.9455C97.5529 33.7049 97.6746 32.5065 97.8146 31.3587C97.9391 30.3148 98.8911 29.5688 99.9421 29.6924L100.11 29.7191C116.082 31.7085 132.287 32.7833 148.974 31.9572C165.66 31.1311 182.842 28.3957 200.777 22.759C201.787 22.4429 202.863 22.9993 203.182 24.0024C203.206 24.0797 203.226 24.1569 203.24 24.2342V24.2314ZM200.681 30.8093C200.457 29.4789 200.214 28.2046 199.954 26.9991C182.419 32.3211 165.561 34.9385 149.154 35.7505C132.861 36.557 117.021 35.5763 101.412 33.6993C101.361 34.2065 101.314 34.7207 101.272 35.2419C101.209 36.0076 101.154 36.7593 101.109 37.4927C116.482 42.6558 132.516 45.0667 149.193 44.7843C165.934 44.5019 183.341 41.5052 201.397 35.8601C201.191 34.1222 200.952 32.4306 200.679 30.8107L200.681 30.8093Z" fill="#1C1D29"/>
<path fill-rule="evenodd" clip-rule="evenodd" d="M201.354 24.5714C202.255 28.1849 202.985 32.5234 203.472 37.1948C165.947 49.2085 131.121 49.932 99.1245 38.8203C99.2433 36.2647 99.4441 33.8286 99.72 31.5793C131.977 35.6114 165.175 35.943 201.355 24.5728L201.354 24.5714Z" fill="#1C1D29"/>
<path fill-rule="evenodd" clip-rule="evenodd" d="M169.826 48.1309C165.67 48.1562 162.327 52.3668 162.36 57.5355C162.392 62.7043 165.789 66.8742 169.944 66.8475C174.1 66.8208 177.443 62.6102 177.41 57.4428C177.378 52.274 173.982 48.1042 169.826 48.1309Z" fill="#1C1D29"/>
<path d="M96.5599 125.396C97.1484 125.23 97.734 125.019 98.3139 124.769C98.8628 124.532 99.4045 124.252 99.935 123.932C101.898 122.747 102.756 121.814 102.968 120.839C103.201 119.76 102.798 118.266 102.221 116.254C101.92 115.201 101.461 113.753 100.774 112.594C100.273 111.751 99.6676 111.081 98.9773 111.04C97.6689 110.964 96.4185 111.029 95.2232 111.227C94.0109 111.428 92.8482 111.761 91.7349 112.217C91.4393 112.338 91.2441 112.9 91.1451 113.723C90.9824 115.086 91.213 116.885 91.783 118.784C92.4111 120.876 93.4267 123.013 94.6446 124.357C95.325 125.11 96.0054 125.553 96.5599 125.396ZM99.8204 128.214C99.116 128.519 98.3748 128.782 97.5996 129.001C95.3901 129.627 93.414 128.666 91.7816 126.862C90.1903 125.105 88.8988 122.437 88.1293 119.871C87.4192 117.504 87.1405 115.173 87.364 113.309C87.6257 111.124 88.572 109.458 90.2992 108.751C91.6925 108.181 93.1268 107.768 94.605 107.523C96.1002 107.276 97.6392 107.193 99.2192 107.286C101.454 107.417 102.995 108.875 104.074 110.694C104.965 112.198 105.524 113.95 105.886 115.213C106.616 117.758 107.121 119.675 106.701 121.609C106.258 123.649 104.897 125.339 101.914 127.141C101.248 127.542 100.547 127.902 99.819 128.217L99.8204 128.214Z" fill="#1C1D29"/>
<path fill-rule="evenodd" clip-rule="evenodd" d="M97.0804 127.2C98.4398 126.815 99.7228 126.261 100.925 125.536C105.872 122.551 105.36 120.293 104.054 115.734C103.391 113.42 102.024 109.336 99.099 109.164C96.2091 108.996 93.5243 109.459 91.0178 110.486C88.9214 111.345 88.7191 115.206 89.9569 119.329C91.2313 123.576 94.0194 128.066 97.0804 127.2Z" fill="#384357"/>
<path fill-rule="evenodd" clip-rule="evenodd" d="M97.0805 127.2C98.4399 126.815 99.7228 126.261 100.927 125.536C105.873 122.551 105.361 120.293 104.054 115.734C103.931 115.303 103.783 114.809 103.604 114.291C103.585 116.42 103.6 118.49 102.596 120.056C101.768 121.347 96.8358 123.357 94.8031 122.253C92.3941 120.946 90.5425 114.781 90.3572 110.908C88.8946 112.255 88.8649 115.689 89.9569 119.328C91.2314 123.575 94.0194 128.065 97.0805 127.198V127.2Z" fill="#263042"/>
<path fill-rule="evenodd" clip-rule="evenodd" d="M119.688 10.9027C123.258 8.98915 127.569 8.68568 129.319 10.2241C131.067 11.7625 129.592 14.5611 126.022 16.4747C122.452 18.3882 118.14 18.6917 116.39 17.1533C114.64 15.6149 116.117 12.8162 119.688 10.9027Z" fill="#697791"/>
<path fill-rule="evenodd" clip-rule="evenodd" d="M129.984 17.8994C132.09 16.7712 134.633 16.5914 135.665 17.4989C136.696 18.4065 135.826 20.0573 133.72 21.1869C131.613 22.3151 129.07 22.4949 128.039 21.5873C127.008 20.6797 127.878 19.0289 129.984 17.8994Z" fill="#697791"/>
<defs>
<clipPath id="clip0_8_2002">
<rect width="160.768" height="60.1703" fill="white" transform="matrix(-0.881448 -0.472281 -0.472281 0.881448 170.126 107.147)"/>
</clipPath>
</defs>
</svg>
