<svg width="172" height="185" viewBox="0 0 172 185" fill="none" xmlns="http://www.w3.org/2000/svg">
<g clip-path="url(#clip0_8_2548)">
<path fill-rule="evenodd" clip-rule="evenodd" d="M125.069 157.687C116.492 153.824 115.287 145.062 117.34 134.133C115.434 134.349 112.065 135.965 111.597 138.891C110.536 145.525 112.819 158.135 118.773 161.744C120.213 159.954 121.943 159.138 125.069 157.687Z" fill="#1C1D29"/>
<path fill-rule="evenodd" clip-rule="evenodd" d="M141.085 148.67C132.301 147.172 128.776 135.935 115.167 135.332C111.847 135.185 109.984 138.315 109.838 141.035C126.115 136.906 125.705 152.898 137.109 157.087C137.372 154.094 138.739 151.013 141.085 148.67Z" fill="#1C1D29"/>
<path d="M126.193 139.765C120.866 137.042 115.464 133.464 110.648 129.44C106.036 125.588 101.964 121.325 99.0003 117.006L98.8829 116.817C94.4766 109.552 96.3169 98.4949 99.5916 91.7554C100.535 89.8152 101.617 88.1812 102.728 87.039C104.199 85.5273 105.828 84.756 107.492 84.9765C109.23 85.2083 110.674 86.4096 111.602 88.8261C114.091 95.3141 117.423 101.195 121.378 106.618C125.364 112.083 129.98 117.086 134.999 121.779C138.928 125.453 141.462 128.388 142.878 130.841C144.586 133.8 144.816 136.225 143.922 138.419L143.919 138.428C143.859 138.582 143.765 138.782 143.637 139.029V139.039C142.755 140.743 141.172 142.217 138.556 142.731C136.372 143.159 133.424 142.866 129.509 141.291C128.5 140.886 127.397 140.38 126.192 139.764L126.193 139.765ZM113.731 125.799C118.252 129.576 123.346 132.947 128.393 135.526C129.424 136.053 130.397 136.497 131.315 136.867C134.26 138.05 136.28 138.311 137.635 138.044C138.559 137.863 139.092 137.391 139.371 136.854H139.374L139.467 136.636C139.793 135.837 139.595 134.756 138.705 133.214C137.518 131.158 135.27 128.583 131.71 125.253C126.472 120.356 121.653 115.131 117.488 109.42C113.293 103.666 109.755 97.4215 107.114 90.5232V90.5134C106.895 89.9416 106.92 89.7056 106.874 89.6985C106.838 89.6943 106.589 89.9304 106.189 90.342C105.429 91.1232 104.644 92.3314 103.919 93.8263C101.166 99.4924 99.5166 108.629 103.002 114.362C105.728 118.324 109.479 122.244 113.733 125.797L113.731 125.799Z" fill="#1C1D29"/>
<path fill-rule="evenodd" clip-rule="evenodd" d="M127.294 137.645C117.171 132.471 106.824 124.172 100.985 115.66C93.6732 103.789 105.554 79.7333 109.36 89.6747C114.488 103.062 123.098 113.927 133.355 123.517C140.846 130.521 142.916 134.536 141.697 137.533C140.572 140.293 136.859 142.534 127.294 137.645Z" fill="#384357"/>
<path fill-rule="evenodd" clip-rule="evenodd" d="M121.989 134.661C114.032 129.841 104.64 121.9 100.983 115.66C93.6717 103.787 105.552 79.7333 109.359 89.6733C113.676 100.945 120.462 110.427 128.621 118.867C120.449 116.581 116.713 129.145 121.989 134.659V134.661Z" fill="#263042"/>
<path d="M46.316 130.658C51.7718 129.132 57.4398 126.838 62.6312 124.031C67.5099 121.393 71.9657 118.305 75.4214 114.978C80.0073 110.059 80.228 100.76 78.6649 94.6496C78.249 93.0255 77.7271 91.688 77.1485 90.7874C76.8387 90.3055 76.6435 90.0245 76.6124 90.0231C76.5742 90.0203 76.529 90.2549 76.2008 90.7705C72.2203 97.0169 67.5014 102.437 62.2408 107.236C57.0169 112.003 51.2442 116.17 45.1207 119.936C40.9705 122.488 38.2503 124.568 36.6689 126.353C35.4835 127.692 35.0747 128.712 35.2331 129.562L35.2897 129.791C35.4538 130.372 35.881 130.939 36.7481 131.299C38.0254 131.829 40.0595 131.975 43.1828 131.399C44.1121 131.227 45.1532 130.984 46.3146 130.658H46.316ZM64.9256 128.214C59.4018 131.201 53.3886 133.635 47.6131 135.252C46.3513 135.605 45.1645 135.88 44.0485 136.087C39.8997 136.853 36.9574 136.558 34.9064 135.706C32.4437 134.685 31.189 132.926 30.6656 131.081C30.6104 130.886 30.5595 130.664 30.5142 130.424C30.0786 128.096 30.7901 125.763 33.0604 123.201C34.9346 121.085 38.007 118.712 42.6028 115.887C48.4576 112.287 53.9827 108.299 58.9888 103.73C63.9608 99.1932 68.4081 94.0904 72.1397 88.2346C73.5358 86.0429 75.1894 85.1494 76.9321 85.266C78.6083 85.3798 80.0526 86.4602 81.1912 88.2332C82.0612 89.589 82.7967 91.4028 83.3272 93.4764C85.1901 100.755 84.7615 112.016 78.9167 118.251L78.8318 118.335C75.0522 121.988 70.2074 125.359 64.9241 128.216L64.9256 128.214Z" fill="#1C1D29"/>
<path fill-rule="evenodd" clip-rule="evenodd" d="M46.9653 132.955C57.9223 129.89 69.7294 123.806 77.1599 116.624C86.708 106.438 79.897 80.5145 74.171 89.5019C66.4576 101.604 55.8401 110.545 43.8618 117.911C35.1144 123.291 32.2797 126.816 32.8738 129.994C33.4212 132.922 36.611 135.854 46.9639 132.957L46.9653 132.955Z" fill="#384357"/>
<path fill-rule="evenodd" clip-rule="evenodd" d="M52.762 131.083C61.5264 127.935 72.325 122.014 77.1598 116.626C86.7079 106.44 79.8969 80.5158 74.1709 89.5018C67.6768 99.6919 59.1246 107.64 49.4336 114.293C57.901 113.672 59.0383 126.723 52.7606 131.083H52.762Z" fill="#263042"/>
<path d="M69.3107 103.183C68.3728 106.297 67.5722 112.039 66.9951 119.053C66.3529 126.855 66.0021 136.079 66.0558 144.952C66.0558 145.287 65.9893 145.605 65.8649 145.893C64.0953 150.009 62.3243 154.41 60.7725 158.947C59.2335 163.445 57.9138 168.069 57.0269 172.662C56.4144 175.836 56.5106 177.943 57.0863 179.185C57.3267 179.703 57.662 180.01 58.0538 180.135C58.6055 180.31 59.3538 180.251 60.2209 179.996C62.644 179.283 65.5027 177.194 67.9117 174.296C70.7705 170.856 73.5203 167.671 76.4767 164.728C79.4755 161.743 82.6978 158.989 86.4746 156.445C86.8791 156.173 87.336 156.04 87.7901 156.034C88.0306 156.03 89.165 155.769 90.2669 155.516C91.4636 155.242 92.6306 154.972 93.3266 154.937C93.7283 154.917 94.1116 154.996 94.454 155.153C99.9268 157.67 104.63 160.614 108.79 163.912C112.933 167.195 116.542 170.841 119.842 174.775C121.449 176.691 123.059 177.866 124.443 178.268C125.035 178.439 125.543 178.45 125.93 178.296C126.292 178.151 126.622 177.824 126.893 177.302C127.524 176.09 127.775 174.116 127.461 171.317C126.997 167.18 125.637 162.129 124.009 157.424C122.059 151.789 119.759 146.745 118.167 144.407C117.84 143.927 117.713 143.369 117.768 142.833C118.024 135.581 117.85 128.898 117.065 122.028C116.311 115.415 114.98 108.608 112.918 100.92C108.462 98.6438 98.4231 97.496 88.7407 98.0102C80.535 98.4457 72.7777 100.064 69.3092 103.186L69.3107 103.183ZM62.1998 118.68C62.8406 110.891 63.7855 104.48 64.927 101.128C65.0388 100.806 65.2198 100.503 65.473 100.241C69.6629 95.9196 78.9153 93.756 88.4974 93.2475C99.5081 92.663 111.24 94.2506 116.112 97.2431C116.68 97.541 117.127 98.065 117.309 98.7281C119.573 107.01 121.025 114.337 121.841 121.504C122.627 128.393 122.82 135.119 122.583 142.399C124.343 145.235 126.642 150.332 128.56 155.873C130.283 160.852 131.728 166.258 132.236 170.795C132.66 174.584 132.204 177.481 131.161 179.487C130.334 181.077 129.15 182.152 127.717 182.721C126.311 183.28 124.741 183.315 123.108 182.842C120.839 182.185 118.395 180.489 116.156 177.818C113.073 174.144 109.693 170.733 105.8 167.646C102.085 164.703 97.9068 162.06 93.0748 159.78C92.6363 159.868 91.9913 160.016 91.3363 160.166C90.3971 160.381 89.438 160.602 88.6728 160.716C85.4038 162.966 82.5563 165.421 79.8772 168.089C77.0255 170.93 74.3733 174.001 71.6135 177.321C68.602 180.943 64.8662 183.602 61.5718 184.57C59.8022 185.09 58.0962 185.153 56.5841 184.671C54.9121 184.139 53.5683 183.006 52.7224 181.181C51.7464 179.078 51.4904 175.993 52.3066 171.764C53.2373 166.938 54.6179 162.104 56.222 157.414C57.7582 152.925 59.5037 148.563 61.2591 144.469C61.2195 135.514 61.5703 126.354 62.2012 118.678L62.1998 118.68Z" fill="#1C1D29"/>
<path fill-rule="evenodd" clip-rule="evenodd" d="M67.2031 101.893C65.0233 108.293 63.5507 127.205 63.6568 144.961C60.0639 153.296 56.4823 162.793 54.6646 172.212C51.8625 186.731 62.7657 184.223 69.7619 175.807C75.3819 169.047 80.5633 163.299 87.817 158.413C88.8157 158.399 92.4496 157.369 93.4483 157.317C104.022 162.184 111.617 168.686 117.999 176.295C124.047 183.507 131.1 182.224 129.85 171.055C128.779 161.504 123.269 147.637 120.162 143.07C120.702 128.186 119.463 115.71 114.987 99.3533C106.933 94.1621 75.3338 93.506 67.2045 101.893H67.2031Z" fill="#384357"/>
<path fill-rule="evenodd" clip-rule="evenodd" d="M63.6568 144.799V144.962C60.0639 153.297 56.4837 162.795 54.666 172.214C53.7423 177 54.3081 179.935 55.7326 181.419C53.7225 173.252 62.6312 151.974 67.435 144.781L63.6568 144.799Z" fill="#697791"/>
<path fill-rule="evenodd" clip-rule="evenodd" d="M57.2687 182.385C60.5348 183.471 65.7799 180.598 69.7618 175.809C74.4722 170.141 78.8771 165.186 84.4503 160.853L79.1048 161.294C68.3445 167.766 64.5464 182.17 57.2687 182.385Z" fill="#263042"/>
<path fill-rule="evenodd" clip-rule="evenodd" d="M94.3069 157.72C104.435 162.541 111.79 168.895 117.997 176.295C124.046 183.507 131.099 182.224 129.848 171.055C129.362 166.716 127.959 161.486 126.282 156.641C130.431 168.743 121.102 173.881 114.952 167.955C110.195 163.371 104.376 157.16 100.453 156.152C98.5774 155.67 96.1458 156.652 94.3069 157.72Z" fill="#263042"/>
<path fill-rule="evenodd" clip-rule="evenodd" d="M119.749 124.652C119.029 116.703 117.531 108.655 114.986 99.3533C108.014 94.8589 83.3994 93.7658 71.6375 98.9936C70.264 99.8633 68.1451 100.972 67.203 101.893C66.6839 103.341 66.3684 104.899 65.9327 107.447C71.9841 114.329 82.4531 120.467 94.1908 123.492C102.545 125.643 107.867 125.679 115.588 125.158C116.648 125.086 118.101 124.916 119.749 124.654V124.652Z" fill="#263042"/>
<path d="M78.498 98.766C77.0184 99.0583 75.2729 99.4348 73.6603 99.8464V99.8521C73.2346 99.9616 72.8187 100.071 72.424 100.184C74.9079 103.21 77.4767 106.125 80.1177 108.942C83.0387 112.055 86.0672 115.075 89.1848 118.008L93.9207 114.472C91.0251 112.134 88.2908 109.732 85.7829 107.242C83.0274 104.508 80.5703 101.691 78.498 98.766ZM72.6263 96.1233C74.7453 95.5824 77.1076 95.0963 78.846 94.7718C79.624 94.5765 80.4854 94.8828 80.9621 95.5937C83.0387 98.6944 85.5834 101.667 88.4804 104.542C91.3943 107.433 94.7015 110.258 98.2675 113.035C98.3963 113.137 98.5165 113.257 98.6212 113.394C99.2761 114.248 99.1205 115.454 98.2732 116.088L90.2641 122.067C89.53 122.614 88.4719 122.566 87.7675 121.908C84.1533 118.557 80.6594 115.104 77.3127 111.536C73.9263 107.925 70.7054 104.22 67.6797 100.411C67.5835 100.29 67.5015 100.156 67.4336 100.011C66.9823 99.0372 67.4024 97.8992 68.3742 97.4707C69.438 97.0028 70.9755 96.5392 72.6235 96.1191L72.6277 96.1247L72.6263 96.1233Z" fill="#1C1D29"/>
<path fill-rule="evenodd" clip-rule="evenodd" d="M79.3566 96.6389C76.3917 97.1869 71.4366 98.2462 69.1918 99.2325C75.2304 106.837 81.9197 113.882 89.0787 120.52C91.7479 118.527 94.4171 116.534 97.0863 114.541C89.885 108.931 83.6511 103.054 79.3566 96.6389Z" fill="#961818"/>
<path d="M65.6159 138.641C65.5989 139.691 65.5989 140.75 65.6018 141.804C74.618 137.875 83.207 133.686 91.3151 128.777C99.9282 123.562 108.033 117.521 115.583 110.095L115.19 108.213C114.873 106.673 114.547 105.094 114.151 103.508C106.67 111.526 98.8263 118.22 90.7168 123.951C82.5733 129.706 74.1752 134.48 65.6159 138.64V138.641ZM61.7274 142.839C61.7203 141.038 61.7132 139.212 61.7613 137.458C61.7472 136.729 62.1531 136.022 62.859 135.684C71.6121 131.487 80.1856 126.663 88.4663 120.811C96.7342 114.968 104.729 108.085 112.341 99.7593L112.344 99.7621C112.696 99.3772 113.204 99.1355 113.769 99.1327L115.426 99.1257C116.293 99.0962 117.103 99.6497 117.355 100.515C118.054 102.894 118.531 105.209 118.99 107.444C119.188 108.407 119.384 109.355 119.575 110.214C119.75 110.856 119.585 111.572 119.078 112.078C111.078 120.083 102.481 126.535 93.3365 132.072C84.2326 137.583 74.6166 142.175 64.5154 146.485C64.2594 146.607 63.9736 146.676 63.6695 146.676C62.5945 146.676 61.7231 145.811 61.7231 144.743C61.7231 142.371 61.7259 143.069 61.7245 142.84L61.7274 142.839Z" fill="#1C1D29"/>
<path fill-rule="evenodd" clip-rule="evenodd" d="M63.7034 137.42C63.6327 139.823 63.6723 142.329 63.6723 144.74C83.8053 136.154 101.941 126.487 117.705 110.715C117.017 107.654 116.474 104.377 115.495 101.049C114.924 101.052 114.352 101.053 113.781 101.056C98.3679 117.914 81.3865 128.94 63.7048 137.419L63.7034 137.42Z" fill="#D62727"/>
<path fill-rule="evenodd" clip-rule="evenodd" d="M100.838 124.868C106.722 120.724 112.351 116.072 117.703 110.716L117.699 110.697C117.484 109.739 117.283 108.758 117.078 107.763C116.596 105.588 116.051 103.357 115.441 101.05L113.778 101.057C106.146 109.406 98.1289 116.322 89.8341 122.208C91.2614 122.681 92.7169 123.109 94.1909 123.49C96.6182 124.115 98.7881 124.562 100.836 124.868H100.838Z" fill="#961818"/>
<path fill-rule="evenodd" clip-rule="evenodd" d="M62.6298 138.714C62.6086 141.177 62.5874 144.179 62.5662 146.642C81.2451 151.196 100.654 150.381 120.795 144.191C120.935 142.227 120.948 138.062 121.088 136.098C103.382 140.671 82.8562 143.107 62.6312 138.714H62.6298Z" fill="#1C1D29"/>
<path fill-rule="evenodd" clip-rule="evenodd" d="M163.698 61.6137C154.341 65.7808 146.424 58.3711 139.146 45.8489C137.93 47.82 136.768 52.5027 138.777 55.7804C143.33 63.2112 155.122 73.3647 162.363 71.3753C161.977 68.3041 162.582 65.9143 163.7 61.6137H163.698Z" fill="#1C1D29"/>
<path fill-rule="evenodd" clip-rule="evenodd" d="M168.143 38.05C160.531 44.7081 148.936 37.0371 138.522 49.0212C135.983 51.9449 137.136 56.7091 139.214 59.4895C147.773 40.4385 160.317 56.3705 171.999 49.9078C169.788 46.7551 168.311 42.4967 168.141 38.05H168.143Z" fill="#1C1D29"/>
<path d="M138.464 25.6992C142.425 30.4648 145.47 46.321 145.461 61.8034C145.453 74.3791 143.47 86.9182 138.398 93.4469C138.348 93.5116 138.295 93.572 138.239 93.6296C130.489 101.707 111.45 106.325 92.3789 107.054C73.3152 107.782 53.98 104.63 45.63 97.17C45.5522 97.0998 45.48 97.0253 45.4136 96.9495C39.8757 90.8099 36.9419 78.4885 35.9645 65.9803C34.7466 50.4093 36.6067 34.2146 40.2562 29.3127C40.3085 29.2425 40.3651 29.175 40.4245 29.1118L40.508 29.0191C49.7774 19.1269 69.2173 13.6139 88.7478 12.8679C108.27 12.1219 128.072 16.1358 138.078 25.2918L138.17 25.3761C138.28 25.4772 138.378 25.5854 138.464 25.6992ZM140.736 61.8034C140.746 47.2763 138.187 32.7464 134.863 28.7423C125.806 20.4658 107.325 16.8593 88.9147 17.5618C70.513 18.2643 52.3716 23.2701 43.9821 32.2125C40.979 36.447 39.556 51.1357 40.689 65.6291C41.5943 77.203 44.1575 88.4425 48.8891 93.7518C56.3465 100.307 74.2856 103.044 92.2105 102.36C110.135 101.676 127.81 97.5775 134.733 90.4699C139.04 84.8136 140.726 73.4111 140.733 61.8034H140.736Z" fill="#1C1D29"/>
<path fill-rule="evenodd" clip-rule="evenodd" d="M136.566 27.1056C143.211 34.726 147.137 78.355 136.525 92.0111C121.906 107.245 62.9678 109.496 47.2142 95.4223C35.5768 82.6162 36.1186 38.8172 42.1544 30.712C59.7385 11.7552 117.569 9.54658 136.566 27.1056Z" fill="#384357"/>
<path fill-rule="evenodd" clip-rule="evenodd" d="M92.2954 104.708C73.765 105.416 55.0918 102.46 47.2156 95.4223C35.5783 82.6162 36.1186 38.8171 42.1559 30.7106C51.1424 21.0221 70.6403 15.7115 90.0943 15.1762C76.2715 17.2133 62.8264 21.653 52.0816 28.023C46.8295 31.1363 45.4107 31.8725 43.9127 38.0177C39.8884 54.5174 41.7937 72.2126 46.5579 86.1216C48.667 92.2794 49.271 94.0089 55.079 96.6614C65.6541 101.493 78.1939 103.526 92.2954 104.708Z" fill="#697791"/>
<path fill-rule="evenodd" clip-rule="evenodd" d="M136.566 27.1056C143.211 34.726 147.137 78.355 136.525 92.0111C133.661 94.9966 129.087 97.4819 123.476 99.4446C139.89 77.5121 140.049 35.1531 110.134 16.3985C121.099 18.1364 130.691 21.6741 136.567 27.1056H136.566Z" fill="#263042"/>
<path d="M144.299 49.1884C142.432 62.4286 133.228 72.0792 120.873 77.9996C112.167 82.1723 101.876 84.4848 91.523 84.8796C81.1743 85.2744 70.7407 83.7542 61.7386 80.2587C48.9131 75.2796 38.9604 66.3091 36.1172 53.1672C35.898 52.1402 36.5585 51.1301 37.5926 50.9123C37.8769 50.8533 38.1584 50.8589 38.4243 50.9207C57.7652 55.4039 74.1724 57.3891 90.4437 56.7667C106.704 56.1457 122.906 52.9143 141.846 46.9686C142.856 46.6525 143.933 47.2089 144.251 48.212C144.356 48.5393 144.366 48.8751 144.296 49.1884H144.299ZM119.21 74.5757C129.534 69.6289 137.434 61.906 139.958 51.5403C122.006 56.9831 106.357 59.9601 90.5795 60.5628C74.8146 61.1656 58.9859 59.3897 40.6621 55.3308C43.9792 65.4745 52.4536 72.5709 63.1305 76.7169C71.6446 80.0227 81.5449 81.46 91.3858 81.0848C101.22 80.7097 110.974 78.5208 119.208 74.5757H119.21Z" fill="#1C1D29"/>
<path fill-rule="evenodd" clip-rule="evenodd" d="M142.425 48.7852C136.525 92.0111 47.2157 95.4223 37.9901 52.7738C76.9873 61.8147 104.241 60.7736 142.425 48.7852Z" fill="#263042"/>
<path fill-rule="evenodd" clip-rule="evenodd" d="M128.363 71.3149C108.908 85.7338 74.2644 87.0559 53.7523 74.1641C50.0094 70.0884 47.203 62.4708 49.5469 55.217C84.6315 60.2748 94.6393 61.4648 130.048 53.5058C132.049 58.9851 129.653 68.5542 128.363 71.3149Z" fill="#FACF89"/>
<path fill-rule="evenodd" clip-rule="evenodd" d="M48.708 59.9208C48.7773 58.3627 49.0418 56.7822 49.5468 55.2185C84.6314 60.2762 94.6392 61.4662 130.048 53.5072C130.56 54.908 130.783 56.5756 130.812 58.329C102.262 67.9458 74.8301 68.564 48.7065 59.9222L48.708 59.9208Z" fill="#F5986A"/>
<path fill-rule="evenodd" clip-rule="evenodd" d="M71.0873 61.7486C75.2403 61.5899 78.7696 65.6487 78.969 70.8133C79.1685 75.9779 75.9646 80.2938 71.8115 80.4526C67.6584 80.6114 64.1292 76.5525 63.9297 71.3879C63.7303 66.2234 66.9342 61.9074 71.0873 61.7486Z" fill="#1C1D29"/>
<path fill-rule="evenodd" clip-rule="evenodd" d="M73.2755 64.6442C74.8612 64.5838 76.2093 66.1335 76.2856 68.106C76.362 70.0785 75.1385 71.7265 73.5514 71.787C71.9642 71.8474 70.6176 70.2977 70.5412 68.3252C70.4648 66.3526 71.6884 64.7046 73.2755 64.6442Z" fill="white"/>
<path d="M142.24 37.0118C142.692 38.8424 143.103 40.8431 143.458 42.9645C143.817 45.1071 144.125 47.3957 144.374 49.7827C144.47 50.7142 143.872 51.5572 142.995 51.8044C124.08 57.8541 105.827 61.063 88.2541 61.3594C70.6304 61.6573 53.7041 59.0244 37.4936 53.3962C36.6647 53.1096 36.1611 52.313 36.2149 51.4841C36.2785 50.1185 36.3577 48.8639 36.4511 47.7259C36.5529 46.4853 36.6746 45.2869 36.8146 44.1391C36.9391 43.0952 37.8911 42.3492 38.9421 42.4728L39.1104 42.4995C55.0819 44.4889 71.2868 45.5637 87.974 44.7376C104.66 43.9115 121.842 41.176 139.777 35.5394C140.787 35.2233 141.863 35.7797 142.182 36.7828C142.206 36.8601 142.226 36.9373 142.24 37.0146V37.0118ZM139.681 43.5897C139.457 42.2593 139.214 40.985 138.954 39.7795C121.419 45.1015 104.561 47.7189 88.1536 48.5309C71.8611 49.3374 56.0211 48.3567 40.4118 46.4797C40.3608 46.9869 40.3142 47.5011 40.2717 48.0223C40.2095 48.788 40.1543 49.5397 40.1091 50.273C55.4822 55.4362 71.5159 57.8471 88.1932 57.5647C104.934 57.2823 122.341 54.2856 140.397 48.6405C140.191 46.9026 139.952 45.211 139.679 43.5911L139.681 43.5897Z" fill="#1C1D29"/>
<path fill-rule="evenodd" clip-rule="evenodd" d="M140.354 37.3518C141.255 40.9653 141.985 45.3038 142.472 49.9752C104.947 61.9889 70.1212 62.7124 38.1245 51.6007C38.2433 49.0451 38.4442 46.609 38.72 44.3597C70.977 48.3918 104.175 48.7234 140.356 37.3532L140.354 37.3518Z" fill="#1C1D29"/>
<path fill-rule="evenodd" clip-rule="evenodd" d="M108.826 60.9113C104.67 60.9365 101.327 65.1472 101.36 70.3159C101.392 75.4847 104.789 79.6546 108.944 79.6279C113.1 79.6012 116.443 75.3906 116.41 70.2232C116.378 65.0544 112.982 60.8846 108.826 60.9113Z" fill="#1C1D29"/>
<path fill-rule="evenodd" clip-rule="evenodd" d="M106.769 63.901C105.182 63.9108 103.904 65.5195 103.917 67.4934C103.93 69.4674 105.227 71.0592 106.814 71.0493C108.401 71.0395 109.679 69.4308 109.666 67.4569C109.653 65.483 108.356 63.8912 106.769 63.901Z" fill="white"/>
<path fill-rule="evenodd" clip-rule="evenodd" d="M101.449 155.444C97.1996 159.399 85.135 161.46 79.1049 161.293C83.4927 158.56 96.1358 155.852 101.449 155.444Z" fill="#1C1D29"/>
<path d="M45.0655 124.242L34.1608 127.625L2.01985 25.4154C0.635021 21.0109 -0.277352 17.2864 0.0762808 13.5619C0.439815 9.76716 2.08775 6.18034 5.82352 2.22964L7.93259 0C20.901 41.2308 33.868 82.4617 46.8294 123.695L45.0641 124.243L45.0655 124.242ZM36.475 122.614L42.0709 120.878L6.46714 7.65694C4.80506 9.94137 4.00868 12.0586 3.80499 14.2068L3.80782 14.2152C3.52632 17.1796 4.33968 20.418 5.56466 24.3153L36.475 122.615V122.614Z" fill="#1C1D29"/>
<path fill-rule="evenodd" clip-rule="evenodd" d="M44.4503 122.286L35.3181 125.119L3.791 24.8647C1.18119 16.5643 0.342373 10.9417 7.16749 3.72449L44.4503 122.286Z" fill="white"/>
<path fill-rule="evenodd" clip-rule="evenodd" d="M44.4503 122.286L37.1018 124.565L5.57609 24.3111C3.16714 16.65 2.49807 12.0024 7.74033 5.54532L44.4503 122.286Z" fill="#B3B3B3"/>
<path fill-rule="evenodd" clip-rule="evenodd" d="M15.8498 63.2112L13.3418 55.2353L18.8797 40.9723L21.3877 48.9482L15.8498 63.2112Z" fill="white"/>
<path fill-rule="evenodd" clip-rule="evenodd" d="M21.44 80.9907L17.7834 69.3592L23.3213 55.0962L26.9793 66.7291L21.44 80.9907Z" fill="white"/>
<path d="M38.7766 111.149L33.6008 112.755C33.4381 112.806 33.3179 112.904 33.2557 113.021C33.2316 113.066 33.2189 113.105 33.2245 113.122L41.9975 141.021L41.9904 141.024C41.9946 141.037 42.03 141.06 42.0809 141.087C42.1983 141.149 42.3539 141.162 42.5166 141.111L47.6938 139.505C47.8565 139.455 47.9767 139.356 48.0375 139.24C48.0644 139.189 48.0785 139.15 48.0757 139.136H48.0686L39.2957 111.239C39.2901 111.222 39.2575 111.197 39.2123 111.173C39.0948 111.111 38.9392 111.099 38.7766 111.149ZM32.3702 108.844L37.5459 107.238C38.5927 106.913 39.6946 107.051 40.6211 107.533C41.6198 108.053 42.4275 108.967 42.7995 110.152L51.5724 138.051L51.5654 138.054C51.9374 139.241 51.803 140.449 51.281 141.437C50.7959 142.359 49.9698 143.093 48.9216 143.418L43.7458 145.024C42.6991 145.348 41.5986 145.211 40.6706 144.729C39.6762 144.212 38.8714 143.296 38.4993 142.109H38.4923L29.7193 114.212C29.3473 113.029 29.4859 111.819 30.0093 110.827C30.4959 109.906 31.322 109.171 32.3687 108.847L32.3702 108.844Z" fill="#1C1D29"/>
<path fill-rule="evenodd" clip-rule="evenodd" d="M38.1612 109.194L32.9854 110.799C31.776 111.175 31.0942 112.464 31.4733 113.667L40.2462 141.566C40.6239 142.767 41.9224 143.443 43.1318 143.068L48.3076 141.462C49.517 141.087 50.1974 139.797 49.8198 138.595L41.0468 110.695C40.6691 109.494 39.3706 108.818 38.1598 109.194H38.1612Z" fill="#697791"/>
<path fill-rule="evenodd" clip-rule="evenodd" d="M37.3225 109.453L33.8244 110.538C33.0068 110.792 32.547 111.663 32.8031 112.475L42.0216 141.791C42.2776 142.603 43.1546 143.06 43.9722 142.805L47.4703 141.721C48.2879 141.468 48.7477 140.595 48.4916 139.783L39.2731 110.468C39.0171 109.656 38.1401 109.199 37.3225 109.453Z" fill="#384357"/>
<path d="M23.1134 115.649L23.3129 116.329C23.5109 117.011 23.7966 118.01 23.9225 118.392L49.9174 110.329L48.9569 107.276L23.0158 115.322L23.1134 115.651V115.649ZM19.5912 117.441L19.4215 116.862C19.1853 116.107 18.9773 115.26 19.1061 114.374C19.2857 113.139 19.952 112.11 21.5447 111.617L48.3855 103.291H48.4435C49.2568 103.124 50.0801 103.258 50.7803 103.622H50.7887C51.5979 104.043 52.25 104.781 52.5484 105.732L53.7352 109.504C54.0379 110.465 53.9191 111.455 53.4848 112.277C53.0591 113.085 52.3249 113.734 51.3871 114.025V114.034L24.8222 122.274C24.1885 122.47 23.5321 122.474 22.9196 122.32C22.293 122.163 21.7102 121.83 21.2491 121.362C20.4965 120.597 19.9449 118.673 19.5941 117.449V117.442L19.5912 117.441Z" fill="#1C1D29"/>
<path fill-rule="evenodd" clip-rule="evenodd" d="M21.2662 116.256C21.5123 117.042 22.1149 119.447 22.6128 119.953C23.0258 120.371 23.6567 120.552 24.2565 120.367L50.8214 112.127C51.6715 111.863 52.151 110.957 51.8851 110.111L50.6983 106.339C50.4324 105.494 49.52 105.018 48.6685 105.282L22.1036 113.522C20.6763 113.965 20.9352 115.204 21.2647 116.255L21.2662 116.256Z" fill="#F2E827"/>
<path fill-rule="evenodd" clip-rule="evenodd" d="M24.8222 114.367L26.009 118.137C26.275 118.983 27.1873 119.458 28.0389 119.194L47.0403 113.3C47.8904 113.036 48.3699 112.13 48.104 111.284L46.9172 107.513C46.6513 106.669 45.7389 106.193 44.8888 106.457L25.8874 112.352C25.0372 112.616 24.5591 113.522 24.8236 114.368L24.8222 114.367Z" fill="#EBA50E"/>
<path d="M35.56 138.176C36.1484 138.01 36.734 137.8 37.314 137.549C37.8628 137.312 38.4046 137.032 38.935 136.712C40.8984 135.528 41.7556 134.595 41.9678 133.62C42.2012 132.541 41.7981 131.046 41.2209 129.034C40.9196 127.982 40.4613 126.533 39.7739 125.374C39.2731 124.531 38.6677 123.861 37.9774 123.82C36.669 123.744 35.4185 123.809 34.2232 124.007C33.011 124.208 31.8482 124.541 30.735 124.998C30.4394 125.119 30.2442 125.68 30.1451 126.504C29.9825 127.867 30.213 129.665 30.7831 131.564C31.4111 133.656 32.4268 135.793 33.6447 137.138C34.3251 137.891 35.0055 138.333 35.56 138.176ZM38.8205 140.994C38.116 141.299 37.3748 141.562 36.5996 141.781C34.3902 142.408 32.4141 141.447 30.7817 139.643C29.1903 137.885 27.8989 135.217 27.1294 132.652C26.4193 130.284 26.1406 127.954 26.3641 126.089C26.6258 123.905 27.5721 122.238 29.2993 121.532C30.6926 120.961 32.1269 120.548 33.6051 120.304C35.1002 120.057 36.6393 119.974 38.2193 120.066C40.4543 120.197 41.9947 121.655 43.074 123.475C43.9651 124.978 44.5239 126.73 44.886 127.993C45.6159 130.539 46.1209 132.455 45.7007 134.39C45.258 136.43 43.8972 138.12 40.914 139.921C40.2477 140.323 39.5475 140.682 38.819 140.997L38.8205 140.994Z" fill="#1C1D29"/>
<path fill-rule="evenodd" clip-rule="evenodd" d="M36.0804 139.98C37.4398 139.595 38.7228 139.042 39.9251 138.317C44.8718 135.331 44.3597 133.073 43.0541 128.514C42.3907 126.2 41.0242 122.116 38.099 121.945C35.2091 121.776 32.5243 122.24 30.0178 123.267C27.9214 124.125 27.7191 127.986 28.9569 132.11C30.2313 136.357 33.0194 140.847 36.0804 139.98Z" fill="#384357"/>
<path fill-rule="evenodd" clip-rule="evenodd" d="M36.0805 139.98C37.4399 139.595 38.7228 139.042 39.9266 138.317C44.8732 135.331 44.3612 133.073 43.0541 128.514C42.9311 128.083 42.7825 127.59 42.6043 127.071C42.5845 129.2 42.6001 131.271 41.5957 132.836C40.7682 134.127 35.8358 136.138 33.8031 135.033C31.3941 133.727 29.5425 127.562 29.3572 123.688C27.8946 125.036 27.8649 128.469 28.9569 132.108C30.2314 136.355 33.0194 140.845 36.0805 139.979V139.98Z" fill="#263042"/>
<path fill-rule="evenodd" clip-rule="evenodd" d="M58.6875 23.6831C62.2578 21.7696 66.5693 21.4661 68.3191 23.0045C70.0674 24.5429 68.5921 27.3416 65.0218 29.2551C61.4515 31.1686 57.14 31.4721 55.3902 29.9337C53.6405 28.3953 55.1172 25.5966 58.6875 23.6831Z" fill="#697791"/>
<path fill-rule="evenodd" clip-rule="evenodd" d="M68.9839 30.6797C71.0901 29.5516 73.6335 29.3717 74.6647 30.2793C75.6958 31.1869 74.8259 32.8377 72.7197 33.9673C70.6134 35.0955 68.0701 35.2753 67.0389 34.3677C66.0077 33.4601 66.8776 31.8093 68.9839 30.6797Z" fill="#697791"/>
</g>
<defs>
<clipPath id="clip0_8_2548">
<rect width="172" height="185" fill="white"/>
</clipPath>
</defs>
</svg>
