<svg width="137" height="171" viewBox="0 0 137 171" fill="none" xmlns="http://www.w3.org/2000/svg">
<g clip-path="url(#clip0_8_800)">
<path d="M23.5332 67.7225C26.1979 67.7225 28.358 64.507 28.358 60.5404C28.358 56.5739 26.1979 53.3584 23.5332 53.3584C20.8685 53.3584 18.7084 56.5739 18.7084 60.5404C18.7084 64.507 20.8685 67.7225 23.5332 67.7225Z" fill="url(#paint0_linear_8_800)"/>
<path d="M24.7349 67.7225C27.3995 67.7225 29.5597 64.507 29.5597 60.5404C29.5597 56.5739 27.3995 53.3584 24.7349 53.3584C22.0702 53.3584 19.91 56.5739 19.91 60.5404C19.91 64.507 22.0702 67.7225 24.7349 67.7225Z" fill="#6379FF"/>
<path fill-rule="evenodd" clip-rule="evenodd" d="M103.731 109.131L119.207 77.8838L126.819 78.3362L107.961 107.702L103.731 109.131Z" fill="url(#paint1_linear_8_800)"/>
<path fill-rule="evenodd" clip-rule="evenodd" d="M105.562 110.451L116.992 98.1263L126.819 99.323L108.125 111.715L105.562 110.451Z" fill="url(#paint2_linear_8_800)"/>
<path fill-rule="evenodd" clip-rule="evenodd" d="M105.562 108.993L128.196 85.0823L136.656 88.7977L109.844 108.421L105.562 108.993Z" fill="url(#paint3_linear_8_800)"/>
<path fill-rule="evenodd" clip-rule="evenodd" d="M102.052 107.582V83.8116L110.191 81.5108L105.562 108.993L102.052 107.582Z" fill="url(#paint4_linear_8_800)"/>
<path fill-rule="evenodd" clip-rule="evenodd" d="M74.5515 143.624L79.8112 169.579H85.1431L87.674 143.573L74.5515 143.624Z" fill="url(#paint5_linear_8_800)"/>
<path fill-rule="evenodd" clip-rule="evenodd" d="M69.7411 143.525L77.608 169.579H79.8112L74.5515 143.624L69.7411 143.525Z" fill="#FF593C"/>
<g style="mix-blend-mode:multiply" opacity="0.8">
<path fill-rule="evenodd" clip-rule="evenodd" d="M76.324 152.957L85.9118 161.693L86.7424 151.678L84.3908 143.896L74.5515 143.624L76.324 152.957Z" fill="#DE8BE1"/>
</g>
<path fill-rule="evenodd" clip-rule="evenodd" d="M25.8188 143.986L31.0786 169.94H36.4125L38.9434 143.935L25.8188 143.986Z" fill="url(#paint6_linear_8_800)"/>
<path fill-rule="evenodd" clip-rule="evenodd" d="M21.0085 143.887L28.8754 169.94H31.0787L25.8189 143.986L21.0085 143.887Z" fill="#FF593C"/>
<path fill-rule="evenodd" clip-rule="evenodd" d="M36.3342 22.2226L53.047 2.9444L57.5359 4.76407L54.6401 26.2053L36.3342 22.2226Z" fill="url(#paint7_linear_8_800)"/>
<path fill-rule="evenodd" clip-rule="evenodd" d="M53.047 2.9444L51.2024 3.75246L34.1681 22.8435L36.3342 22.2226L53.047 2.9444Z" fill="#FF7443"/>
<path fill-rule="evenodd" clip-rule="evenodd" d="M4.02988 57.3452L0.656006 31.2119L26.3486 28.4814L25.821 56.8538L4.02988 57.3452Z" fill="#FF7443"/>
<path fill-rule="evenodd" clip-rule="evenodd" d="M26.3485 28.4814L47.8861 18.4332L67.7976 22.7654L74.6154 96.0373L108.647 108.837L102.28 144.114L40.4706 144.356L29.6853 108.092L35.0728 62.0723L25.8209 56.8538L26.3485 28.4814Z" fill="url(#paint8_linear_8_800)"/>
<path fill-rule="evenodd" clip-rule="evenodd" d="M0.656006 31.2119L36.9339 21.5729L47.8862 18.4332L26.3486 28.4814L0.656006 31.2119Z" fill="#FFA68E"/>
<path fill-rule="evenodd" clip-rule="evenodd" d="M4.02991 57.3452L24.2711 62.9214L35.0729 62.0723L25.821 56.8538L4.02991 57.3452Z" fill="#D32A1D"/>
<path fill-rule="evenodd" clip-rule="evenodd" d="M24.271 62.9214L14.1494 107.702L29.6853 108.092L35.0728 62.0723L24.271 62.9214Z" fill="#FF7443"/>
<path fill-rule="evenodd" clip-rule="evenodd" d="M14.1494 107.702L20.9487 143.953L40.4706 144.356L29.6853 108.092L14.1494 107.702Z" fill="#FF593C"/>
<path fill-rule="evenodd" clip-rule="evenodd" d="M55.2955 34.5264C55.2955 40.9785 50.4789 47.2887 44.535 47.2887C38.591 47.2887 33.7744 40.9785 33.7744 34.5264C33.7744 28.0743 38.591 22.8435 44.535 22.8435C50.4789 22.8435 55.2955 28.0743 55.2955 34.5264Z" fill="#72133B"/>
<path d="M44.535 45.2018C49.9645 45.2018 54.366 40.4223 54.366 34.5264C54.366 28.6306 49.9645 23.851 44.535 23.851C39.1055 23.851 34.704 28.6306 34.704 34.5264C34.704 40.4223 39.1055 45.2018 44.535 45.2018Z" fill="url(#paint9_linear_8_800)"/>
<path d="M41.1426 40.3226C43.8482 40.3226 46.0416 37.7276 46.0416 34.5264C46.0416 31.3253 43.8482 28.7302 41.1426 28.7302C38.4369 28.7302 36.2435 31.3253 36.2435 34.5264C36.2435 37.7276 38.4369 40.3226 41.1426 40.3226Z" fill="#72133B"/>
<path fill-rule="evenodd" clip-rule="evenodd" d="M9.84402 43.6926C9.84402 46.4642 9.05465 48.8493 7.9211 49.9329C7.51095 50.3256 7.04929 50.5477 6.57319 50.5477C4.76569 50.5477 3.30237 47.4738 3.30237 43.6926C3.30237 39.9114 4.76569 36.8375 6.57319 36.8375C7.04929 36.8375 7.51095 37.0595 7.9211 37.444C9.05465 38.5256 9.84402 40.9209 9.84402 43.6926Z" fill="#D32A1D"/>
<path fill-rule="evenodd" clip-rule="evenodd" d="M9.84402 43.6926C9.84402 46.4642 9.05465 48.8493 7.92109 49.9329C6.78754 48.8596 5.99817 46.4642 5.99817 43.6926C5.99817 40.9209 6.78754 38.5276 7.92109 37.444C9.05465 38.5256 9.84402 40.9209 9.84402 43.6926Z" fill="#95001D"/>
<path fill-rule="evenodd" clip-rule="evenodd" d="M24.271 42.9133C24.271 45.685 23.4817 48.0701 22.3481 49.1536C21.938 49.5464 21.4763 49.7684 21.0002 49.7684C19.1927 49.7684 17.7294 46.6945 17.7294 42.9133C17.7294 39.1321 19.1927 36.0582 21.0002 36.0582C21.4763 36.0582 21.938 36.2803 22.3481 36.6648C23.4817 37.7463 24.271 40.1417 24.271 42.9133Z" fill="#D32A1D"/>
<path fill-rule="evenodd" clip-rule="evenodd" d="M24.271 42.9133C24.271 45.685 23.4817 48.0701 22.3481 49.1536C21.2145 48.0804 20.4252 45.685 20.4252 42.9133C20.4252 40.1417 21.2145 37.7483 22.3481 36.6648C23.4817 37.7463 24.271 40.1417 24.271 42.9133Z" fill="#95001D"/>
<path fill-rule="evenodd" clip-rule="evenodd" d="M47.8861 18.4332L65.0626 0.310514L70.6088 1.95747L67.7975 22.7654L47.8861 18.4332Z" fill="url(#paint10_linear_8_800)"/>
<path fill-rule="evenodd" clip-rule="evenodd" d="M65.0626 0.310514L63.0531 1.18848L45.5283 19.1096L47.8861 18.4332L65.0626 0.310514Z" fill="#FF7443"/>
<path fill-rule="evenodd" clip-rule="evenodd" d="M40.4706 144.356L45.7303 170.311H51.0621L53.593 144.305L40.4706 144.356Z" fill="url(#paint11_linear_8_800)"/>
<path fill-rule="evenodd" clip-rule="evenodd" d="M35.6603 144.257L43.5272 170.311H45.7304L40.4707 144.356L35.6603 144.257Z" fill="#FF593C"/>
<g style="mix-blend-mode:multiply" opacity="0.8">
<path fill-rule="evenodd" clip-rule="evenodd" d="M27.309 152.821L36.5217 162.849L38.0097 152.04L35.6602 144.257L25.8188 143.986L27.309 152.821Z" fill="#DE8BE1"/>
</g>
<path fill-rule="evenodd" clip-rule="evenodd" d="M89.2032 143.994L94.4609 169.949H99.7948L102.326 143.943L89.2032 143.994Z" fill="url(#paint12_linear_8_800)"/>
<path fill-rule="evenodd" clip-rule="evenodd" d="M84.3909 143.896L92.2598 169.949H94.461L89.2033 143.994L84.3909 143.896Z" fill="#FF593C"/>
<path fill-rule="evenodd" clip-rule="evenodd" d="M105.562 146.852L102.05 147.683C102.05 147.683 101.516 145.172 101.081 141.525L100.411 147.683H98.0121L97.2165 143.99L96.4024 147.683H92.5731L92.066 143.891L91.2705 148.252L86.221 147.792L85.8686 143.521L84.3929 148.252H78.855L78.0141 143.99V149.046H74.5578L73.4345 143.891V149.959H68.2943V144.262L67.235 149.959H61.3158V143.62L60.6377 149.959H57.3895L56.5198 144.262L56.0664 148.758L52.2287 148.649L52.3998 144.262L50.9056 148.586L45.7283 149.046L44.8689 143.521L44.6422 148.947L40.9138 149.073L40.2254 144.837V149.677L36.497 149.587L36.1982 144.358L35.8911 149.459L31.565 149.207L31.0766 144.159V149.034L27.3111 148.645V144.356L26.7237 148.816L21.3651 148.717L20.9488 143.949C20.9488 143.949 20.586 147.442 19.7369 148.987L17.2472 147.362C17.2472 147.362 18.5044 145.168 19.0939 141.51H19.1021C19.4092 139.569 19.537 137.221 19.1928 134.567L37.4657 134.242L42.1092 134.16L104.278 133.068C104.278 133.068 103.779 138.071 104.286 142.314C104.494 144.101 104.883 145.754 105.562 146.846V146.852Z" fill="url(#paint13_linear_8_800)"/>
<path fill-rule="evenodd" clip-rule="evenodd" d="M106.584 142.321H102.602L102.05 135.702L101.081 141.525L97.5607 141.517L96.4024 136.506V140.947H92.0681L90.24 134.219V140.838H85.8686L84.9823 134.906L84.395 140.612L78.857 140.133L77.7791 135.474V140.612H72.7564L71.9238 134.68L70.5841 140.947L65.8953 140.614L64.9637 135.025L64.2939 140.723L61.4064 140.84L60.2935 135.025V141.517L55.65 141.064V134.906L54.1208 141.515L50.2296 140.838L51.2621 135.023L49.3165 141.515H43.1438L42.1112 134.164L41.6578 141.515H38.9435L38.0119 136.078L36.9711 142.316L31.9216 141.513V136.728L30.3387 142.316L27.3152 141.513L26.6825 136.158L26.0498 142.316H22.4574V137.295L21.0188 141.513H19.1L19.3783 136.777C19.3783 136.761 19.3783 136.746 19.3783 136.73L15.8251 140.131L14.1598 139.463C14.1598 139.463 18.7929 134.785 17.9706 128.041H105.182C105.182 128.041 104.014 135.986 106.586 142.316L106.584 142.321Z" fill="url(#paint14_linear_8_800)"/>
<g style="mix-blend-mode:multiply" opacity="0.8">
<path fill-rule="evenodd" clip-rule="evenodd" d="M104.286 142.321C104.494 144.107 104.883 145.76 105.561 146.852L102.05 147.683C102.05 147.683 101.516 145.172 101.081 141.525L100.411 147.683H98.012L97.2164 143.99L96.4023 147.683H92.573L92.066 143.891L91.2704 148.252L86.2209 147.792L85.8685 143.521L84.3928 148.252H78.8549L78.014 143.99V149.046H74.5577L73.4344 143.891V149.959H68.2943V144.262L67.2349 149.959H61.3157V143.62L60.6376 149.959H57.3894L56.5197 144.262L56.0663 148.758L52.2287 148.649L52.3997 144.262L50.9055 148.586L45.7282 149.046L44.8688 143.521L44.6421 148.947L40.9137 149.073L40.2253 145.226L40.0543 144.259L38.9413 141.515L38.0098 136.078L37.4677 134.246L35.6664 128.179L35.9652 128.043H105.182C105.182 128.043 104.014 135.988 106.586 142.319H104.288L104.286 142.321Z" fill="#EC6D8E"/>
</g>
<path fill-rule="evenodd" clip-rule="evenodd" d="M106.26 122.064C106.26 122.064 105.217 127.379 106.619 133.074H103.047L102.054 128.045L102.328 133.109L98.1315 133.311L96.7589 128.045V133.995H90.9283L90.1286 128.045V133.574L86.7445 133.995L85.8994 128.045V134.68H81.1158L79.8133 128.045V134.68H76.7527L75.7242 128.045V135.184H71.1261L69.7432 128.047L68.8652 134.567L63.9497 134.339L62.9212 128.047L62.2349 133.882L57.3194 133.769L56.8618 128.047L56.2909 133.576L51.833 133.997L51.0333 128.049L49.6607 134.113L44.5164 133.999V128.051L43.6013 133.886L40.4747 133.58L38.9475 128.051V134.23H36.8577L34.3206 123.663L106.266 122.07L106.26 122.064Z" fill="url(#paint15_linear_8_800)"/>
<path fill-rule="evenodd" clip-rule="evenodd" d="M34.3144 123.655L17.1132 123.505L14.9017 133.574H17.4739L18.7888 128.538L18.4467 133.574H21.7608L23.2468 128.043L22.9046 133.574H27.309L27.8202 128.789L28.2777 133.574L30.3367 133.074L31.0786 128.043V133.574H34.3144V128.045L35.0729 133.574L36.8515 134.222L34.3144 123.655Z" fill="url(#paint16_linear_8_800)"/>
<path fill-rule="evenodd" clip-rule="evenodd" d="M106.996 117.982L107.961 128.043H104.189L103.327 122.127V126.684L97.672 126.03L95.7635 123.014V127.737L90.7263 127.35L89.7845 123.014V127.436L86.0107 127.607L85.6645 122.518L84.3908 127.607L76.7506 127.521L75.549 122.742L74.7762 127.521L68.4344 127.009L67.8347 122.064L67.2329 128.043L63.0325 127.436L62 123.042L61.4043 128.623H57.981V123.304L56.258 128.863L51.0292 128.045L50.3429 123.505V128.863H45.1986V124.527L43.997 128.863H40.1388L38.9434 123.929L38.5951 129.318H35.6602L33.558 121.116L106.996 117.982Z" fill="url(#paint17_linear_8_800)"/>
<path fill-rule="evenodd" clip-rule="evenodd" d="M33.2777 120.018H16.4598L13.3024 128.043L15.9899 128.623L16.9339 124.319L16.6165 128.623H20.5613L22.0472 123.505L21.7051 128.623H24.6111L25.3057 123.505L25.4768 128.623L30.0501 128.121L29.9924 123.014L30.7365 128.043L35.6602 129.318L33.2777 120.018Z" fill="url(#paint18_linear_8_800)"/>
<path fill-rule="evenodd" clip-rule="evenodd" d="M108.647 108.837L110.191 122.064L104.875 122.304L102.326 117.982V123.014H97.9007L96.8682 118.414V122.271L91.8414 122.588L90.9304 118.667L90.4687 123.014L85.6645 122.518L84.3908 118.482L83.6097 123.505L79.8112 123.651V119.142L78.8488 122.67L73.5499 122.064L72.8801 119.438V122.802L66.3611 123.651L65.6892 119.565L64.7473 122.983L60.3677 122.588V120.018L59.603 123.014L54.23 123.505L53.5931 120.26L53.0861 123.505L49.0857 123.651V120.454L48.0552 123.651H44.0547V120.668L42.9109 123.651L38.9434 123.929L38.0098 120.018V123.929L34.3144 123.655L31.0786 112.776L108.647 108.837Z" fill="url(#paint19_linear_8_800)"/>
<path fill-rule="evenodd" clip-rule="evenodd" d="M31.0786 112.776L14.9018 111.715L10.9487 123.655H14.1495L17.2451 117.228L15.8478 121.57H19.9327L21.0085 120.018V122.064L26.0436 121.57L27.309 120.018L26.7917 123.014L30.45 122.532L30.6788 119.738L31.9154 123.014L34.3144 123.655L31.0786 112.776Z" fill="url(#paint20_linear_8_800)"/>
<path fill-rule="evenodd" clip-rule="evenodd" d="M91.5652 102.413L104.533 103.088V104.57H99.2733C99.2733 104.57 108.076 107.878 111.734 106.737V108.839L106.586 107.704L108.127 111.717H104.533L103.733 109.133L103.505 112.955L97.5606 113.467L96.4168 109.817L96.3034 114.265L91.5672 114.949L89.43 109.361V114.949H84.3949L82.9089 110.146L83.6138 114.949H79.0404L77.5503 110.418V114.949H72.6389L71.8433 110.708V115.406H67.237V110.942L65.8932 116.385H60.3697L59.605 111.329V117.686H55.0317L53.5951 111.633V117.686L49.3144 117.982L47.9273 111.921V117.982H43.1396L40.4706 112.951L40.6953 118.595H36.396L35.6602 112.542L35.0728 116.999L31.9153 116.383L29.6874 108.092L30.5942 117.277L28.1643 116.847L30.5283 100.914L91.5652 102.411V102.413Z" fill="url(#paint21_linear_8_800)"/>
<path fill-rule="evenodd" clip-rule="evenodd" d="M30.5263 100.914L15.5139 100.637L10.9487 112.951H13.5023L14.9018 108.837L14.1495 113.989H18.4467L20.4253 109.264V115.118H22.3482L23.4199 109.805L24.2711 115.118H25.8189L26.6784 110.327V115.708L28.1644 116.847L30.5263 100.914Z" fill="url(#paint22_linear_8_800)"/>
<path fill-rule="evenodd" clip-rule="evenodd" d="M74.6154 96.0373C74.6154 96.0373 85.8974 99.4381 92.4123 98.1263L93.2119 99.6643H87.1526C87.1526 99.6643 94.2404 102.173 97.3278 101.49V103.314H91.4972L92.5256 106.279L85.9696 107.077L84.8648 103.768L84.9782 107.876L81.1097 108.092L79.8071 103.883V108.092H74.5474L71.831 102.629L72.6307 107.702H66.8001L63.9415 102.973L64.5124 107.878L60.3615 107.702V103.314L59.0239 108.092H52.9645V102.514L51.4785 108.092L45.7221 107.876V102.064L43.7044 108.092L38.9352 108.837L40.4624 103.427L37.4162 108.837L32.9583 108.092L34.3082 103.427L31.0724 108.092H29.6792L31.0724 93.0477L74.6093 96.0352L74.6154 96.0373Z" fill="url(#paint23_linear_8_800)"/>
<path fill-rule="evenodd" clip-rule="evenodd" d="M31.0786 93.0498H17.4615L12.5006 104.912H14.9017L16.7319 101.716L16.0456 104.912H20.7364L21.7896 100.914V104.912H24.0485L25.8189 100.943L24.6111 107.702L29.6853 108.092L31.0786 93.0498Z" fill="url(#paint24_linear_8_800)"/>
<path fill-rule="evenodd" clip-rule="evenodd" d="M73.554 84.6217C73.554 84.6217 77.5132 95.4493 80.0296 98.0729L77.4513 98.8048L74.3371 93.0477L75.8355 98.8645L72.3792 100.226L71.122 95.7967L70.6314 99.8905L65.887 100.462L65.0997 95.3835L64.6298 100.462L59.3701 100.006L58.6879 94.9434L57.9789 100.462H53.8836V94.6124L52.0535 100.462L47.5955 100.006V94.1827L45.5386 100.462L40.4685 100.119L39.7142 93.6399L38.5641 100.004H34.7018L35.0707 93.0456L32.7335 99.7753L28.1602 99.3189L32.1523 87.0007L73.5498 84.6197L73.554 84.6217Z" fill="url(#paint25_linear_8_800)"/>
<path fill-rule="evenodd" clip-rule="evenodd" d="M32.1545 87.0027H18.828L14.9017 95.8995H17.7294L19.5514 92.6077L17.7294 97.3841L20.7365 98.1263L22.3482 92.6077L21.7896 98.1263L25.1903 97.6123L25.821 92.6077V98.9796L28.1643 99.323L32.1545 87.0027Z" fill="url(#paint26_linear_8_800)"/>
<path fill-rule="evenodd" clip-rule="evenodd" d="M72.4678 72.9491L76.1694 91.1006H72.979L70.6356 85.0823L69.2052 92.0238L67.2329 92.5439L64.6319 84.6217L65.4336 93.1628L62.3194 93.6193V85.2694L61.4043 93.6193H55.2955L54.096 86.5483L53.0861 93.0498H46.0415L46.6887 86.1679L44.5349 93.0498H40.4706V86.5257L36.2435 92.5439L33.0798 91.9086L33.7764 86.9102L31.3651 92.0238L28.1643 91.6804L33.558 75.9408L72.4678 72.9491Z" fill="url(#paint27_linear_8_800)"/>
<path fill-rule="evenodd" clip-rule="evenodd" d="M33.558 75.9408L21.027 77.2711L16.8452 89.9121H19.0752L21.4186 87.0623L20.7364 90.8826L24.6111 90.5968L25.8209 87.3461L25.2026 91.3391L28.1643 91.6804L33.558 75.9408Z" fill="url(#paint28_linear_8_800)"/>
<path fill-rule="evenodd" clip-rule="evenodd" d="M34.5184 66.8116L71.7382 65.1153L74.7762 78.8214L71.1241 80.3717L69.2053 74.7051L69.7411 80.3717L63.2613 81.5108L61.4043 76.3972L60.8602 81.5108L55.2955 82.3291L54.6463 77.2711L53.5931 83.2852L48.3993 83.8116L48.2839 78.3978L47.0329 83.8116L41.3115 84.6217V78.3978L38.9434 84.6217L36.1652 85.0823L36.8515 78.3978L34.3144 84.6217L30.5262 84.7883L34.5184 66.8116Z" fill="url(#paint29_linear_8_800)"/>
<path fill-rule="evenodd" clip-rule="evenodd" d="M34.5184 66.8116L22.6305 68.0864L16.3877 82.3559H19.3452L21.7896 76.5412V81.5108L24.6111 81.3957L26.6783 75.9408L25.8766 82.0146H27.309L30.0213 77.2711L29.2505 84.2393L30.5262 84.7883L34.5184 66.8116Z" fill="url(#paint30_linear_8_800)"/>
<path fill-rule="evenodd" clip-rule="evenodd" d="M35.0728 62.0723L69.7411 49.7684L77.6657 65.1153L74.7762 67.4572L71.1735 59.0559L74.5515 71.3454L69.2053 71.4461L65.0626 66.0221V72.9491H57.981L56.3693 66.0221L55.2955 72.9491H49.5411L47.8862 66.8116V73.5536H45.5284L43.6075 66.3983L42.6821 73.5536L36.8515 74.7051L36.2435 68.4133L34.7039 74.7051H30.5262L35.0728 62.0723Z" fill="url(#paint31_linear_8_800)"/>
<path fill-rule="evenodd" clip-rule="evenodd" d="M35.0729 62.0723L24.2711 62.9214L18.3313 72.9491L21.0003 73.5454L23.5292 70.124L21.7897 73.897L25.821 72.9491L28.1644 69.4414L26.7031 73.897L30.5263 74.7051L35.0729 62.0723Z" fill="url(#paint32_linear_8_800)"/>
<g style="mix-blend-mode:multiply" opacity="0.8">
<path fill-rule="evenodd" clip-rule="evenodd" d="M42.7687 167.796L51.3528 167.335L51.0622 170.311H43.5271L42.7687 167.796Z" fill="#DE8BE1"/>
</g>
<g style="mix-blend-mode:multiply" opacity="0.8">
<path fill-rule="evenodd" clip-rule="evenodd" d="M36.666 167.335H28.0901L28.8753 169.94H36.4125L36.666 167.335Z" fill="#DE8BE1"/>
</g>
<g style="mix-blend-mode:multiply" opacity="0.8">
<path fill-rule="evenodd" clip-rule="evenodd" d="M76.7053 166.589H85.4358L85.1431 169.579H77.608L76.7053 166.589Z" fill="#DE8BE1"/>
</g>
<g style="mix-blend-mode:multiply" opacity="0.8">
<path fill-rule="evenodd" clip-rule="evenodd" d="M91.2437 166.589L100.18 165.976L99.7948 169.949H92.2597L91.2437 166.589Z" fill="#DE8BE1"/>
</g>
<path fill-rule="evenodd" clip-rule="evenodd" d="M42.7625 60.5404C42.7625 64.5067 40.6025 67.7225 37.9376 67.7225C35.2727 67.7225 33.1128 64.5067 33.1128 60.5404C33.1128 56.5742 35.2727 53.3584 37.9376 53.3584C40.6025 53.3584 42.7625 56.5742 42.7625 60.5404Z" fill="url(#paint33_linear_8_800)"/>
<path d="M39.1393 67.7225C41.804 67.7225 43.9641 64.507 43.9641 60.5404C43.9641 56.5739 41.804 53.3584 39.1393 53.3584C36.4746 53.3584 34.3145 56.5739 34.3145 60.5404C34.3145 64.507 36.4746 67.7225 39.1393 67.7225Z" fill="#729CFF"/>
<path fill-rule="evenodd" clip-rule="evenodd" d="M43.6075 63.2422C43.6075 63.2422 55.9468 82.6129 79.8112 86.3756L78.6385 91.6783C78.6385 91.6783 62.4513 89.6777 42.7645 65.2736L43.6095 63.2422H43.6075Z" fill="#692F4B"/>
<path fill-rule="evenodd" clip-rule="evenodd" d="M79.8112 86.3776L74.7761 83.2852L75.0008 85.3763L79.8112 86.3776Z" fill="#541131"/>
<path fill-rule="evenodd" clip-rule="evenodd" d="M57.5358 8.25125V13.7966L65.0626 11.539L68.4633 17.8451L69.6689 8.91332L67.9191 4.47827L61.6598 7.15534L61.2868 4.29322L57.5358 8.25125Z" fill="url(#paint34_linear_8_800)"/>
<path fill-rule="evenodd" clip-rule="evenodd" d="M61.2869 4.29322H60.0173L55.7902 8.61518H57.1916L61.2869 4.29322Z" fill="#FFDD24"/>
<path fill-rule="evenodd" clip-rule="evenodd" d="M47.8861 18.4332L50.5757 22.7654L56.5527 21.1678L60.4645 26.8057L67.7976 22.7654L68.117 26.2053L61.2868 29.5177L55.7901 23.851L50.5283 24.8236L45.5283 19.1096L47.8861 18.4332Z" fill="url(#paint35_linear_8_800)"/>
<path fill-rule="evenodd" clip-rule="evenodd" d="M35.6643 54.2076L28.1643 27.6343L31.0786 26.2752L36.8515 53.5496L35.6643 54.2076Z" fill="#692F4B"/>
<path fill-rule="evenodd" clip-rule="evenodd" d="M28.1643 27.6343L9.84399 28.7693L14.6977 27.4801L31.0786 26.2752L28.1643 27.6343Z" fill="#996F6B"/>
<g style="mix-blend-mode:soft-light" opacity="0.5">
<g style="mix-blend-mode:soft-light">
<path fill-rule="evenodd" clip-rule="evenodd" d="M64.7472 122.983L66.3342 117.982L60.7901 118.597L60.3676 122.588L64.7472 122.983Z" fill="white"/>
</g>
<g style="mix-blend-mode:soft-light">
<path fill-rule="evenodd" clip-rule="evenodd" d="M67.2328 115.404V109.756H71.5506L71.8392 115.404H67.2328Z" fill="white"/>
</g>
<g style="mix-blend-mode:soft-light">
<path fill-rule="evenodd" clip-rule="evenodd" d="M73.5498 122.064L72.5276 116.383H80.0276L78.8487 122.67L73.5498 122.064Z" fill="white"/>
</g>
<g style="mix-blend-mode:soft-light">
<path fill-rule="evenodd" clip-rule="evenodd" d="M49.3124 117.982L47.6409 109.756L53.5106 110.124L53.5931 117.686L49.3124 117.982Z" fill="white"/>
</g>
<g style="mix-blend-mode:soft-light">
<path fill-rule="evenodd" clip-rule="evenodd" d="M46.0106 108.092L46.5011 100.464L52.6904 101.459L51.4847 108.092H46.0106Z" fill="white"/>
</g>
<g style="mix-blend-mode:soft-light">
<path fill-rule="evenodd" clip-rule="evenodd" d="M55.2955 93.6193L54.0959 84.375L62.3194 85.2694L61.4043 93.6193H55.2955Z" fill="white"/>
</g>
<g style="mix-blend-mode:soft-light">
<path fill-rule="evenodd" clip-rule="evenodd" d="M74.5514 108.092L70.9529 100.943L79.2649 100.914L79.8111 108.092H74.5514Z" fill="white"/>
</g>
<g style="mix-blend-mode:soft-light">
<path fill-rule="evenodd" clip-rule="evenodd" d="M18.4466 113.989L21.2331 107.529L16.3877 108.103L14.1494 113.989H18.4466Z" fill="white"/>
</g>
<g style="mix-blend-mode:soft-light">
<path fill-rule="evenodd" clip-rule="evenodd" d="M20.7364 104.912L21.7896 99.323L18.3312 98.5684L16.0455 104.912H20.7364Z" fill="white"/>
</g>
<g style="mix-blend-mode:soft-light">
<path fill-rule="evenodd" clip-rule="evenodd" d="M32.9644 108.092L35.0728 101.424H41.7731L37.4244 108.837L32.9644 108.092Z" fill="white"/>
</g>
<g style="mix-blend-mode:soft-light">
<path fill-rule="evenodd" clip-rule="evenodd" d="M36.196 84.7883L37.3688 75.6488L42.4224 75.2602L38.9434 84.6217L36.196 84.7883Z" fill="white"/>
</g>
<g style="mix-blend-mode:soft-light">
<path fill-rule="evenodd" clip-rule="evenodd" d="M50.2274 140.838L51.2579 135.023L55.6479 134.906L54.1186 141.517L50.2274 140.838Z" fill="white"/>
</g>
<g style="mix-blend-mode:soft-light">
<path fill-rule="evenodd" clip-rule="evenodd" d="M57.3853 149.959L56.2806 141.517L61.4043 142.703L60.6356 149.959H57.3853Z" fill="white"/>
</g>
<g style="mix-blend-mode:soft-light">
<path fill-rule="evenodd" clip-rule="evenodd" d="M63.9476 134.337L62.9171 128.045L69.7411 128.956L68.8631 134.565L63.9476 134.337Z" fill="white"/>
</g>
<g style="mix-blend-mode:soft-light">
<path fill-rule="evenodd" clip-rule="evenodd" d="M91.5651 114.947L89.4258 109.359L96.5445 107.878L96.2993 114.263L91.5651 114.947Z" fill="white"/>
</g>
</g>
<g style="mix-blend-mode:multiply" opacity="0.68">
<g style="mix-blend-mode:multiply">
<path fill-rule="evenodd" clip-rule="evenodd" d="M85.8686 140.838L85.1349 135.766H90.24V140.838H85.8686Z" fill="#E08BB8"/>
</g>
<g style="mix-blend-mode:multiply">
<path fill-rule="evenodd" clip-rule="evenodd" d="M85.4358 134.222L85.8974 128.043L79.8113 128.623L81.6559 134.222H85.4358Z" fill="#E08BB8"/>
</g>
<g style="mix-blend-mode:multiply">
<path fill-rule="evenodd" clip-rule="evenodd" d="M34.704 100.006L34.9142 93.5062L39.6236 94.1559L38.5663 100.006H34.704Z" fill="#E08BB8"/>
</g>
<g style="mix-blend-mode:multiply">
<path fill-rule="evenodd" clip-rule="evenodd" d="M40.4707 93.0498L40.6954 85.0823L47.033 84.8314L44.535 93.0498H40.4707Z" fill="#E08BB8"/>
</g>
<g style="mix-blend-mode:multiply">
<path fill-rule="evenodd" clip-rule="evenodd" d="M47.033 83.8116L48.7828 75.2602L42.4225 75.9408L41.3116 84.6217L47.033 83.8116Z" fill="#E08BB8"/>
</g>
<g style="mix-blend-mode:multiply">
<path fill-rule="evenodd" clip-rule="evenodd" d="M55.0297 117.686L53.5931 111.633H59.6505L59.6031 117.686H55.0297Z" fill="#E08BB8"/>
</g>
<g style="mix-blend-mode:multiply">
<path fill-rule="evenodd" clip-rule="evenodd" d="M57.981 72.9491L55.2955 61.1737L65.1389 59.8866L65.0627 72.9491H57.981Z" fill="#E08BB8"/>
</g>
<g style="mix-blend-mode:multiply">
<path fill-rule="evenodd" clip-rule="evenodd" d="M71.1242 80.3717L68.5624 71.6908L73.1255 71.3721L74.7763 78.8214L71.1242 80.3717Z" fill="#E08BB8"/>
</g>
</g>
</g>
<defs>
<linearGradient id="paint0_linear_8_800" x1="23.5332" y1="67.7225" x2="23.5332" y2="53.3584" gradientUnits="userSpaceOnUse">
<stop stop-color="#52BAFF"/>
<stop offset="0.28" stop-color="#58C8FF"/>
<stop offset="0.81" stop-color="#6AEFFF"/>
<stop offset="1" stop-color="#72FFFF"/>
</linearGradient>
<linearGradient id="paint1_linear_8_800" x1="115.275" y1="109.131" x2="115.275" y2="77.8838" gradientUnits="userSpaceOnUse">
<stop stop-color="#C031FF"/>
<stop offset="0.68" stop-color="#7C09FF"/>
</linearGradient>
<linearGradient id="paint2_linear_8_800" x1="116.19" y1="111.715" x2="116.19" y2="98.1263" gradientUnits="userSpaceOnUse">
<stop stop-color="#C031FF"/>
<stop offset="0.68" stop-color="#7C09FF"/>
</linearGradient>
<linearGradient id="paint3_linear_8_800" x1="121.11" y1="108.993" x2="121.11" y2="85.0823" gradientUnits="userSpaceOnUse">
<stop stop-color="#FF7C00"/>
<stop offset="0.68" stop-color="#FF2874"/>
</linearGradient>
<linearGradient id="paint4_linear_8_800" x1="106.12" y1="108.993" x2="106.12" y2="81.5108" gradientUnits="userSpaceOnUse">
<stop stop-color="#FFAA00"/>
<stop offset="1" stop-color="#FF652F"/>
</linearGradient>
<linearGradient id="paint5_linear_8_800" x1="81.1138" y1="169.579" x2="81.1138" y2="143.573" gradientUnits="userSpaceOnUse">
<stop stop-color="#FF5F00"/>
<stop offset="1" stop-color="#C50036"/>
</linearGradient>
<linearGradient id="paint6_linear_8_800" x1="32.3811" y1="169.94" x2="32.3811" y2="143.935" gradientUnits="userSpaceOnUse">
<stop stop-color="#FF5F00"/>
<stop offset="1" stop-color="#C50036"/>
</linearGradient>
<linearGradient id="paint7_linear_8_800" x1="46.934" y1="26.2053" x2="46.934" y2="2.9444" gradientUnits="userSpaceOnUse">
<stop stop-color="#FF5F00"/>
<stop offset="1" stop-color="#C50036"/>
</linearGradient>
<linearGradient id="paint8_linear_8_800" x1="67.2328" y1="144.356" x2="67.2328" y2="18.4332" gradientUnits="userSpaceOnUse">
<stop stop-color="#C50036"/>
<stop offset="1" stop-color="#FF5F00"/>
</linearGradient>
<linearGradient id="paint9_linear_8_800" x1="44.535" y1="45.2018" x2="44.535" y2="23.851" gradientUnits="userSpaceOnUse">
<stop offset="0.02" stop-color="#FFCEC7"/>
<stop offset="1" stop-color="#FFE9F5"/>
</linearGradient>
<linearGradient id="paint10_linear_8_800" x1="59.2464" y1="22.7654" x2="59.2464" y2="0.310514" gradientUnits="userSpaceOnUse">
<stop stop-color="#FF5F00"/>
<stop offset="1" stop-color="#C50036"/>
</linearGradient>
<linearGradient id="paint11_linear_8_800" x1="47.0328" y1="170.311" x2="47.0328" y2="144.305" gradientUnits="userSpaceOnUse">
<stop stop-color="#FF5F00"/>
<stop offset="1" stop-color="#C50036"/>
</linearGradient>
<linearGradient id="paint12_linear_8_800" x1="95.7634" y1="169.949" x2="95.7634" y2="143.943" gradientUnits="userSpaceOnUse">
<stop stop-color="#FF5F00"/>
<stop offset="1" stop-color="#C50036"/>
</linearGradient>
<linearGradient id="paint13_linear_8_800" x1="61.4044" y1="149.959" x2="61.4044" y2="133.074" gradientUnits="userSpaceOnUse">
<stop stop-color="#C031FF"/>
<stop offset="0.68" stop-color="#7C09FF"/>
</linearGradient>
<linearGradient id="paint14_linear_8_800" x1="60.3677" y1="142.321" x2="60.3677" y2="128.045" gradientUnits="userSpaceOnUse">
<stop stop-color="#FF3179"/>
<stop offset="0.68" stop-color="#B5097C"/>
</linearGradient>
<linearGradient id="paint15_linear_8_800" x1="70.4666" y1="135.182" x2="70.4666" y2="122.064" gradientUnits="userSpaceOnUse">
<stop stop-color="#FF7C00"/>
<stop offset="0.68" stop-color="#FF2874"/>
</linearGradient>
<linearGradient id="paint16_linear_8_800" x1="25.8766" y1="134.222" x2="25.8766" y2="123.505" gradientUnits="userSpaceOnUse">
<stop stop-color="#FFAA00"/>
<stop offset="1" stop-color="#FF652F"/>
</linearGradient>
<linearGradient id="paint17_linear_8_800" x1="70.7593" y1="129.318" x2="70.7593" y2="117.982" gradientUnits="userSpaceOnUse">
<stop stop-color="#C031FF"/>
<stop offset="0.68" stop-color="#7C09FF"/>
</linearGradient>
<linearGradient id="paint18_linear_8_800" x1="24.4813" y1="129.318" x2="24.4813" y2="120.018" gradientUnits="userSpaceOnUse">
<stop stop-color="#F431FF"/>
<stop offset="1" stop-color="#B009FF"/>
</linearGradient>
<linearGradient id="paint19_linear_8_800" x1="70.6356" y1="123.929" x2="70.6356" y2="108.837" gradientUnits="userSpaceOnUse">
<stop stop-color="#FF3179"/>
<stop offset="0.68" stop-color="#B5097C"/>
</linearGradient>
<linearGradient id="paint20_linear_8_800" x1="22.6305" y1="123.655" x2="22.6305" y2="111.715" gradientUnits="userSpaceOnUse">
<stop stop-color="#FF519F"/>
<stop offset="1" stop-color="#D8097C"/>
</linearGradient>
<linearGradient id="paint21_linear_8_800" x1="69.9493" y1="118.597" x2="69.9493" y2="100.914" gradientUnits="userSpaceOnUse">
<stop stop-color="#FF7C00"/>
<stop offset="0.68" stop-color="#FF2874"/>
</linearGradient>
<linearGradient id="paint22_linear_8_800" x1="20.7365" y1="116.847" x2="20.7365" y2="100.637" gradientUnits="userSpaceOnUse">
<stop stop-color="#FFAA00"/>
<stop offset="1" stop-color="#FF652F"/>
</linearGradient>
<linearGradient id="paint23_linear_8_800" x1="63.5086" y1="108.837" x2="63.5086" y2="93.0498" gradientUnits="userSpaceOnUse">
<stop stop-color="#C031FF"/>
<stop offset="0.68" stop-color="#7C09FF"/>
</linearGradient>
<linearGradient id="paint24_linear_8_800" x1="21.7896" y1="108.092" x2="21.7896" y2="93.0498" gradientUnits="userSpaceOnUse">
<stop stop-color="#F431FF"/>
<stop offset="1" stop-color="#B009FF"/>
</linearGradient>
<linearGradient id="paint25_linear_8_800" x1="54.0959" y1="100.464" x2="54.0959" y2="84.6217" gradientUnits="userSpaceOnUse">
<stop stop-color="#FF3179"/>
<stop offset="0.68" stop-color="#B5097C"/>
</linearGradient>
<linearGradient id="paint26_linear_8_800" x1="23.5291" y1="99.323" x2="23.5291" y2="87.0027" gradientUnits="userSpaceOnUse">
<stop stop-color="#FF519F"/>
<stop offset="1" stop-color="#D8097C"/>
</linearGradient>
<linearGradient id="paint27_linear_8_800" x1="52.1669" y1="93.6193" x2="52.1669" y2="72.9491" gradientUnits="userSpaceOnUse">
<stop stop-color="#FF7C00"/>
<stop offset="0.68" stop-color="#FF2874"/>
</linearGradient>
<linearGradient id="paint28_linear_8_800" x1="25.2026" y1="91.6804" x2="25.2026" y2="75.9408" gradientUnits="userSpaceOnUse">
<stop stop-color="#FFAA00"/>
<stop offset="1" stop-color="#FF652F"/>
</linearGradient>
<linearGradient id="paint29_linear_8_800" x1="52.6512" y1="85.0823" x2="52.6512" y2="65.1153" gradientUnits="userSpaceOnUse">
<stop stop-color="#C031FF"/>
<stop offset="0.68" stop-color="#7C09FF"/>
</linearGradient>
<linearGradient id="paint30_linear_8_800" x1="25.4541" y1="84.7883" x2="25.4541" y2="66.8116" gradientUnits="userSpaceOnUse">
<stop stop-color="#F431FF"/>
<stop offset="1" stop-color="#B009FF"/>
</linearGradient>
<linearGradient id="paint31_linear_8_800" x1="54.096" y1="74.7051" x2="54.096" y2="49.7684" gradientUnits="userSpaceOnUse">
<stop stop-color="#FF7C00"/>
<stop offset="0.68" stop-color="#FF2874"/>
</linearGradient>
<linearGradient id="paint32_linear_8_800" x1="26.7031" y1="74.7051" x2="26.7031" y2="62.0723" gradientUnits="userSpaceOnUse">
<stop stop-color="#FFAA00"/>
<stop offset="1" stop-color="#FF652F"/>
</linearGradient>
<linearGradient id="paint33_linear_8_800" x1="37.9376" y1="0.310527" x2="37.9376" y2="0.310527" gradientUnits="userSpaceOnUse">
<stop stop-color="#52BAFF"/>
<stop offset="0.28" stop-color="#58C8FF"/>
<stop offset="0.81" stop-color="#6AEFFF"/>
<stop offset="1" stop-color="#72FFFF"/>
</linearGradient>
<linearGradient id="paint34_linear_8_800" x1="63.6013" y1="17.8451" x2="63.6013" y2="4.29322" gradientUnits="userSpaceOnUse">
<stop stop-color="#FFAA00"/>
<stop offset="1" stop-color="#FF652F"/>
</linearGradient>
<linearGradient id="paint35_linear_8_800" x1="56.8227" y1="29.5177" x2="56.8227" y2="18.4332" gradientUnits="userSpaceOnUse">
<stop stop-color="#FFAA00"/>
<stop offset="1" stop-color="#FF652F"/>
</linearGradient>
<clipPath id="clip0_8_800">
<rect width="136" height="170" fill="white" transform="translate(0.656006 0.310501)"/>
</clipPath>
</defs>
</svg>
