<svg width="118" height="138" viewBox="0 0 118 138" fill="none" xmlns="http://www.w3.org/2000/svg">
<g clip-path="url(#clip0_9_2744)">
<path fill-rule="evenodd" clip-rule="evenodd" d="M101.42 37.8169C101.42 37.8169 126.764 75.3083 112.786 88.8792C98.808 102.45 81.8756 93.4721 81.8756 93.4721L82.0383 95.7457C82.0383 95.7457 104.967 103.503 115.267 89.9748C125.566 76.4483 103.437 35.9525 103.437 35.9525L101.421 37.8156L101.42 37.8169Z" fill="#692F4B"/>
<path fill-rule="evenodd" clip-rule="evenodd" d="M26.6859 86.9299C26.6859 86.9299 16.7181 92.1451 12.1771 102.336C11.1712 104.593 9.85425 126.384 9.85425 126.384L15.8905 129.647C15.8905 129.647 15.6929 107.846 16.7181 104.154C19.1158 95.5143 26.6859 88.1471 26.6859 88.1471V86.9299Z" fill="url(#paint0_linear_9_2744)"/>
<path fill-rule="evenodd" clip-rule="evenodd" d="M26.6858 84.6824C26.6858 84.6824 18.4391 96.6152 18.27 103.499C18.1009 110.382 18.27 125.491 18.27 125.491L22.4405 124.955C22.4405 124.955 19.8672 108.774 20.3966 103.053C20.9259 97.3316 27.1068 85.9781 27.1068 85.9781L26.6858 84.6824Z" fill="url(#paint1_linear_9_2744)"/>
<path fill-rule="evenodd" clip-rule="evenodd" d="M27.4606 91.162C27.4606 91.162 22.0751 90.0075 16.2481 93.446C10.421 96.8832 12.5618 120.966 12.5618 120.966L17.4811 119.47C17.4811 119.47 13.596 99.2666 17.0099 95.3326C20.4237 91.3986 27.4606 91.8758 27.4606 91.8758V91.1606V91.162Z" fill="url(#paint2_linear_9_2744)"/>
<path fill-rule="evenodd" clip-rule="evenodd" d="M28.3425 89.2845C28.3425 89.2845 19.8634 86.4239 14.8317 89.2845C9.79869 92.1451 1.05876 105.941 0 117.087L2.82895 122.629C2.82895 122.629 6.41324 102.402 12.1783 97.0388C18.7116 90.9593 27.7679 90.0886 27.7679 90.0886L28.3438 89.2845H28.3425Z" fill="url(#paint3_linear_9_2744)"/>
<path fill-rule="evenodd" clip-rule="evenodd" d="M30.6136 88.1471C30.6136 88.1471 19.4231 82.0924 2.82507 88.1471L7.06269 93.0708C7.06269 93.0708 17.068 85.459 29.2256 89.2636L30.6136 88.1471Z" fill="url(#paint4_linear_9_2744)"/>
<path fill-rule="evenodd" clip-rule="evenodd" d="M31.8829 124.611L25.0216 138H33.9074L38.9211 124.611H31.8829Z" fill="url(#paint5_linear_9_2744)"/>
<path fill-rule="evenodd" clip-rule="evenodd" d="M38.921 138L41.0772 124.611H38.921L33.9073 138H38.921Z" fill="#9DB8FF"/>
<path fill-rule="evenodd" clip-rule="evenodd" d="M58.286 124.611L53.7798 138H62.6656L65.3254 124.611H58.286Z" fill="url(#paint6_linear_9_2744)"/>
<path fill-rule="evenodd" clip-rule="evenodd" d="M67.6793 138L67.4817 124.611H65.3255L62.6656 138H67.6793Z" fill="#9DB8FF"/>
<path fill-rule="evenodd" clip-rule="evenodd" d="M82.2216 124.611L78.1067 138H86.9925L89.2598 124.611H82.2216Z" fill="url(#paint7_linear_9_2744)"/>
<path fill-rule="evenodd" clip-rule="evenodd" d="M91.1191 138L91.4161 124.611H89.2598L86.9926 138H91.1191Z" fill="#9DB8FF"/>
<path fill-rule="evenodd" clip-rule="evenodd" d="M99.136 124.611L101.691 138H110.577L106.175 124.611H99.136Z" fill="url(#paint8_linear_9_2744)"/>
<path fill-rule="evenodd" clip-rule="evenodd" d="M114.704 138L108.332 124.611H106.175L110.577 138H114.704Z" fill="#9DB8FF"/>
<g style="mix-blend-mode:multiply" opacity="0.8">
<path fill-rule="evenodd" clip-rule="evenodd" d="M110.439 129.04L108.155 130.634L110.577 138H101.691L99.136 124.611H108.332L110.439 129.04Z" fill="#B18BE1"/>
</g>
<g style="mix-blend-mode:multiply" opacity="0.8">
<path fill-rule="evenodd" clip-rule="evenodd" d="M91.3476 127.705L88.5342 128.899L86.9925 138H78.1067L82.2216 124.611H91.4161L91.3476 127.705Z" fill="#B18BE1"/>
</g>
<g style="mix-blend-mode:multiply" opacity="0.8">
<path fill-rule="evenodd" clip-rule="evenodd" d="M67.5992 132.521L63.2776 134.922L62.6656 138H53.7798L58.286 124.611H67.4817L67.5992 132.521Z" fill="#B18BE1"/>
</g>
<g style="mix-blend-mode:multiply" opacity="0.8">
<path fill-rule="evenodd" clip-rule="evenodd" d="M40.4253 128.661L36.7054 130.531L33.9074 138H25.0216L31.8829 124.611H41.0773L40.4253 128.661Z" fill="#B18BE1"/>
</g>
<g style="mix-blend-mode:multiply" opacity="0.8">
<path fill-rule="evenodd" clip-rule="evenodd" d="M25.0216 138L26.2753 135.555L38.9211 136.778V138H25.0216Z" fill="#7C6583"/>
</g>
<g style="mix-blend-mode:multiply" opacity="0.8">
<path fill-rule="evenodd" clip-rule="evenodd" d="M54.1917 136.778H67.6792V138H53.7798L54.1917 136.778Z" fill="#7C6583"/>
</g>
<g style="mix-blend-mode:multiply" opacity="0.8">
<path fill-rule="evenodd" clip-rule="evenodd" d="M78.1067 138L78.6658 136.183L91.1656 135.937L91.1191 138H78.1067Z" fill="#7C6583"/>
</g>
<g style="mix-blend-mode:multiply" opacity="0.8">
<path fill-rule="evenodd" clip-rule="evenodd" d="M101.494 136.968L113.721 135.937L114.704 138H101.691L101.494 136.968Z" fill="#7C6583"/>
</g>
<path fill-rule="evenodd" clip-rule="evenodd" d="M86.5291 27.1301L90.9294 0.903422L92.7783 0.315086L94.7641 17.5533L86.5291 27.1301Z" fill="#FF9C27"/>
<path fill-rule="evenodd" clip-rule="evenodd" d="M96.4956 18.4031L95.1011 0.903422L92.7783 0.315086L94.3678 18.0148L96.4956 18.4031Z" fill="#FFE300"/>
<path fill-rule="evenodd" clip-rule="evenodd" d="M83.376 16.2302H90.8144C90.8144 16.2302 101.9 16.8369 107.367 26.5392L107.428 34.7915L99.9391 36.988L109.294 37.5737L105.145 43.4205L96.1908 40.6697L94.7266 43.4688L95.4949 80.7458L72.8168 81.4047L76.3494 29.1566L83.3772 16.2302H83.376Z" fill="url(#paint9_linear_9_2744)"/>
<path fill-rule="evenodd" clip-rule="evenodd" d="M76.3481 29.1579L81.9725 0.564802L83.7465 0L86.4051 16.2302L76.3481 29.1579Z" fill="#FF8B00"/>
<path fill-rule="evenodd" clip-rule="evenodd" d="M88.9216 16.2302L86.3018 0.602717L83.7466 0L86.0087 16.6917L88.9216 16.2302Z" fill="#FFE300"/>
<path fill-rule="evenodd" clip-rule="evenodd" d="M90.8145 16.2302L97.402 16.6917C97.402 16.6917 109.265 18.7797 112.247 26.7614L112.307 35.0648L107.427 34.7902L106.337 26.5771C106.337 26.5771 101.846 21.7436 90.8145 16.2302Z" fill="#FFE300"/>
<path fill-rule="evenodd" clip-rule="evenodd" d="M112.307 35.0648L101.606 37.2247L97.402 37.3371L107.428 34.7916L112.307 35.0648Z" fill="#FF7C27"/>
<path fill-rule="evenodd" clip-rule="evenodd" d="M97.402 37.3371L108.172 38.6876H114.582L105.478 36.4428L97.402 37.3371Z" fill="#FFE300"/>
<path fill-rule="evenodd" clip-rule="evenodd" d="M104.766 43.4689L111.137 42.6452L114.582 38.6876H108.172L104.766 43.4689Z" fill="#FF9027"/>
<path fill-rule="evenodd" clip-rule="evenodd" d="M99.9379 36.9867L108.266 38.0836L113.063 38.3137L113.765 36.8743H108.465L103.397 36.3604L99.9379 36.9867Z" fill="#FFD1C5"/>
<path fill-rule="evenodd" clip-rule="evenodd" d="M113.765 36.8743L108.434 35.8466L103.397 36.3604L107.26 36.8821L113.765 36.8743Z" fill="#FFE8E2"/>
<path fill-rule="evenodd" clip-rule="evenodd" d="M106.337 26.5784L112.247 26.7614C112.247 26.7614 111.179 19.7694 97.402 16.6917L90.8145 16.2302C90.8145 16.2302 99.1206 18.6895 106.337 26.5771V26.5784Z" fill="#FFFA0F"/>
<path fill-rule="evenodd" clip-rule="evenodd" d="M113.469 82.9475L99.389 43.4688L99.9378 41.8202L96.1895 40.6697L94.7253 43.4688L95.4936 80.7458L113.469 82.9475Z" fill="#FFE300"/>
<path fill-rule="evenodd" clip-rule="evenodd" d="M101.323 49.3457L94.9435 58.4126L94.7253 43.4688L96.1895 40.6697L99.9378 41.8202L99.389 43.4688L101.323 49.3457Z" fill="#FF9027"/>
<path fill-rule="evenodd" clip-rule="evenodd" d="M94.7254 28.2336C94.7254 31.8551 92.6324 36.0637 90.1095 36.0637C87.5866 36.0637 85.5891 31.8551 85.5891 28.2336C85.5891 24.612 87.6343 21.6756 90.1573 21.6756C92.6802 21.6756 94.7254 24.612 94.7254 28.2336Z" fill="url(#paint10_linear_9_2744)"/>
<path d="M90.1573 34.2254C92.4627 34.2254 94.3316 31.5428 94.3316 28.2336C94.3316 24.9244 92.4627 22.2417 90.1573 22.2417C87.8518 22.2417 85.9829 24.9244 85.9829 28.2336C85.9829 31.5428 87.8518 34.2254 90.1573 34.2254Z" fill="url(#paint11_linear_9_2744)"/>
<path fill-rule="evenodd" clip-rule="evenodd" d="M91.2974 27.8113C91.2974 28.8128 90.7654 29.6247 90.1095 29.6247C89.4536 29.6247 88.9216 28.8128 88.9216 27.8113C88.9216 26.8098 89.4536 25.9979 90.1095 25.9979C90.7654 25.9979 91.2974 26.8098 91.2974 27.8113Z" fill="url(#paint12_linear_9_2744)"/>
<path fill-rule="evenodd" clip-rule="evenodd" d="M107.773 33.5678L106.851 27.6217H109.074L108.888 33.5678H107.773Z" fill="#FF7C27"/>
<path fill-rule="evenodd" clip-rule="evenodd" d="M111.007 33.5678V27.6217H112.248L112.297 33.5678H111.007Z" fill="#FF7C27"/>
<path fill-rule="evenodd" clip-rule="evenodd" d="M106.946 28.2336H108.219V33.5678H107.773L106.946 28.2336Z" fill="#D03D1D"/>
<path fill-rule="evenodd" clip-rule="evenodd" d="M111.007 28.2336H111.508L111.378 33.5678H111.007V28.2336Z" fill="#D03D1D"/>
<path fill-rule="evenodd" clip-rule="evenodd" d="M96.1895 40.6697L101.531 22.6012H109.721C109.721 22.6012 110.41 23.2889 111.006 24.2211L103.397 24.0002L99.5337 41.747L96.1882 40.6697H96.1895Z" fill="#692F4B"/>
<path fill-rule="evenodd" clip-rule="evenodd" d="M94.7253 43.4689L74.9885 42.5994L75.2416 38.6876L96.1895 40.6697L94.7253 43.4689Z" fill="#692F4B"/>
<path fill-rule="evenodd" clip-rule="evenodd" d="M101.531 22.6012L103.397 24.0002L111.007 24.2211L109.721 22.6012H101.531Z" fill="#996F6B"/>
<path fill-rule="evenodd" clip-rule="evenodd" d="M94.7253 43.4688H99.389L99.9378 41.8202L96.1895 40.6697L94.7253 43.4688Z" fill="#541131"/>
<path fill-rule="evenodd" clip-rule="evenodd" d="M95.4936 80.7458L94.3315 124.611H32.54L24.9156 82.7984L95.4936 80.7458Z" fill="url(#paint13_linear_9_2744)"/>
<path fill-rule="evenodd" clip-rule="evenodd" d="M113.469 82.9475L111.007 124.611H94.3315L95.4936 80.7458L113.469 82.9475Z" fill="#FFE300"/>
<path fill-rule="evenodd" clip-rule="evenodd" d="M112.128 129.44H108.33L107.418 123.407V129.44H103.899V124.237L102.711 129.44H99.1373V123.642L98.001 129.44H95.4936L94.7253 122.689L94.3341 129.44H90.112V125.072L88.5832 129.44H85.2895L85.8769 125.132L84.4644 129.44H80.4618L80.0473 124.774L79.3436 129.44H76.516V125.072L75.2248 129.44H70.7522V125.072L69.1021 129.44H65.7476V124.657L64.9226 129.44H61.1575V124.774L60.202 129.44H56.508L56.8618 124.416L55.5061 129.44H51.8714V125L51.3394 129.44H47.9437V125L47.1044 129.648L43.0837 129.44V124.685L42.4678 129.44H38.4523V124.911L37.0397 129.44H33.4193V123.794L32.5387 129.44H29.2256L31.0616 119.278L31.3134 117.891H111.509L111.602 119.627L112.128 129.44Z" fill="url(#paint14_linear_9_2744)"/>
<path fill-rule="evenodd" clip-rule="evenodd" d="M111.007 111.813L115.57 123.434L110.439 124.611L109.214 121.415V124.239L105.241 123.881V118.875L104.357 123.702L102.414 123.792L101.494 119.59V123.792L98.0011 123.613V118.428L97.0301 123.524H93.8512L94.5239 117.357L92.5265 123.434L89.2598 122.898L89.2043 118.339L88.112 123.166L84.6362 123.077V118.607L83.6833 123.077L80.5199 123.255L79.5489 118.428L78.6658 123.166L74.1041 123.226V118.219L73.5166 123.106L69.514 123.226V118.339L68.2783 123.583L64.4526 123.345L64.7457 118.994L63.1575 123.166L59.5526 122.868L59.2724 119.173L58.5661 123.166H55.2698L56.0948 118.756L54.5635 123.047L50.8566 123.106V118.934L50.3259 123.166L47.6183 123.226L47.1483 118.637L46.6693 123.404L43.6751 123.345L44.5131 119.232L42.5569 123.524H38.6408V119.411L37.5627 123.613L34.1695 123.792V119.232L30.9919 122.362L27.4606 122.004L31.4335 112.796L111.007 111.813Z" fill="url(#paint15_linear_9_2744)"/>
<path fill-rule="evenodd" clip-rule="evenodd" d="M114.01 119.886L111.602 119.627L111.07 119.571L110.102 117.891L107.418 113.243V119.278H103.899V114.078L103.029 117.891L102.711 119.278H99.1373V113.479L98.2709 117.891L98.001 119.278H95.4936L95.3348 117.891L94.7253 112.526L94.4129 117.891L94.3341 119.278H90.112V114.914L89.0687 117.891L88.5832 119.278H85.2895L85.4806 117.891L85.8769 114.97L84.9215 117.891L84.4644 119.278H80.4618L80.3404 117.891L80.0473 114.612L79.5541 117.891L79.3436 119.278H76.516V114.914L75.6354 117.891L75.2248 119.278H70.7522V114.914L69.6289 117.891L69.1021 119.278H65.7476V114.494L65.1601 117.891L64.9226 119.278H61.1575V114.612L60.4861 117.891L60.202 119.278H56.508L56.6048 117.891L56.8618 114.257L55.8779 117.891L55.5061 119.278H51.8714V114.838L51.5073 117.891L51.3394 119.278H47.9437V114.838L47.3936 117.891L47.1044 119.486L43.0837 119.278V114.527L42.6499 117.891L42.4678 119.278H38.4523V114.749L37.4736 117.891L37.0397 119.278H33.4193V113.63L32.7531 117.891L32.5387 119.278H29.2256L30.3308 113.168L31.3134 107.732L48.4459 107.105L63.4041 106.553L64.3867 106.52L72.2938 106.227L74.7587 106.138L76.5624 106.072L79.8007 105.954L80.7187 105.916L84.2875 105.789L85.345 105.746L88.8918 105.619L90.0423 105.576L93.132 105.464L93.3218 105.453L94.0862 105.426L97.5762 105.298L98.1586 105.279L100.727 105.185L101.323 105.162L105.624 105.005L106.15 104.981L111.634 104.784L111.858 104.775L112.995 112.767L114.01 119.886Z" fill="url(#paint16_linear_9_2744)"/>
<path fill-rule="evenodd" clip-rule="evenodd" d="M117.185 113.055L112.995 112.767L111.742 113.055L110.511 109.861V112.687L106.542 112.328V107.322L106.505 107.52L105.656 112.149L103.713 112.239L102.795 108.034V112.239L99.3013 112.06V106.874L98.3317 111.969H95.1541L95.7222 106.728L95.8242 105.802L95.5221 106.718L93.8255 111.879L92.9307 111.734L90.5588 111.342L90.5033 106.784L89.4136 111.611L85.9377 111.521V107.054L84.9823 111.521L81.8176 111.7L80.8492 106.874L79.9686 111.611L75.4069 111.673V106.667L74.8143 111.554L70.8117 111.673V106.784L69.5773 112.031L65.7516 111.79L66.046 107.441L64.4565 111.611L60.8555 111.313L60.5701 107.62L59.8677 111.611H56.5726L57.3925 107.2L55.8651 111.492L52.1556 111.554V107.379L51.6249 111.611L48.9173 111.673L48.446 107.105L47.9709 111.852L44.9754 111.79L45.8133 107.676L43.8572 111.969H39.9424V107.855L38.8617 112.06L35.4698 112.239V107.676L32.2406 113.362L30.3309 113.168L27.7679 112.908L28.1075 106.874L28.4239 101.297L90.5588 100.528H90.5924L93.229 100.494L112.306 100.259L114.701 106.359H114.705L117.185 113.055Z" fill="url(#paint17_linear_9_2744)"/>
<path fill-rule="evenodd" clip-rule="evenodd" d="M114.705 106.359H114.701L112.306 106.45L111.597 101.358L111.635 104.784L111.653 106.464L106.542 107.638L106.523 107.643L106.505 107.52L106.15 104.981L105.889 103.142L105.624 105.005L105.298 107.271L101.323 106.911V101.905L100.727 105.185L100.443 106.732L98.4995 106.822L98.1586 105.279L97.5763 102.617V106.822L95.7222 106.728L95.5221 106.718L94.0863 106.643V101.458L93.3219 105.453L93.1128 106.553H89.9352L90.0424 105.576L90.5924 100.528L90.6066 100.386L90.5588 100.528L88.8919 105.619L88.6117 106.464L85.3451 105.925V105.746L85.2896 101.368L84.2876 105.789L84.1947 106.195L80.7188 106.104V101.637L79.8008 105.954L79.7685 106.104L76.6039 106.283L76.5625 106.072L75.6355 101.458L74.7588 106.138L74.7497 106.195L72.2939 106.227L70.188 106.256V101.25L69.6006 106.138L65.5979 106.256V101.368L64.3868 106.52L64.3636 106.614L63.4042 106.553L60.5378 106.374L60.8322 102.024L59.2428 106.195L55.6366 105.896L55.3564 102.203L54.6488 106.195H51.3538L52.1788 101.787L50.6462 106.077L46.9418 106.138V101.962L46.4099 106.195L43.7036 106.256L43.2323 101.664L42.752 106.435L39.7616 106.374L40.5957 102.264L38.6435 106.553H34.7248V102.444L33.6479 106.643L30.256 106.822V102.264L29.2257 106.987L28.1075 106.874L25.6943 106.633L27.0681 98.4795L27.5162 95.8242L28.3309 95.7771L28.7931 95.7536L33.3406 95.5025L33.8248 95.4751L38.2613 95.2345L38.4563 95.2241L43.1445 94.9652L43.3123 94.956L47.16 94.7429L47.244 94.739L51.9554 94.4788L52.1607 94.4697L56.4423 94.2344L56.5262 94.2291L61.0737 93.9794L61.1202 93.9742L85.4858 92.6393L89.7209 92.4027L90.0604 92.3844L90.1728 92.3791L90.8248 92.3425L93.4252 92.2L93.4717 92.1961L94.5059 92.1386L98.2568 91.9359L99.2729 91.8797L102.79 91.6862L103.542 91.6431L108.173 91.3894L109.622 91.3084L112.306 91.1619L112.627 93.2002L113.564 99.1319L114.705 106.359Z" fill="url(#paint18_linear_9_2744)"/>
<path fill-rule="evenodd" clip-rule="evenodd" d="M115.944 99.5582L113.564 99.1319L109.854 98.4795L108.88 92.6393L107.962 98.4795H103.704L102.79 92.4458V98.4795H99.2729V93.2813L98.0798 98.4795H94.5059V92.6812L93.3735 98.4795H90.8674L90.1727 92.3792L90.0978 91.7281L90.0604 92.3844L89.7014 98.4795H85.4858V94.1115L83.957 98.4795H80.6581L81.2494 94.1729L79.833 98.4795H75.8304L75.4211 93.8134L74.7122 98.4795H71.8885V94.1115L70.5934 98.4795H66.1195V94.1115L64.4758 98.4795H61.1201V93.6957L61.0736 93.9794L60.295 98.4795H56.5261V93.8134L56.4422 94.2344L55.5758 98.4795H51.8753L52.1607 94.4697L52.2304 93.4604L51.9554 94.4789L50.8785 98.4795H47.2439V94.0409L47.16 94.743L46.7132 98.4795H43.3123V94.0409L43.1444 94.9652L42.473 98.6874L38.4562 98.4795V93.7245L38.2612 95.2345L37.8416 98.4795H33.8248V93.9507L33.3406 95.5026L32.4084 98.4795H28.7931V92.8328L28.3308 95.7771L27.9125 98.4795H24.5994L25.6426 92.7099L26.6859 86.9299H113.106L113.582 93.3702L115.944 99.5582Z" fill="url(#paint19_linear_9_2744)"/>
<path fill-rule="evenodd" clip-rule="evenodd" d="M116.096 93.0708H113.56L112.627 93.2002L109.854 92.7099L109.622 91.3084L108.89 86.9299L108.88 86.8684L108.871 86.9299L108.173 91.3894L107.962 92.7099H103.704L103.541 91.6431L102.827 86.9299L102.79 86.6801V92.7099H99.2729V87.5104L98.2567 91.9359L98.0798 92.7099H94.5059V86.9299H94.5007L93.4716 92.1961L93.3735 92.7099H90.8674L90.8248 92.3425L90.2102 86.9299L90.0978 85.9624L90.0423 86.9299L89.7208 92.4027L89.7014 92.7099H85.4858V88.3458L83.957 92.7099H80.6581L81.2494 88.4072L79.833 92.7099H75.8304L75.4211 88.049L74.7122 92.7099H71.8885V88.3458L70.5934 92.7099H66.1195V88.3458L64.4759 92.7099H61.1201V87.93L60.295 92.7099H56.5261V88.049L55.5758 92.7099H51.8753L52.2304 87.6895L50.8785 92.7099H47.2439V88.27L46.7132 92.7099H43.3123V88.27L42.473 92.9217L38.4562 92.7099V87.9588L37.8416 92.7099H33.8248V88.185L32.4084 92.7099H28.7931V87.0671L27.9125 92.7099H23.1365L24.9157 82.7971L69.3074 81.5002L71.4456 81.4387L72.5366 81.4047L72.9653 79.6554L73.3372 78.1401L78.9473 77.7531L79.2326 77.7348L79.5206 77.7152L82.7691 77.489L83.5 77.4367L88.1275 77.1216L88.7563 77.0785L92.5588 76.8144L93.0197 76.7817L94.5433 76.6771L97.3297 76.4836L97.9029 76.447L101.868 76.1725L102.265 76.145L105.549 75.9175L107.389 77.5505L113.471 82.9475L116.096 93.0708Z" fill="url(#paint20_linear_9_2744)"/>
<path fill-rule="evenodd" clip-rule="evenodd" d="M115.954 80.2542L110.166 78.8056L115.57 82.9475H111.651L106.948 78.1689L109.673 82.9475L104.767 83.2979L101.561 79.1834L103.397 83.2979L98.1173 83.5332L96.8222 79.6502L97.3297 83.2979L94.3342 83.4482L92.6466 83.5332V79.6502L91.7621 83.5332H87.8202L87.2882 80.7445V83.5332H82.6981L81.9906 79.6502V83.5332H77.6948L77.3398 80.0176L76.3482 83.2364H71.8097L72.5366 81.4047L73.4676 79.0645L72.9653 79.6554L71.4456 81.4387L71.3849 81.5093H69.3022L69.3074 81.5002L72.4062 77.2341L73.4676 75.7672L75.4573 75.6822L79.5206 75.507L82.9835 75.3619L88.5278 75.1252L94.7396 74.8559L97.3297 74.7474L105.344 74.4035H105.372L106.612 74.3512L110.741 75.2978L116.425 79.2449L115.954 80.2542Z" fill="url(#paint21_linear_9_2744)"/>
<path fill-rule="evenodd" clip-rule="evenodd" d="M105.372 74.4035L105.297 74.3512L105.344 74.4035L107.962 77.5126L107.389 77.5505L102.827 77.8708L102.265 76.145L101.766 74.6062L101.868 76.1725L102.004 78.2303L98.648 78.6448L97.903 76.447L97.3297 74.7474V78.9429L94.3342 78.6448L93.1734 78.5271L93.0198 76.7817L92.861 74.9409L92.5588 76.8144L92.2928 78.4657H88.919L88.7563 77.0785L88.5278 75.1252L88.1275 77.1216L87.7595 78.9429H83.8731L83.5 77.4367L82.9835 75.3619L82.7692 77.489L82.6388 78.7677H79.5206V75.507L79.2327 77.7348L79.2275 77.7531H75.4573V75.6822L74.1067 77.7531L72.4062 77.2341L71.5721 76.9791L74.1067 70.2708L94.1108 68.4038L108.719 69.6263L114.093 77.255L108.581 77.0484L105.372 74.4035Z" fill="url(#paint22_linear_9_2744)"/>
<path fill-rule="evenodd" clip-rule="evenodd" d="M74.0705 62.8473L72.476 72.7235L76.7846 72.3601L77.1255 69.8106L77.6019 72.2228L80.6581 72.2921L81.0467 69.6236L81.4819 72.7235L84.5458 72.4293L85.2895 69.2275V72.4293L90.6066 72.2921L91.0533 69.0262L91.6266 72.7235H93.9416L94.1108 68.4038L94.7396 72.7235L99.9378 72.4293L98.9256 68.8065L100.545 72.2228L105.354 72.0855L104.475 69.6027L106.877 72.7235L110.595 72.2908L108.719 69.6263L105.653 61.03L74.0705 62.8473Z" fill="url(#paint23_linear_9_2744)"/>
<g style="mix-blend-mode:multiply" opacity="0.8">
<path fill-rule="evenodd" clip-rule="evenodd" d="M94.7254 43.4689L94.7396 74.8559L94.5433 76.6771L94.3342 78.6448V83.5332L93.9791 86.9299L93.4252 92.2L93.3735 92.7099L93.2664 98.4795L93.2289 100.494L93.1321 105.464L93.1127 106.553L92.9306 111.734L92.7163 117.891L92.6698 119.278L92.5252 123.434L92.8609 129.44H90.112V125.072L88.5833 129.44H85.2895L85.877 125.132L84.4645 129.44H80.4618L80.0474 124.774L79.3437 129.44H76.516V125.072L75.2248 129.44H70.7522V125.072L69.1021 129.44H65.7477V124.657L64.9226 129.44H61.1575V124.774L60.2021 129.44H56.508L56.8618 124.416L55.5061 129.44H51.8715V125L51.3395 129.44H47.9437V125L47.1045 129.648L43.0838 129.44V124.685L42.4679 129.44H38.4523V124.911L37.0398 129.44H33.4193V123.794L32.5388 129.44H29.2256L31.0617 119.278H29.2256L30.3309 113.168L27.7679 112.908L28.1075 106.874L25.6943 106.633L27.0681 98.4795H24.5994L25.6426 92.7099H23.1365L24.9157 82.7971L69.3074 81.5002L72.4062 77.2341L71.5721 76.9791L73.1796 72.7235H72.4759L74.0705 62.8473L74.9886 42.5994L94.7254 43.4689Z" fill="#EC939F"/>
</g>
<g style="mix-blend-mode:multiply" opacity="0.8">
<path fill-rule="evenodd" clip-rule="evenodd" d="M75.8652 33.3194L85.9828 20.8192L91.7247 16.6917L88.7601 15.9923L77.4779 23.4105L76.3481 29.1579L75.8652 33.3194Z" fill="#EC939F"/>
</g>
<path fill-rule="evenodd" clip-rule="evenodd" d="M78.1067 21.4965L74.3403 27.4347L76.3481 27.8113L78.813 23.4105L77.8097 27.2792L80.108 25.9979L80.8143 22.6012L81.3772 24.6539L83.7465 22.6012V19.6478L84.405 22.2417L86.334 20.0439L85.9828 17.3624L87.5245 18.4031L89.407 17.3624L88.9215 16.2302L92.7782 15.753L91.0532 15.1568L88.9215 15.5739L85.9041 15.9204L77.9207 21.1631L73.6044 24.5218L74.0757 24.8722L78.1067 21.4965Z" fill="url(#paint24_linear_9_2744)"/>
<g style="mix-blend-mode:soft-light" opacity="0.5">
<g style="mix-blend-mode:soft-light">
<path fill-rule="evenodd" clip-rule="evenodd" d="M106.542 112.328L106.505 107.52H110.004L110.511 112.687L106.542 112.328Z" fill="white"/>
</g>
<g style="mix-blend-mode:soft-light">
<path fill-rule="evenodd" clip-rule="evenodd" d="M101.323 106.911L102 100.259L105.354 99.8039L105.298 107.271L101.323 106.911Z" fill="white"/>
</g>
<g style="mix-blend-mode:soft-light">
<path fill-rule="evenodd" clip-rule="evenodd" d="M112.306 106.45L111.416 99.8039L113.742 100.259L114.705 106.359L112.306 106.45Z" fill="white"/>
</g>
<g style="mix-blend-mode:soft-light">
<path fill-rule="evenodd" clip-rule="evenodd" d="M99.1361 86.9299L99.273 92.7099H102.79L102.828 86.9299H99.1361Z" fill="white"/>
</g>
<g style="mix-blend-mode:soft-light">
<path fill-rule="evenodd" clip-rule="evenodd" d="M85.3451 105.925L85.2896 101.368L90.6066 100.386L88.6117 106.464L85.3451 105.925Z" fill="white"/>
</g>
<g style="mix-blend-mode:soft-light">
<path fill-rule="evenodd" clip-rule="evenodd" d="M79.7685 106.104L81.0468 101.234L75.6355 101.458L76.6039 106.283L79.7685 106.104Z" fill="white"/>
</g>
<g style="mix-blend-mode:soft-light">
<path fill-rule="evenodd" clip-rule="evenodd" d="M75.2249 119.278L76.8672 113.362L70.6774 112.687L70.7523 119.278H75.2249Z" fill="white"/>
</g>
<g style="mix-blend-mode:soft-light">
<path fill-rule="evenodd" clip-rule="evenodd" d="M96.8223 79.6502L98.1173 83.5332L103.397 83.2979L101.561 79.1834L96.8223 79.6502Z" fill="white"/>
</g>
<g style="mix-blend-mode:soft-light">
<path fill-rule="evenodd" clip-rule="evenodd" d="M110.595 109.876L111.742 113.055H117.185L114.704 108.289L110.595 109.876Z" fill="white"/>
</g>
<g style="mix-blend-mode:soft-light">
<path fill-rule="evenodd" clip-rule="evenodd" d="M95.4936 129.44L94.9436 124.611H98.9475L98.0011 129.44H95.4936Z" fill="white"/>
</g>
<g style="mix-blend-mode:soft-light">
<path fill-rule="evenodd" clip-rule="evenodd" d="M101.561 74.3512L102.828 77.8708L107.389 77.5505L103.339 72.7235L101.561 74.3512Z" fill="white"/>
</g>
<g style="mix-blend-mode:soft-light">
<path fill-rule="evenodd" clip-rule="evenodd" d="M84.1145 92.2589L85.9829 86.3938L81.3773 86.9299L80.6581 92.7099L84.1145 92.2589Z" fill="white"/>
</g>
<g style="mix-blend-mode:soft-light">
<path fill-rule="evenodd" clip-rule="evenodd" d="M74.7123 92.7099V86.3938L72.8156 86.9299L71.8885 92.7099H74.7123Z" fill="white"/>
</g>
<g style="mix-blend-mode:soft-light">
<path fill-rule="evenodd" clip-rule="evenodd" d="M37.8417 92.7099L38.6409 85.9179L34.4898 87.4672L33.8248 92.7099H37.8417Z" fill="white"/>
</g>
<g style="mix-blend-mode:soft-light">
<path fill-rule="evenodd" clip-rule="evenodd" d="M65.7477 119.278V114.494L69.922 113.362L69.1021 119.278H65.7477Z" fill="white"/>
</g>
<g style="mix-blend-mode:soft-light">
<path fill-rule="evenodd" clip-rule="evenodd" d="M54.6488 106.195L56.0317 100.386L52.5003 100.259L51.3538 106.195H54.6488Z" fill="white"/>
</g>
<g style="mix-blend-mode:soft-light">
<path fill-rule="evenodd" clip-rule="evenodd" d="M42.7519 106.435L43.3782 100.259L40.9056 100.386L39.7616 106.374L42.7519 106.435Z" fill="white"/>
</g>
<g style="mix-blend-mode:soft-light">
<path fill-rule="evenodd" clip-rule="evenodd" d="M37.8417 98.4795V93.9337H34.2548L33.8248 98.4795H37.8417Z" fill="white"/>
</g>
<g style="mix-blend-mode:soft-light">
<path fill-rule="evenodd" clip-rule="evenodd" d="M47.2439 92.7099L47.6739 85.4564L52.0006 84.1895L50.8785 92.7099H47.2439Z" fill="white"/>
</g>
<g style="mix-blend-mode:soft-light">
<path fill-rule="evenodd" clip-rule="evenodd" d="M51.8754 92.7099L52.0006 86.9299L56.9445 84.6824L55.5759 92.7099H51.8754Z" fill="white"/>
</g>
<g style="mix-blend-mode:soft-light">
<path fill-rule="evenodd" clip-rule="evenodd" d="M43.0839 119.278L43.3782 114.048L48.6462 113.055L47.1046 119.486L43.0839 119.278Z" fill="white"/>
</g>
<g style="mix-blend-mode:soft-light">
<path fill-rule="evenodd" clip-rule="evenodd" d="M51.8715 119.278V114.137L56.8618 114.257L55.5061 119.278H51.8715Z" fill="white"/>
</g>
</g>
<g style="mix-blend-mode:multiply" opacity="0.5">
<g style="mix-blend-mode:multiply">
<path fill-rule="evenodd" clip-rule="evenodd" d="M80.4618 119.278V112.33L86.9925 112.687L84.4644 119.278H80.4618Z" fill="#E08BB8"/>
</g>
<g style="mix-blend-mode:multiply">
<path fill-rule="evenodd" clip-rule="evenodd" d="M84.9822 111.521L85.9377 107.054L80.7188 106.104L81.8175 111.7L84.9822 111.521Z" fill="#E08BB8"/>
</g>
<g style="mix-blend-mode:multiply">
<path fill-rule="evenodd" clip-rule="evenodd" d="M73.9517 119.486L79.3436 119.278L78.6657 123.166L74.104 123.226L73.9517 119.486Z" fill="#E08BB8"/>
</g>
<g style="mix-blend-mode:multiply">
<path fill-rule="evenodd" clip-rule="evenodd" d="M65.9167 106.464V111.7H69.6547L70.8116 106.784L65.9167 106.464Z" fill="#E08BB8"/>
</g>
<g style="mix-blend-mode:multiply">
<path fill-rule="evenodd" clip-rule="evenodd" d="M64.3867 106.52L63.7346 111.551L64.4564 111.611L65.9167 107.643L65.5978 101.8L64.3867 106.52Z" fill="#E08BB8"/>
</g>
<g style="mix-blend-mode:multiply">
<path fill-rule="evenodd" clip-rule="evenodd" d="M51.6248 111.611L51.8753 106.195L48.6461 106.283L48.9173 111.673L51.6248 111.611Z" fill="#E08BB8"/>
</g>
<g style="mix-blend-mode:multiply">
<path d="M107.962 92.7099H103.704V98.4795H107.962V92.7099Z" fill="#E08BB8"/>
</g>
<g style="mix-blend-mode:multiply">
<path fill-rule="evenodd" clip-rule="evenodd" d="M106.542 107.638L106.255 105.733L111.642 105.465L111.653 106.464L106.542 107.638Z" fill="#E08BB8"/>
</g>
<g style="mix-blend-mode:multiply">
<path fill-rule="evenodd" clip-rule="evenodd" d="M110.439 124.611L109.783 122.183L114.391 120.432L115.57 123.434L110.439 124.611Z" fill="#E08BB8"/>
</g>
<g style="mix-blend-mode:multiply">
<path fill-rule="evenodd" clip-rule="evenodd" d="M108.301 129.242L107.962 127.009L112.058 128.125L112.128 129.44L108.301 129.242Z" fill="#E08BB8"/>
</g>
<g style="mix-blend-mode:multiply">
<path fill-rule="evenodd" clip-rule="evenodd" d="M64.4758 92.7099V98.4795L66.1195 94.2906L66.0808 88.4491L64.4758 92.7099Z" fill="#E08BB8"/>
</g>
<g style="mix-blend-mode:multiply">
<path fill-rule="evenodd" clip-rule="evenodd" d="M66.1195 98.4795V92.8158L70.5934 92.7099L71.8885 88.3458V92.7099V94.2906L70.5934 98.4795H66.1195Z" fill="#E08BB8"/>
</g>
<g style="mix-blend-mode:multiply">
<path fill-rule="evenodd" clip-rule="evenodd" d="M76.3481 83.2364L73.7722 85.4564L67.8354 84.3464L72.5366 81.4047L71.8884 83.0364L76.3481 83.2364Z" fill="#E08BB8"/>
</g>
<g style="mix-blend-mode:multiply">
<path fill-rule="evenodd" clip-rule="evenodd" d="M32.4083 98.4795L30.6136 102.679H26.3605L27.068 98.4795H32.4083Z" fill="#E08BB8"/>
</g>
</g>
<path fill-rule="evenodd" clip-rule="evenodd" d="M94.9436 40.552C94.9436 40.552 87.9351 81.9538 78.3404 88.3458C68.7444 94.7377 59.5526 84.6824 59.5526 84.6824C59.5526 84.6824 68.1647 95.8686 79.3437 89.8205C90.5226 83.7725 97.9313 41.0789 97.9313 41.0789L94.9436 40.552Z" fill="#692F4B"/>
<path fill-rule="evenodd" clip-rule="evenodd" d="M59.5526 84.6824C59.5526 84.6824 57.0452 80.7027 58.9367 79.1834C60.8283 77.6642 67.8342 81.5512 67.8342 81.5512L65.7464 81.7564C65.7464 81.7564 62.8438 79.6489 60.2034 80.7458C57.5629 81.8427 62.6644 87.3182 62.6644 87.3182C62.6644 87.3182 60.224 85.9754 59.5513 84.6811L59.5526 84.6824Z" fill="#541131"/>
<path fill-rule="evenodd" clip-rule="evenodd" d="M94.1107 15.1568L99.9378 14.579L99.3516 15.9923L95.5839 15.6942L99.3516 16.6917L98.8803 17.0042L94.1107 16.4616V15.1568Z" fill="#FF9C27"/>
<path fill-rule="evenodd" clip-rule="evenodd" d="M104.719 58.4126L107.962 63.4095L104.855 63.9155L102.828 59.5474L104.719 58.4126Z" fill="url(#paint25_linear_9_2744)"/>
<path fill-rule="evenodd" clip-rule="evenodd" d="M101.323 59.0558L103.339 63.9155H100.11L99.136 60.1841L101.323 59.0558Z" fill="url(#paint26_linear_9_2744)"/>
<path fill-rule="evenodd" clip-rule="evenodd" d="M97.402 59.5474L97.9314 65.2595H95.4937V60.1841L97.402 59.5474Z" fill="url(#paint27_linear_9_2744)"/>
<path fill-rule="evenodd" clip-rule="evenodd" d="M104.719 58.4126L109.673 60.3698L109.074 61.1647L105.612 59.7893L104.719 58.4126Z" fill="url(#paint28_linear_9_2744)"/>
<path fill-rule="evenodd" clip-rule="evenodd" d="M74.1623 60.8208L70.272 65.2595L71.5722 66.0832L74.1623 61.8079V60.8208Z" fill="url(#paint29_linear_9_2744)"/>
<path fill-rule="evenodd" clip-rule="evenodd" d="M48.4834 82.1134L39.7615 81.7224L39.2037 83.5332L48.4834 82.1134Z" fill="url(#paint30_linear_9_2744)"/>
<path fill-rule="evenodd" clip-rule="evenodd" d="M49.6222 82.0754L46.2845 80.0659L47.2439 79.539L51.3537 82.1133L49.6222 82.0754Z" fill="url(#paint31_linear_9_2744)"/>
<path fill-rule="evenodd" clip-rule="evenodd" d="M102.641 52.5867C102.641 52.5867 104.519 58.3224 108.581 57.3287L107.962 58.4126C107.962 58.4126 103.96 59.2297 102.641 54.2877V52.5867Z" fill="url(#paint32_linear_9_2744)"/>
<path fill-rule="evenodd" clip-rule="evenodd" d="M97.9314 52.9672L100.11 60.3698L97.025 61.1647L96.4956 53.5751L97.9314 52.9672Z" fill="url(#paint33_linear_9_2744)"/>
<path fill-rule="evenodd" clip-rule="evenodd" d="M78.3404 54.7126L75.6354 63.7115L79.2016 63.4095L80.1209 54.2877L78.3404 54.7126Z" fill="url(#paint34_linear_9_2744)"/>
<path fill-rule="evenodd" clip-rule="evenodd" d="M81.9751 55.871L80.6581 63.7115L83.7943 63.4095L85.1759 56.0566L81.9751 55.871Z" fill="url(#paint35_linear_9_2744)"/>
<path fill-rule="evenodd" clip-rule="evenodd" d="M84.3082 63.4513L85.5335 58.4126L88.2218 57.8151L86.8944 63.2265L84.3082 63.4513Z" fill="url(#paint36_linear_9_2744)"/>
<path fill-rule="evenodd" clip-rule="evenodd" d="M76.8182 57.0659L74.1622 63.4513L71.5721 62.4041L74.9808 57.3327L76.8182 57.0659Z" fill="url(#paint37_linear_9_2744)"/>
<path fill-rule="evenodd" clip-rule="evenodd" d="M76.8181 49.7353C76.8181 49.7353 76.1028 54.5466 71.1331 55.871H74.7122C74.7122 55.871 77.8407 54.7819 78.7419 50.7145L76.8181 49.7353Z" fill="url(#paint38_linear_9_2744)"/>
<path fill-rule="evenodd" clip-rule="evenodd" d="M74.9382 49.5418C74.9382 49.5418 72.7381 53.498 65.2983 52.9685L68.5469 56.2305C68.5469 56.2305 73.3772 55.5886 74.9886 51.7278L74.9382 49.5431V49.5418Z" fill="url(#paint39_linear_9_2744)"/>
</g>
<defs>
<linearGradient id="paint0_linear_9_2744" x1="18.2714" y1="129.648" x2="18.2714" y2="86.9299" gradientUnits="userSpaceOnUse">
<stop stop-color="#C031FF"/>
<stop offset="0.68" stop-color="#7C09FF"/>
</linearGradient>
<linearGradient id="paint1_linear_9_2744" x1="22.6509" y1="125.491" x2="22.6509" y2="84.6824" gradientUnits="userSpaceOnUse">
<stop stop-color="#4A98FF"/>
<stop offset="0.22" stop-color="#5384FF"/>
<stop offset="0.73" stop-color="#655DFF"/>
<stop offset="1" stop-color="#6D4FFF"/>
</linearGradient>
<linearGradient id="paint2_linear_9_2744" x1="19.8194" y1="120.966" x2="19.8194" y2="90.9763" gradientUnits="userSpaceOnUse">
<stop stop-color="#FF3179"/>
<stop offset="0.68" stop-color="#B5097C"/>
</linearGradient>
<linearGradient id="paint3_linear_9_2744" x1="14.1719" y1="122.63" x2="14.1719" y2="88.0137" gradientUnits="userSpaceOnUse">
<stop offset="0.32" stop-color="#FF750B"/>
<stop offset="1" stop-color="#FFC200"/>
</linearGradient>
<linearGradient id="paint4_linear_9_2744" x1="16.7193" y1="93.0708" x2="16.7193" y2="85.4564" gradientUnits="userSpaceOnUse">
<stop offset="0.32" stop-color="#FF2874"/>
<stop offset="1" stop-color="#FF7C00"/>
</linearGradient>
<linearGradient id="paint5_linear_9_2744" x1="31.972" y1="138" x2="31.972" y2="124.611" gradientUnits="userSpaceOnUse">
<stop stop-color="#6898FF"/>
<stop offset="1" stop-color="#6D4FFF"/>
</linearGradient>
<linearGradient id="paint6_linear_9_2744" x1="59.5526" y1="-5.57196e-05" x2="59.5526" y2="-5.57196e-05" gradientUnits="userSpaceOnUse">
<stop stop-color="#6898FF"/>
<stop offset="1" stop-color="#6D4FFF"/>
</linearGradient>
<linearGradient id="paint7_linear_9_2744" x1="83.6833" y1="-5.57196e-05" x2="83.6833" y2="-5.57196e-05" gradientUnits="userSpaceOnUse">
<stop stop-color="#6898FF"/>
<stop offset="1" stop-color="#6D4FFF"/>
</linearGradient>
<linearGradient id="paint8_linear_9_2744" x1="104.856" y1="-5.57196e-05" x2="104.856" y2="-5.57196e-05" gradientUnits="userSpaceOnUse">
<stop stop-color="#6898FF"/>
<stop offset="1" stop-color="#6D4FFF"/>
</linearGradient>
<linearGradient id="paint9_linear_9_2744" x1="91.0532" y1="81.406" x2="91.0532" y2="16.2302" gradientUnits="userSpaceOnUse">
<stop stop-color="#FF9500"/>
<stop offset="1" stop-color="#FFBD00"/>
</linearGradient>
<linearGradient id="paint10_linear_9_2744" x1="90.1573" y1="36.0637" x2="90.1573" y2="21.6756" gradientUnits="userSpaceOnUse">
<stop offset="0.02" stop-color="#361545"/>
<stop offset="1" stop-color="#59355C"/>
</linearGradient>
<linearGradient id="paint11_linear_9_2744" x1="90.1573" y1="34.2254" x2="90.1573" y2="22.2417" gradientUnits="userSpaceOnUse">
<stop offset="0.02" stop-color="#FFCEC7"/>
<stop offset="1" stop-color="#FFE9F5"/>
</linearGradient>
<linearGradient id="paint12_linear_9_2744" x1="90.1095" y1="29.6234" x2="90.1095" y2="25.9979" gradientUnits="userSpaceOnUse">
<stop offset="0.02" stop-color="#361545"/>
<stop offset="1" stop-color="#59355C"/>
</linearGradient>
<linearGradient id="paint13_linear_9_2744" x1="60.2046" y1="124.611" x2="60.2046" y2="80.7458" gradientUnits="userSpaceOnUse">
<stop stop-color="#FFD800"/>
<stop offset="1" stop-color="#FF9500"/>
</linearGradient>
<linearGradient id="paint14_linear_9_2744" x1="70.6773" y1="129.648" x2="70.6773" y2="117.891" gradientUnits="userSpaceOnUse">
<stop stop-color="#4A98FF"/>
<stop offset="0.19" stop-color="#5383FF"/>
<stop offset="0.51" stop-color="#6166FF"/>
<stop offset="0.79" stop-color="#6A55FF"/>
<stop offset="1" stop-color="#6D4FFF"/>
</linearGradient>
<linearGradient id="paint15_linear_9_2744" x1="71.5153" y1="124.611" x2="71.5153" y2="111.813" gradientUnits="userSpaceOnUse">
<stop stop-color="#C031FF"/>
<stop offset="0.68" stop-color="#7C09FF"/>
</linearGradient>
<linearGradient id="paint16_linear_9_2744" x1="71.6186" y1="119.886" x2="71.6186" y2="104.775" gradientUnits="userSpaceOnUse">
<stop stop-color="#4A98FF"/>
<stop offset="0.22" stop-color="#5384FF"/>
<stop offset="0.73" stop-color="#655DFF"/>
<stop offset="1" stop-color="#6D4FFF"/>
</linearGradient>
<linearGradient id="paint17_linear_9_2744" x1="72.476" y1="113.362" x2="72.476" y2="100.259" gradientUnits="userSpaceOnUse">
<stop stop-color="#FF3179"/>
<stop offset="0.68" stop-color="#B5097C"/>
</linearGradient>
<linearGradient id="paint18_linear_9_2744" x1="70.1997" y1="107.643" x2="70.1997" y2="91.1619" gradientUnits="userSpaceOnUse">
<stop stop-color="#FF7C00"/>
<stop offset="0.68" stop-color="#FF2874"/>
</linearGradient>
<linearGradient id="paint19_linear_9_2744" x1="70.2719" y1="99.5582" x2="70.2719" y2="86.9299" gradientUnits="userSpaceOnUse">
<stop stop-color="#FFC200"/>
<stop offset="0.68" stop-color="#FF750B"/>
</linearGradient>
<linearGradient id="paint20_linear_9_2744" x1="69.616" y1="93.2002" x2="69.616" y2="75.9175" gradientUnits="userSpaceOnUse">
<stop stop-color="#FFC200"/>
<stop offset="0.68" stop-color="#FFC40B"/>
</linearGradient>
<linearGradient id="paint21_linear_9_2744" x1="92.8635" y1="83.5332" x2="92.8635" y2="74.3512" gradientUnits="userSpaceOnUse">
<stop stop-color="#FFF400"/>
<stop offset="0.68" stop-color="#FFC40B"/>
</linearGradient>
<linearGradient id="paint22_linear_9_2744" x1="92.8325" y1="78.9429" x2="92.8325" y2="68.4038" gradientUnits="userSpaceOnUse">
<stop stop-color="#FFF400"/>
<stop offset="0.68" stop-color="#FFC40B"/>
</linearGradient>
<linearGradient id="paint23_linear_9_2744" x1="91.5362" y1="72.7235" x2="91.5362" y2="61.03" gradientUnits="userSpaceOnUse">
<stop stop-color="#FF7C00"/>
<stop offset="0.68" stop-color="#FF2874"/>
</linearGradient>
<linearGradient id="paint24_linear_9_2744" x1="83.1913" y1="27.8113" x2="83.1913" y2="15.1568" gradientUnits="userSpaceOnUse">
<stop offset="0.32" stop-color="#FF970B"/>
<stop offset="1" stop-color="#FFF400"/>
</linearGradient>
<linearGradient id="paint25_linear_9_2744" x1="105.396" y1="63.9155" x2="105.396" y2="58.4126" gradientUnits="userSpaceOnUse">
<stop stop-color="#FF9A0B"/>
<stop offset="1" stop-color="#FFC200"/>
</linearGradient>
<linearGradient id="paint26_linear_9_2744" x1="101.238" y1="1.95503e-05" x2="101.238" y2="59.0558" gradientUnits="userSpaceOnUse">
<stop stop-color="#FF9A0B"/>
<stop offset="1" stop-color="#FFC200"/>
</linearGradient>
<linearGradient id="paint27_linear_9_2744" x1="96.7125" y1="65.2595" x2="96.7125" y2="59.5474" gradientUnits="userSpaceOnUse">
<stop stop-color="#FF9A0B"/>
<stop offset="1" stop-color="#FFC200"/>
</linearGradient>
<linearGradient id="paint28_linear_9_2744" x1="107.197" y1="61.1647" x2="107.197" y2="3.10096e-05" gradientUnits="userSpaceOnUse">
<stop stop-color="#FF9A0B"/>
<stop offset="1" stop-color="#FFC200"/>
</linearGradient>
<linearGradient id="paint29_linear_9_2744" x1="72.2165" y1="66.0832" x2="72.2165" y2="60.8208" gradientUnits="userSpaceOnUse">
<stop stop-color="#FF880B"/>
<stop offset="1" stop-color="#FF7C00"/>
</linearGradient>
<linearGradient id="paint30_linear_9_2744" x1="43.8442" y1="83.5332" x2="43.8442" y2="81.7224" gradientUnits="userSpaceOnUse">
<stop stop-color="#FF9A0B"/>
<stop offset="1" stop-color="#FFC200"/>
</linearGradient>
<linearGradient id="paint31_linear_9_2744" x1="48.8191" y1="82.1133" x2="48.8191" y2="79.539" gradientUnits="userSpaceOnUse">
<stop stop-color="#FF9A0B"/>
<stop offset="1" stop-color="#FFC200"/>
</linearGradient>
<linearGradient id="paint32_linear_9_2744" x1="105.611" y1="58.4636" x2="105.611" y2="52.5867" gradientUnits="userSpaceOnUse">
<stop stop-color="#FF9A0B"/>
<stop offset="1" stop-color="#FFC200"/>
</linearGradient>
<linearGradient id="paint33_linear_9_2744" x1="98.302" y1="61.1647" x2="98.302" y2="52.9672" gradientUnits="userSpaceOnUse">
<stop stop-color="#FF9A0B"/>
<stop offset="1" stop-color="#FFC200"/>
</linearGradient>
<linearGradient id="paint34_linear_9_2744" x1="77.8781" y1="63.7115" x2="77.8781" y2="54.2877" gradientUnits="userSpaceOnUse">
<stop stop-color="#FF880B"/>
<stop offset="1" stop-color="#FF7C00"/>
</linearGradient>
<linearGradient id="paint35_linear_9_2744" x1="82.9163" y1="63.7115" x2="82.9163" y2="55.871" gradientUnits="userSpaceOnUse">
<stop stop-color="#FF880B"/>
<stop offset="1" stop-color="#FF7C00"/>
</linearGradient>
<linearGradient id="paint36_linear_9_2744" x1="86.2656" y1="63.4513" x2="86.2656" y2="57.8151" gradientUnits="userSpaceOnUse">
<stop stop-color="#FF880B"/>
<stop offset="1" stop-color="#FF7C00"/>
</linearGradient>
<linearGradient id="paint37_linear_9_2744" x1="74.1958" y1="63.4513" x2="74.1958" y2="57.0659" gradientUnits="userSpaceOnUse">
<stop stop-color="#FF880B"/>
<stop offset="1" stop-color="#FF7C00"/>
</linearGradient>
<linearGradient id="paint38_linear_9_2744" x1="74.9381" y1="55.871" x2="74.9381" y2="49.7353" gradientUnits="userSpaceOnUse">
<stop stop-color="#FF880B"/>
<stop offset="1" stop-color="#FF7C00"/>
</linearGradient>
<linearGradient id="paint39_linear_9_2744" x1="70.1428" y1="56.2292" x2="70.1428" y2="49.5418" gradientUnits="userSpaceOnUse">
<stop stop-color="#FF880B"/>
<stop offset="1" stop-color="#FF7C00"/>
</linearGradient>
<clipPath id="clip0_9_2744">
<rect width="118" height="138" fill="white"/>
</clipPath>
</defs>
</svg>
