<svg width="216" height="255" viewBox="0 0 216 255" fill="none" xmlns="http://www.w3.org/2000/svg">
<g clip-path="url(#clip0_9_2618)">
<path fill-rule="evenodd" clip-rule="evenodd" d="M18.3308 141.959C18.3308 141.959 6.43669 154.687 9.722 187.449L21.6992 188.348C21.6992 188.348 17.4568 145.951 35.1372 136.315C35.1372 136.315 25.4095 137.418 18.3307 141.957L18.3308 141.959Z" fill="url(#paint0_linear_9_2618)"/>
<path fill-rule="evenodd" clip-rule="evenodd" d="M42.9715 149.455C42.9715 149.455 29.4269 159.478 35.8266 183.859L42.5688 183.492C42.5688 183.492 35.4084 151.244 57.1609 149.201C57.1609 149.201 49.9158 147.623 42.9715 149.455Z" fill="url(#paint1_linear_9_2618)"/>
<path fill-rule="evenodd" clip-rule="evenodd" d="M188.002 200.824L187.231 244.266L182.226 244.538L170.302 202.727L188.002 200.824Z" fill="#6598FF"/>
<path fill-rule="evenodd" clip-rule="evenodd" d="M187.989 201.501L196.224 200.792L190.161 244.106L187.231 244.266L187.989 201.501Z" fill="url(#paint2_linear_9_2618)"/>
<g style="mix-blend-mode:multiply" opacity="0.8">
<path fill-rule="evenodd" clip-rule="evenodd" d="M174.977 219.118L187.59 224.021L187.231 244.266L190.161 244.106L196.129 201.48L171.213 203.776L174.977 219.118Z" fill="#B18BE1"/>
</g>
<path fill-rule="evenodd" clip-rule="evenodd" d="M91.5378 207.169L89.8775 250.66L83.4445 251.009L68.7773 209.347L91.5378 207.169Z" fill="url(#paint3_linear_9_2618)"/>
<path fill-rule="evenodd" clip-rule="evenodd" d="M91.5379 207.169L99.4972 206.441L93.6427 250.455L89.8776 250.66L91.5379 207.169Z" fill="url(#paint4_linear_9_2618)"/>
<path fill-rule="evenodd" clip-rule="evenodd" d="M134.181 203.751L133.411 247.193L128.407 247.466L116.483 205.654L134.181 203.751Z" fill="#6598FF"/>
<path fill-rule="evenodd" clip-rule="evenodd" d="M134.181 203.751L140.37 203.12L136.34 247.034L133.41 247.193L134.181 203.751Z" fill="url(#paint5_linear_9_2618)"/>
<path fill-rule="evenodd" clip-rule="evenodd" d="M166.792 203.075L165.132 246.566L158.699 246.916L146.441 204.424L166.792 203.075Z" fill="url(#paint6_linear_9_2618)"/>
<path fill-rule="evenodd" clip-rule="evenodd" d="M166.792 203.075L174.751 202.348L168.897 246.361L165.132 246.566L166.792 203.075Z" fill="url(#paint7_linear_9_2618)"/>
<g style="mix-blend-mode:multiply" opacity="0.8">
<path fill-rule="evenodd" clip-rule="evenodd" d="M150.338 219.159L165.996 223.93L165.132 246.566L168.897 246.361L174.684 203.399L147.012 206.405L150.338 219.159Z" fill="#B18BE1"/>
</g>
<g style="mix-blend-mode:multiply" opacity="0.8">
<path fill-rule="evenodd" clip-rule="evenodd" d="M120.969 221.389L133.828 223.659L133.41 247.193L136.34 247.034L140.295 204.982L117.081 207.756L120.969 221.389Z" fill="#B18BE1"/>
</g>
<g style="mix-blend-mode:multiply" opacity="0.8">
<path fill-rule="evenodd" clip-rule="evenodd" d="M96.5699 228.449L93.6427 250.455L89.8775 250.66L90.9175 223.404L74.3665 225.225L68.8334 210.38L98.5259 207.254L96.5699 228.449Z" fill="#B18BE1"/>
</g>
<path fill-rule="evenodd" clip-rule="evenodd" d="M150.445 57.7712L154.13 19.8557L159.043 18.4731L164.61 47.4029L150.445 57.7712Z" fill="#6598FF"/>
<path fill-rule="evenodd" clip-rule="evenodd" d="M159.043 18.4731L161.517 19.8491L170.481 50.3139L164.61 47.4029L159.043 18.4731Z" fill="#6574FF"/>
<path fill-rule="evenodd" clip-rule="evenodd" d="M196.224 200.792L197.273 136.053L181.227 82.5229L157.089 80.634L166.629 139.859L174.626 202.649L196.224 200.792Z" fill="url(#paint8_linear_9_2618)"/>
<path fill-rule="evenodd" clip-rule="evenodd" d="M132.464 147.338L131.544 74.6602L135.651 52.0165L148.876 40.4641L184.609 54.4859L185.146 64.3567L189.905 65.7795L184.619 78.7033L158.154 87.2439L167.153 133.305L174.626 202.649L68.7773 209.347L57.5333 156.049L132.464 147.338Z" fill="url(#paint9_linear_9_2618)"/>
<path fill-rule="evenodd" clip-rule="evenodd" d="M200.317 65.7434L197.748 59.1659L184.609 54.4859L185.146 64.3567L189.905 65.7795L184.619 78.7033L201.534 78.7961L206.003 66.5039L200.317 65.7434Z" fill="#6574FF"/>
<path fill-rule="evenodd" clip-rule="evenodd" d="M206.003 66.5039L189.535 65.7597L185.146 64.3567L200.317 65.7434L206.003 66.5039Z" fill="url(#paint10_linear_9_2618)"/>
<path fill-rule="evenodd" clip-rule="evenodd" d="M201.534 78.7961L182.418 87.6609L158.154 87.2439L184.619 78.7033L201.534 78.7961Z" fill="#562ED6"/>
<path fill-rule="evenodd" clip-rule="evenodd" d="M185.146 64.3567L177.378 64.0933L185.11 63.7696L200.317 65.7434L185.146 64.3567Z" fill="#562EFF"/>
<path fill-rule="evenodd" clip-rule="evenodd" d="M149.92 58.7271C150.166 63.24 154.052 68.2864 158.394 68.0502C162.736 67.8141 165.886 62.383 165.641 57.872C165.396 53.361 161.677 49.894 157.336 50.13C152.996 50.3661 149.675 54.216 149.92 58.7271Z" fill="url(#paint11_linear_9_2618)"/>
<path d="M158.187 65.7642C154.22 65.9799 150.823 62.8128 150.599 58.6901C150.375 54.5675 153.408 51.0506 157.375 50.8348C161.341 50.6191 164.738 53.7863 164.962 57.9089C165.186 62.0315 162.153 65.5485 158.187 65.7642Z" fill="url(#paint12_linear_9_2618)"/>
<path d="M156.75 61.4168C155.621 61.4782 154.651 60.5169 154.583 59.2696C154.515 58.0224 155.375 56.9615 156.504 56.9001C157.633 56.8387 158.603 57.8001 158.67 59.0473C158.738 60.2946 157.878 61.3554 156.75 61.4168Z" fill="url(#paint13_linear_9_2618)"/>
<path fill-rule="evenodd" clip-rule="evenodd" d="M135.651 52.0165L136.747 14.5895L141.525 12.7866L148.876 40.4641L135.651 52.0165Z" fill="url(#paint14_linear_9_2618)"/>
<path fill-rule="evenodd" clip-rule="evenodd" d="M141.526 12.7866L144.107 13.9459L154.974 42.8573L148.876 40.4641L141.526 12.7866Z" fill="#6574FF"/>
<path fill-rule="evenodd" clip-rule="evenodd" d="M173.552 50.1468L172.237 82.6014L168.15 84.019L171.541 49.3574L173.552 50.1468Z" fill="#692F4B"/>
<path fill-rule="evenodd" clip-rule="evenodd" d="M172.237 82.6015L195.794 81.4589L191.61 83.3985L168.151 84.019L172.237 82.6015Z" fill="#541131"/>
<path fill-rule="evenodd" clip-rule="evenodd" d="M168.451 80.9509L131.616 80.3208L131.924 85.9894L168.15 84.019L168.451 80.9509Z" fill="#692F4B"/>
<path fill-rule="evenodd" clip-rule="evenodd" d="M189.777 63.4189L188.999 57.3976L185.494 56.6116L186.219 62.8219L189.777 63.4189Z" fill="#562ED6"/>
<path fill-rule="evenodd" clip-rule="evenodd" d="M198.209 64.4081L196.632 59.6066L193.757 58.5488L194.835 63.8297L198.209 64.4081Z" fill="#562ED6"/>
<path fill-rule="evenodd" clip-rule="evenodd" d="M196.896 64.1831L195.931 60.5207L194.072 60.0917L194.835 63.8297L196.896 64.1831Z" fill="#3C1398"/>
<path fill-rule="evenodd" clip-rule="evenodd" d="M188.588 63.2194L187.882 58.4579L185.668 58.109L186.219 62.8219L188.588 63.2194Z" fill="#3C1398"/>
<path fill-rule="evenodd" clip-rule="evenodd" d="M66.4357 198.246C66.4357 198.246 66.8586 207.829 61.9011 212.534L68.9665 212.826C68.9665 212.826 69.9066 212.066 70.5959 209.197L71.7764 215.362L75.1476 215.178L75.7967 208.966L77.6778 215.041L84.1391 214.689L83.804 208.53L86.0441 213.453L90.3763 212.792L91.5179 207.74L91.8116 213.139L97.2523 212.277L97.5713 207.781L98.6254 213.012L104.992 212.141L105.559 207.022L107.036 213.446L113.638 213.087L113.282 206.531L115.605 212.98L120.608 211.716L121.009 206.136L122.068 212.626L126.985 212.359L125.399 205.897L128.529 212.275L131.504 212.113L131.957 205.348L133.07 212.877L137.425 212.64L137.995 204.967L140.881 212.452L148.638 212.03L148.292 205.678L149.816 212.485L156.435 211.559L156.133 206.006L157.047 211.619L161.149 211.867L160.695 203.527L162.099 208.606L167.082 208.335L167.79 202.723L167.901 209.516L172.106 209.547L171.74 202.827L173.132 209.421L175.122 209.125L174.629 202.645L173.527 192.418L66.4355 198.243L66.4357 198.246Z" fill="url(#paint15_linear_9_2618)"/>
<path fill-rule="evenodd" clip-rule="evenodd" d="M173.525 192.422L196.384 191.011C196.384 191.011 199.021 203.722 202.819 205.405L199.335 206.538C199.335 206.538 196.003 205.564 194.341 200.481L195.825 207.06L191.612 207.289L190.574 201.28L189.926 207.381L184.869 207.656L183.334 201.883L184.119 207.697L181.496 207.839L180.727 202.319L180.373 207.901L178.312 208.013L177.073 202.518L176.933 208.559L175.12 209.129L173.525 192.422Z" fill="url(#paint16_linear_9_2618)"/>
<path fill-rule="evenodd" clip-rule="evenodd" d="M64.8143 190.966L63.9636 207.276L67.5374 207.376L68.1684 198.152L69.9258 206.37L74.7939 206.105L75.842 197.735L76.2928 206.024L80.0259 205.821L80.5163 197.313L81.0981 204.812L88.7528 203.664L89.1398 197.012L89.5906 205.3L93.4123 205.092L92.9615 196.804L94.8673 205.595L101.205 204.669L101.689 196.329L103.077 204.567L108.134 204.292L108.62 195.952L108.962 202.25L112.04 201.847L114.01 194.895L114.435 202.708L119.694 202.705L119.942 195.169L120.871 201.885L124.441 201.881L124.799 194.905L125.145 201.276L130.906 201.151L131.743 194.527L132.074 200.616L133.581 200.722L134.739 194.364L135.06 200.264L138.088 200.665L138.869 194.307L140.266 201.208L144.59 201.068L145.87 193.926L145.752 199.965L150.798 199.503L151.605 193.614L151.885 198.76L156.946 198.555L156.653 193.172L158.161 200.187L163.561 199.61L163.2 192.983L164.561 198.707L168.497 197.926L168.205 192.544L170.005 197.278L173.061 196.971L172.245 192.324L174.076 197.482L175.894 197.241L172.376 181.767L64.8143 190.966Z" fill="url(#paint17_linear_9_2618)"/>
<path fill-rule="evenodd" clip-rule="evenodd" d="M196.547 180.866L200.475 194.912L198.918 195.352L196.452 186.829L197.506 195.429L195.066 194.83L193.457 191.191L193.699 195.636L188.55 195.916L187.777 191.646L188.068 197.004L186.171 197.107L184.379 191.831L184.671 197.189L180.74 197.403L179.324 192.106L179.667 198.404L178.17 198.485L177.645 196.509L176.515 192.259L176.749 196.558L175.894 197.241L172.376 181.767L196.547 180.866Z" fill="url(#paint18_linear_9_2618)"/>
<path fill-rule="evenodd" clip-rule="evenodd" d="M62.4428 179.315L61.2264 200.13L66.833 200.127L67.7638 190.714L68.0912 196.733L72.3352 197.162L73.0792 190.26L74.724 197.032L79.5337 196.77L80.2429 189.646L81.7471 196.65L86.9245 196.368L87.6721 189.012L88.7288 195.47L94.7332 194.507L95.5229 188.34L95.7832 194.378L99.4237 193.896L100.01 187.955L100.378 195.969L105.357 195.444L105.339 187.5L105.995 194.318L112.013 193.567L112.352 186.9L113.226 192.579L117.427 190.935L118.087 186.409L118.255 193.085L123.469 192.801L124.308 185.877L125.92 192.811L130.324 192.567L131.007 185.306L131.959 192.482L135.13 192.804L135.486 184.921L136.673 193.662L141.449 193.402L140.962 184.454L142.494 191.909L146.726 191.97L147.28 183.913L147.7 191.626L153.618 191.304L153.866 183.35L154.297 191.267L157.808 191.076L158.75 182.508L160.414 192.371L164.347 192.157L165.664 182.341L166.115 190.624L169.575 189.374L169.176 182.04L170.957 186.75L175.302 186.372L171.058 169.288L62.4428 179.315Z" fill="url(#paint19_linear_9_2618)"/>
<path fill-rule="evenodd" clip-rule="evenodd" d="M171.086 169.803L196.734 169.389L200.029 186.725L197.488 187.572L194.621 181.467L195.511 187.68L191.729 187.886L191.001 182.261L190.835 189.57L189.936 189.595L188.062 182.641L187.657 189.452L185.48 189.571L183.82 181.559L184.276 189.927L180.423 189.846L179.713 187.158L178.004 180.686L177.768 187.653L175.302 186.372L171.086 169.803Z" fill="url(#paint20_linear_9_2618)"/>
<path fill-rule="evenodd" clip-rule="evenodd" d="M60.6183 172.544L59.4877 191.981L63.1209 191.784L65.0542 185.991L66.2617 190.841L70.14 189.589L71.876 184.305L72.5741 189.457L79.1164 189.101L80.1617 180.436L80.2429 189.646L86.5295 189.108L86.0404 180.116L88.5329 189.297L92.5028 188.373L93.4384 179.324L93.8726 187.308L98.4532 187.249L99.9139 180.939L99.5547 186.433L102.665 186.642L103.292 179.178L104.2 187.22L108.58 186.603L109.677 177.388L111.098 186.278L117.829 185.251L119.587 178.292L120.494 184.589L124.173 183.395L125.487 177.971L126.277 183.847L129.913 182.895L129.56 176.402L132.298 183.189L137.03 182.076L136.631 174.742L139.219 181.957L143.21 181.74L140.868 174.936L145.201 181.632L150.514 181.343L150.115 174.009L151.873 180.425L154.239 179.873L153.816 172.109L156.415 181.022L163.681 179.925L163.244 171.879L164.922 179.432L167.476 179.153L166.441 173.687L168.311 176.983L170.404 176.586L170.127 171.505L172.112 176.919L174.742 176.067L170.429 163.707L60.6183 172.544Z" fill="url(#paint21_linear_9_2618)"/>
<path fill-rule="evenodd" clip-rule="evenodd" d="M170.429 163.707L196.834 163.164L200.134 175.788L196.627 175.979L195.158 172.361L196.459 177.293L192.995 177.482L191.319 172.57L191.801 176.241L189.609 175.684L188.186 170.243L188.428 176.425L184.776 176.623L183.22 170.513L183.488 175.451L180.793 174.748L179.432 169.885L179.833 175.554L176.525 175.168L175.029 170.125L175.946 176.615L174.742 176.067L170.429 163.707Z" fill="url(#paint22_linear_9_2618)"/>
<path fill-rule="evenodd" clip-rule="evenodd" d="M59.1757 162.429L59.4032 180.866L64.952 180.564L65.6463 172.61L67.1803 179.987L72.0446 179.722L73.1389 172.203L72.7635 179.136L80.3388 178.511L81.6825 170.431L82.2478 177.347L87.5117 176.988L88.2641 170.553L89.1822 176.899L100.082 176.206L101.392 170.571L101.029 175.546L107.897 175.12L108.642 168.679L108.961 174.552L114.753 173.848L116.274 168.549L115.99 174.733L121.26 174.522L122.834 168.485L122.645 175.361L126.004 174.967L126.782 167.219L127.513 175.029L134.117 174.17L133.691 166.338L135.195 174.254L138.804 174.341L140.528 166.114L139.883 174.989L144.833 174.862L146.976 165.595L146.607 174.247L151.373 173.798L153.155 165.097L152.959 173.619L157.293 173.854L159.028 164.327L158.988 173.95L164.317 173.254L166.249 165.831L165.991 171.45L170.412 170.376L170.455 164.171L169.662 156.583L59.1757 162.429Z" fill="url(#paint23_linear_9_2618)"/>
<path fill-rule="evenodd" clip-rule="evenodd" d="M57.5332 156.049L57.3996 174.972L63.0062 174.969L63.9389 165.556L64.2663 171.576L68.5103 172.004L69.2544 165.102L70.8973 171.874L75.7069 171.613L76.4162 164.488L77.9223 171.492L83.0996 171.211L83.8454 163.854L84.902 170.312L90.9084 169.349L91.6962 163.182L91.9246 167.382L95.5881 167.324L96.1834 162.799L98.1508 170.392L103.066 170.124L101.512 162.342L103.972 168.639L108.186 168.409L108.527 161.742L109.401 167.422L113.603 165.778L114.262 161.253L114.575 167L119.788 166.716L120.481 160.721L122.093 167.653L126.572 166.63L127.182 160.148L128.134 167.324L131.306 167.646L131.662 159.765L132.848 168.505L137.624 168.245L137.137 159.297L138.67 166.751L141.881 165.798L143.456 158.755L143.802 165.127L149.834 164.799L150.04 158.192L150.47 166.109L153.981 165.919L154.924 157.351L156.587 167.213L160.52 166.999L161.837 157.184L162.288 165.467L165.75 164.216L165.352 156.884L167.13 161.593L171.478 161.214L167.233 144.13L57.5332 156.049Z" fill="url(#paint24_linear_9_2618)"/>
<path fill-rule="evenodd" clip-rule="evenodd" d="M197.005 152.572L200.708 166.628L196.773 166.973L192.412 158.148L195.422 167.21L192.164 167.387L190.396 160.88L190.795 168.214L187.472 167.479L185.646 157.511L184.439 167.513L180.419 167.863L178.605 156.42L178.063 168.711L174.373 169.292L173.768 158.157L173.456 169.674L171.908 169.791L169.662 156.583L197.005 152.572Z" fill="url(#paint25_linear_9_2618)"/>
<path fill-rule="evenodd" clip-rule="evenodd" d="M167.234 144.13L197.637 141.042L200.932 158.379L198.392 159.226L195.524 153.12L196.416 159.333L192.632 159.539L191.904 153.914L191.738 161.224L190.841 161.248L188.965 154.294L188.561 161.106L186.385 161.224L184.724 153.212L185.179 161.58L181.326 161.499L180.617 158.811L178.909 152.339L178.671 159.306L170.27 160.782L167.234 144.13Z" fill="url(#paint26_linear_9_2618)"/>
<path fill-rule="evenodd" clip-rule="evenodd" d="M132.354 138.676L125.384 148.162L129.486 148.232L132.464 147.338L127.508 152.09L129.215 153.343L134.153 147.723L132.733 152.302L138.678 152.828L140.541 147.03L139.643 152.422L143.033 152.591L143.931 147.093L143.946 152.542L146.919 152.38L147.237 146.303L148.301 151.879L151.95 151.588L152.384 145.744L152.69 151.357L155.852 150.809L156.129 145.337L157.075 150.412L160.885 150.417L160.62 145.546L161.542 149.673L163.298 149.577L163.064 145.273L164.156 149.814L166.622 149.822L166.369 145.163L167.563 150.195L169.997 149.779L167.352 135.149L132.354 138.676Z" fill="url(#paint27_linear_9_2618)"/>
<path fill-rule="evenodd" clip-rule="evenodd" d="M167.352 135.149L195.575 130.393L201.925 142.243L199.389 142.381L197.271 136.053L198.318 142.439L195.777 143.21L193.699 141.258L194.815 144.963L191.865 145.124L189.975 141.46L190.882 145.177L187.319 145.725L185.8 142.41L186.635 146.115L181.613 147.025C181.613 147.025 179.241 142.289 179.398 142.555C179.552 142.82 180.603 147.882 180.603 147.882L176.6 148.099L175.148 143.413L175.455 149.059L172.223 149.234L170.508 143.452L171.1 149.296L169.995 149.781L167.35 135.151L167.352 135.149Z" fill="url(#paint28_linear_9_2618)"/>
<path fill-rule="evenodd" clip-rule="evenodd" d="M132.188 125.497L128.689 143.663L132.508 144.584L132.354 138.676L134.027 145.021L138.291 145.704L138.602 138.047L140.068 144.692L143.183 144.523L143.637 137.539L144.014 144.477L148.637 144.226L148.248 137.074L149.591 143.655L152.542 143.495L152.963 136.599L154.088 143.411L159.505 143.116L159.117 135.979L160.485 143.063L162.516 142.952L162.12 135.677L164.343 142.853L167.71 141.729L167.352 135.149L169.605 142.567L170.81 142.501L166.339 127.691L132.188 125.497Z" fill="url(#paint29_linear_9_2618)"/>
<path fill-rule="evenodd" clip-rule="evenodd" d="M193.399 123.125L166.339 127.689L170.81 142.501L172.912 142.387L172.503 134.869L174.111 142.842L179.734 140.889L178.661 135.507L180.747 141.529L184.746 140.618L184.446 135.099L186.29 140.534L189.286 140.371L187.856 133.065L190.598 140.3L193.373 139.514L191.697 132.856L194.269 139.095L197.237 137.989L194.777 130.762L200.107 133.776L200.436 131.21C200.436 131.21 194.432 128.675 193.401 123.131L193.399 123.125Z" fill="url(#paint30_linear_9_2618)"/>
<path fill-rule="evenodd" clip-rule="evenodd" d="M132.088 117.583C132.088 117.583 130.906 129.056 124.708 129.102L127.04 130.526C127.04 130.526 131.164 129.54 132.417 123.623L130.719 133.127L132.97 133.798L135.035 127.26L135.319 132.483L137.855 132.488L138.726 127.768L139.036 133.469L142.688 133.27L143.674 128.071L143.988 133.843L145.919 133.094L146.547 127.914L146.846 133.412L150.521 133.488L151.217 128.149L151.505 133.434L155.157 133.236L155.269 127.504L156.015 133.48L159.956 133.266L161.346 127.881L161.669 133.809L164.286 134.02L164.652 127.581L165.677 133.944L168.106 133.537L164.778 121.131L132.09 117.583L132.088 117.583Z" fill="url(#paint31_linear_9_2618)"/>
<path fill-rule="evenodd" clip-rule="evenodd" d="M164.776 121.133L192.567 120.351L196.901 129.204L193.69 129.378L190.997 125.206L192.147 130.808L188.657 131.414L186.492 126.595L187.322 132.767L184.02 132.947L183.372 128.254L183.698 134.26L180.753 135.038L178.217 127.389L179.348 135.114L175.908 135.301L173.469 128.046L174.501 135.378L170.085 135.618L168.829 128.298L168.801 133.774L167.772 133.593L164.776 121.133Z" fill="url(#paint32_linear_9_2618)"/>
<path fill-rule="evenodd" clip-rule="evenodd" d="M131.962 107.604C131.962 107.604 131.25 114.647 124.154 118.917L127.487 121.574L132.047 114.463L130.856 122.947L133.925 122.809L133.685 118.396L135.255 122.706L137.521 122.933L139.243 118.094L139.577 124.227L142.841 124.049L142.551 118.718L144.198 124.842L149.63 124.547L149.403 120.38L150.615 125.382L155.298 125.128L154.955 118.809L156.422 125.066L160.199 124.861L159.855 118.543L161.456 124.861L164.175 124.645L163.979 121.045L165.019 125.674L165.977 125.622L161.086 102.9L131.958 107.602L131.962 107.604Z" fill="url(#paint33_linear_9_2618)"/>
<path fill-rule="evenodd" clip-rule="evenodd" d="M161.09 102.901L187.222 102.523L196.561 122.954L192.025 123.358L190.341 119.712L191.129 124.256L189.33 124.354L187.485 120.23L188.811 126.469L185.861 126.629L182.957 120.621L183.598 125.184L180.842 125.243L178.758 120.372L179.777 124.874L177.039 125.022L174.584 121.329L176.028 127.164L172.496 126.991L170.087 121.574L170.939 126.863L168.451 127.335L166.652 122.283L167.183 125.158L165.981 125.624L161.09 102.901Z" fill="url(#paint34_linear_9_2618)"/>
<path fill-rule="evenodd" clip-rule="evenodd" d="M131.86 99.5907C131.86 99.5907 131.202 107.537 129.318 111.951L133.325 111.733L134.809 109.292L134.967 112.21L137.963 112.047L138.93 107.369L139.181 111.981L143.957 111.721L145.066 106.658L145.337 111.646L147.611 111.522L147.309 105.969L148.454 111.476L151.702 111.3L151.41 105.936L152.779 111.241L157.443 110.987L157.564 104.587L157.931 111.339L161.538 111.143L160.27 104.039L162.811 111.074L163.708 110.459L159.784 95.098L131.86 99.5907Z" fill="url(#paint35_linear_9_2618)"/>
<path fill-rule="evenodd" clip-rule="evenodd" d="M159.782 95.0962L184.592 93.7467L192.869 107.833L189.726 108.004L186.914 101.497L188.473 109.676L185.371 109.845L182.675 102.588L184.106 109.913L177.986 111.347L174.848 102.896L176.24 110.341L174.975 110.41L173.421 104.359L173.813 111.574L169.662 111.799L167.433 103.299L168.117 111.883L166.033 110.897L165.056 104.107L165.182 110.943L163.708 110.457L159.782 95.0962Z" fill="url(#paint36_linear_9_2618)"/>
<path fill-rule="evenodd" clip-rule="evenodd" d="M131.924 85.9894L128.842 103.228L130.846 103.119L132.657 99.4619L132.882 103.592L134.447 103.507L134.928 99.4238L135.756 104.279L139.549 104.073L139.241 98.4026L140.392 104.027L142.709 103.901L142.382 97.8973L143.271 103.871L147.134 103.661L148.064 96.982L149.066 102.925L151.728 102.637L152.438 96.2786L152.673 100.604L156.55 100.606L156.304 96.0892L157.669 101.748L160.11 101.119L159.428 95.1535L161.334 101.174L162.059 100.872L158.154 87.2439L167.63 84.0473L131.924 85.9894Z" fill="url(#paint37_linear_9_2618)"/>
<path fill-rule="evenodd" clip-rule="evenodd" d="M182.418 87.6609L189.13 97.4467L186.049 97.6142L182.754 93.8467L184.146 97.7177L181.181 97.879L178.408 94.0831L179.401 98.7492L178.04 98.5173L175.953 94.5948L176.651 98.5929L174.058 98.7339L172.378 95.1674L173.138 99.0899L168.983 99.3159L167.037 95.3629L168.139 99.8273L166.608 99.9106L165.157 94.8039L165.465 100.452L164.105 100.526L162.02 94.9745L163.17 100.576L162.059 100.872L158.154 87.2439L182.418 87.6609Z" fill="url(#paint38_linear_9_2618)"/>
<path fill-rule="evenodd" clip-rule="evenodd" d="M80.5367 242.746L76.4466 250.292L80.9339 250.048L82.0623 243.26L82.4271 249.967L87.4499 249.693L87.0527 242.392L89.8179 249.564L92.7893 249.403L90.2533 240.811L80.5367 242.746Z" fill="url(#paint39_linear_9_2618)"/>
<path fill-rule="evenodd" clip-rule="evenodd" d="M126.416 240.484L122.317 246.168L125.713 245.984L127.357 241.928L127.613 246.635L131.066 245.976L131.959 241.678L132.179 245.725L134.245 245.708L133.542 239.705L126.416 240.484Z" fill="url(#paint40_linear_9_2618)"/>
<path fill-rule="evenodd" clip-rule="evenodd" d="M20.3454 163.456C20.3454 163.456 10.845 187.374 23.0813 213.756L34.8032 209.96C34.8032 209.96 20.3074 174.858 32.7096 152.489C32.7096 152.489 22.1042 157.411 20.3435 163.457L20.3454 163.456Z" fill="url(#paint41_linear_9_2618)"/>
<path fill-rule="evenodd" clip-rule="evenodd" d="M156.771 240.235L150.85 245.371L155.345 245.126L157.2 241.721L157.427 245.887L160.335 245.326L160.084 240.715L161.48 245.667L163.06 245.581L163.549 240.526L163.822 245.539L166.726 245.381L165.407 239.323L156.771 240.235Z" fill="url(#paint42_linear_9_2618)"/>
<path fill-rule="evenodd" clip-rule="evenodd" d="M180.505 238.502L179.486 242.563L182.202 241.989L182.806 238.842L182.983 242.089L185.246 242.249L185.069 239.002L186.089 242.204L188.594 241.642L187.34 238.13L180.505 238.502Z" fill="url(#paint43_linear_9_2618)"/>
<path fill-rule="evenodd" clip-rule="evenodd" d="M90.2533 240.811L94.9073 240.955L101.76 248.041L98.5 248.218L95.4811 243.126L97.2152 248.759L95.0365 248.407L93.631 245.652L94.5202 249.309L92.7894 249.403L90.2533 240.811Z" fill="url(#paint44_linear_9_2618)"/>
<path fill-rule="evenodd" clip-rule="evenodd" d="M133.542 239.705L137.047 239.514L143.594 244.916L141.253 245.043L137.777 241.457L140.643 245.926L138.745 245.558L136.226 241.353L137.997 245.504L134.245 245.708L133.542 239.705Z" fill="url(#paint45_linear_9_2618)"/>
<path fill-rule="evenodd" clip-rule="evenodd" d="M165.407 239.323L169.835 239.386L175.145 244.427L174.189 244.479L170.886 241.843L173.457 245.015L171.049 244.838L167.424 240.978L169.074 245.031L166.726 245.381L165.407 239.323Z" fill="url(#paint46_linear_9_2618)"/>
<path fill-rule="evenodd" clip-rule="evenodd" d="M187.34 238.13L191.026 237.929L198.467 242.026L196.231 242.148L192.174 240.119L195.013 242.214L192.296 242.362L188.495 239.832L190.24 241.978L188.594 241.642L187.34 238.13Z" fill="url(#paint47_linear_9_2618)"/>
<path fill-rule="evenodd" clip-rule="evenodd" d="M57.5333 156.049C57.5333 156.049 34.5181 157.682 30.7802 183.28C27.0423 208.877 34.5596 224.326 34.5596 224.326L42.2725 222.962C42.2725 222.962 29.7208 197.281 33.8502 178.638C37.9796 159.995 57.6714 158.587 57.6714 158.587L57.5334 156.05L57.5333 156.049Z" fill="url(#paint48_linear_9_2618)"/>
<path fill-rule="evenodd" clip-rule="evenodd" d="M57.5333 156.049C57.5333 156.049 42.9974 149.932 32.7095 152.489C32.7095 152.489 23.3525 156.583 20.3434 163.457C20.3434 163.457 33.3948 155.735 57.6694 158.585L57.5314 156.049L57.5333 156.049Z" fill="url(#paint49_linear_9_2618)"/>
<path fill-rule="evenodd" clip-rule="evenodd" d="M57.5333 156.049C57.5333 156.049 49.6274 150.943 42.9714 149.455C42.9714 149.455 52.4958 147.673 57.1609 149.201C61.8259 150.73 57.5332 156.047 57.5332 156.047L57.5333 156.049Z" fill="url(#paint50_linear_9_2618)"/>
<path fill-rule="evenodd" clip-rule="evenodd" d="M57.5253 157.257C57.5253 157.257 48.2063 157.149 41.4639 170.724C34.7216 184.299 45.0384 225.454 45.0384 225.454L53.0008 223.323C53.0008 223.323 48.5058 198.707 48.8082 179.757C49.1106 160.807 57.6733 158.587 57.6733 158.587L57.5272 157.257L57.5253 157.257Z" fill="url(#paint51_linear_9_2618)"/>
<path fill-rule="evenodd" clip-rule="evenodd" d="M59.5639 155.938C59.5639 155.938 47.1798 139.806 35.1375 136.319C35.1375 136.319 24.0277 136.176 18.3309 141.961C18.3309 141.961 43.2785 143.975 57.5335 156.05L59.564 155.94L59.5639 155.938Z" fill="url(#paint52_linear_9_2618)"/>
<path fill-rule="evenodd" clip-rule="evenodd" d="M135.651 52.0165L132.193 59.5108L135.201 59.5277L137.859 53.1562L138.197 59.3647L143.626 58.1422L142.707 49.3942L144.903 54.85L148.448 51.5123L145.692 46.8775L151.987 50.421L153.905 46.8089L149.852 44.9525L155.133 44.6652L157.781 42.7046L148.876 40.4641L135.651 52.0165Z" fill="url(#paint53_linear_9_2618)"/>
<path fill-rule="evenodd" clip-rule="evenodd" d="M123.004 148.936L120.812 155.894L117.377 155.338L120.025 149.098L116.206 155.402L112.484 155.604L113.539 151.53L110.762 155.023L104.966 154.677L105.663 151.958L103.456 155.42L96.7418 155.786L98.3593 152.355L94.8314 154.871L88.7113 155.204L89.7901 152.821L87.193 154.302L81.3623 153.28L86.6999 152.989L80.418 148.852L83.0343 147.794L88.5072 151.451L95.5006 151.635L94.2732 147.183L96.3177 147.988L99.3972 150.718L123.004 148.936Z" fill="url(#paint54_linear_9_2618)"/>
<path fill-rule="evenodd" clip-rule="evenodd" d="M140.993 47.3516L141.332 53.5811L137.27 54.5696L137.08 51.0722L140.993 47.3516Z" fill="url(#paint55_linear_9_2618)"/>
<path fill-rule="evenodd" clip-rule="evenodd" d="M136.514 51.2626L134.823 56.0576L130.751 56.2791L135.651 52.0164L136.514 51.2626Z" fill="url(#paint56_linear_9_2618)"/>
<path fill-rule="evenodd" clip-rule="evenodd" d="M148.876 40.4641L154.085 40.4905L162.659 41.9908L158.328 42.6748L148.876 40.4641Z" fill="url(#paint57_linear_9_2618)"/>
<path fill-rule="evenodd" clip-rule="evenodd" d="M147.668 41.5198L152.877 44.3167L150.486 46.8353L146.015 43.3446L147.668 41.5198Z" fill="url(#paint58_linear_9_2618)"/>
<path fill-rule="evenodd" clip-rule="evenodd" d="M136.747 14.5895L132.041 8.35629L134.708 7.45687L137.719 12.5775L136.122 7.37995L138.78 6.66912L140.419 12.3375L139.294 3.43173L141.536 3.3098L141.526 12.7866L136.747 14.5895Z" fill="url(#paint59_linear_9_2618)"/>
<path fill-rule="evenodd" clip-rule="evenodd" d="M144.107 13.9459L148.378 4.77893L146.969 4.28931L144.157 9.19274L145.077 3.68343L142.386 3.26355L142.32 8.65419L142.028 3.28303L141.536 3.3098L141.526 12.7866L144.107 13.9459Z" fill="url(#paint60_linear_9_2618)"/>
<path fill-rule="evenodd" clip-rule="evenodd" d="M154.029 20.5054L149.322 14.2742L151.988 13.3747L154.999 18.4954L153.402 13.2978L156.06 12.587L157.7 18.2554L156.574 9.34961L158.816 9.22768L158.806 18.7045L154.029 20.5054Z" fill="url(#paint61_linear_9_2618)"/>
<path fill-rule="evenodd" clip-rule="evenodd" d="M161.388 19.8619L165.658 10.6949L164.249 10.2053L161.437 15.1087L162.359 9.60121L159.666 9.18143L159.6 14.5721L159.308 9.20091L158.816 9.22768L158.806 18.7045L161.388 19.8619Z" fill="url(#paint62_linear_9_2618)"/>
<g style="mix-blend-mode:soft-light">
<g style="mix-blend-mode:soft-light">
<path fill-rule="evenodd" clip-rule="evenodd" d="M117.829 185.251L119.269 177.61L111.445 177.102L111.098 186.278L117.829 185.251Z" fill="#7FFFFF"/>
</g>
<g style="mix-blend-mode:soft-light">
<path fill-rule="evenodd" clip-rule="evenodd" d="M102.666 186.642L103.29 177.924L100.539 178.628L99.5549 186.433L102.666 186.642Z" fill="#7FFFFF"/>
</g>
<g style="mix-blend-mode:soft-light">
<path fill-rule="evenodd" clip-rule="evenodd" d="M90.9085 169.349L90.9017 158.935L83.8403 160.003L84.9022 170.312L90.9085 169.349Z" fill="#7FFFFF"/>
</g>
<g style="mix-blend-mode:soft-light">
<path fill-rule="evenodd" clip-rule="evenodd" d="M140.441 147.628L138.743 152.629L132.733 152.302L134.579 146.539L140.441 147.628Z" fill="#7FFFFF"/>
</g>
<g style="mix-blend-mode:soft-light">
<path fill-rule="evenodd" clip-rule="evenodd" d="M141.882 165.798L143.684 155.473L136.097 155.885L138.67 166.751L141.882 165.798Z" fill="#7FFFFF"/>
</g>
<g style="mix-blend-mode:soft-light">
<path fill-rule="evenodd" clip-rule="evenodd" d="M137.03 182.076L136.278 174.762L129.66 176.112L132.534 183.134L137.03 182.076Z" fill="#7FFFFF"/>
</g>
<g style="mix-blend-mode:soft-light">
<path fill-rule="evenodd" clip-rule="evenodd" d="M180.423 189.846L176.98 178.353L183.777 179.186L184.276 189.927L180.423 189.846Z" fill="#7FFFFF"/>
</g>
<g style="mix-blend-mode:soft-light">
<path fill-rule="evenodd" clip-rule="evenodd" d="M185.179 161.58L184.323 149.709L177.799 149.355L181.326 161.499L185.179 161.58Z" fill="#7FFFFF"/>
</g>
<g style="mix-blend-mode:soft-light">
<path fill-rule="evenodd" clip-rule="evenodd" d="M198.392 159.226L194.023 148.472L197.848 146.626L200.904 157.863L198.392 159.226Z" fill="#7FFFFF"/>
</g>
<g style="mix-blend-mode:soft-light">
<path fill-rule="evenodd" clip-rule="evenodd" d="M168.497 197.926L167.563 191.982L163.2 192.983L164.216 199.244L168.497 197.926Z" fill="#7FFFFF"/>
</g>
<g style="mix-blend-mode:soft-light">
<path fill-rule="evenodd" clip-rule="evenodd" d="M156.431 211.561L155.052 202.616L148.566 203.385L149.814 212.487L156.431 211.561Z" fill="#7FFFFF"/>
</g>
<g style="mix-blend-mode:soft-light">
<path fill-rule="evenodd" clip-rule="evenodd" d="M137.624 168.245L136.201 157.806L131.66 157.402L132.848 168.505L137.624 168.245Z" fill="#7FFFFF"/>
</g>
<g style="mix-blend-mode:soft-light">
<path fill-rule="evenodd" clip-rule="evenodd" d="M155.153 133.236L155.138 126.97L151.836 126.758L151.501 133.435L155.153 133.236Z" fill="#7FFFFF"/>
</g>
<g style="mix-blend-mode:soft-light">
<path fill-rule="evenodd" clip-rule="evenodd" d="M142.688 133.27L143.674 126.235L139.262 125.95L139.019 133.201L142.688 133.27Z" fill="#7FFFFF"/>
</g>
<g style="mix-blend-mode:soft-light">
<path fill-rule="evenodd" clip-rule="evenodd" d="M144.202 124.844L141.761 113.657L148.856 113.271L149.634 124.548L144.202 124.844Z" fill="#7FFFFF"/>
</g>
<g style="mix-blend-mode:soft-light">
<path fill-rule="evenodd" clip-rule="evenodd" d="M176.028 127.164L171.821 113.295L168.052 114.017L172.496 126.991L176.028 127.164Z" fill="#7FFFFF"/>
</g>
<g style="mix-blend-mode:soft-light">
<path fill-rule="evenodd" clip-rule="evenodd" d="M180.753 135.038L178.16 126.33L182.193 126.534L183.357 134.349L180.753 135.038Z" fill="#7FFFFF"/>
</g>
<g style="mix-blend-mode:soft-light">
<path fill-rule="evenodd" clip-rule="evenodd" d="M145.859 29.1035L136.423 25.6701L136.656 17.7469L142.755 17.4151L145.859 29.1035Z" fill="#7FFFFF"/>
</g>
<g style="mix-blend-mode:soft-light">
<path fill-rule="evenodd" clip-rule="evenodd" d="M147.34 34.6761L139.564 36.735L139.868 42.3165L148.876 40.4641L147.34 34.6761Z" fill="#7FFFFF"/>
</g>
</g>
<g style="mix-blend-mode:multiply" opacity="0.5">
<g style="mix-blend-mode:multiply">
<path fill-rule="evenodd" clip-rule="evenodd" d="M101.205 204.669L101.689 196.329L92.9615 196.804L94.8674 205.595L101.205 204.669Z" fill="#77BDE0"/>
</g>
<g style="mix-blend-mode:multiply">
<path fill-rule="evenodd" clip-rule="evenodd" d="M86.9244 196.368L87.6721 189.012L80.1217 190.859L81.7471 196.65L86.9244 196.368Z" fill="#77BDE0"/>
</g>
<g style="mix-blend-mode:multiply">
<path fill-rule="evenodd" clip-rule="evenodd" d="M75.7071 171.613L76.7034 158.293L69.9593 158.66L70.8974 171.874L75.7071 171.613Z" fill="#77BDE0"/>
</g>
<g style="mix-blend-mode:multiply">
<path fill-rule="evenodd" clip-rule="evenodd" d="M68.5104 172.004L69.3381 162.781L63.252 163.112L64.2664 171.576L68.5104 172.004Z" fill="#77BDE0"/>
</g>
<g style="mix-blend-mode:multiply">
<path fill-rule="evenodd" clip-rule="evenodd" d="M113.603 165.778L114.541 158.907L108.377 158.668L109.401 167.422L113.603 165.778Z" fill="#77BDE0"/>
</g>
<g style="mix-blend-mode:multiply">
<path fill-rule="evenodd" clip-rule="evenodd" d="M147.7 191.626L147.421 182.324L153.323 182.471L153.171 191.328L147.7 191.626Z" fill="#77BDE0"/>
</g>
<g style="mix-blend-mode:multiply">
<path fill-rule="evenodd" clip-rule="evenodd" d="M158.161 200.187L156.653 193.172L162.235 193.311L163.209 199.649L158.161 200.187Z" fill="#77BDE0"/>
</g>
<g style="mix-blend-mode:multiply">
<path fill-rule="evenodd" clip-rule="evenodd" d="M140.878 212.454L137.487 203.413L146.814 202.769L147.959 212.069L140.878 212.454Z" fill="#77BDE0"/>
</g>
<g style="mix-blend-mode:multiply">
<path fill-rule="evenodd" clip-rule="evenodd" d="M131.502 212.115L132.086 203.865L124.452 203.404L128.527 212.277L131.502 212.115Z" fill="#77BDE0"/>
</g>
<g style="mix-blend-mode:multiply">
<path fill-rule="evenodd" clip-rule="evenodd" d="M167.897 209.522L167.753 200.374L170.996 199.772L172.102 209.551L167.897 209.522Z" fill="#77BDE0"/>
</g>
<g style="mix-blend-mode:multiply">
<path fill-rule="evenodd" clip-rule="evenodd" d="M113.638 213.087L112.653 204.046L105.817 205.294L107.036 213.446L113.638 213.087Z" fill="#77BDE0"/>
</g>
<g style="mix-blend-mode:multiply">
<path fill-rule="evenodd" clip-rule="evenodd" d="M178.487 159.083L177.377 149.378L168.192 150.586L170.27 160.782L178.487 159.083Z" fill="#77BDE0"/>
</g>
<g style="mix-blend-mode:multiply">
<path fill-rule="evenodd" clip-rule="evenodd" d="M185.861 126.629L179.892 114.416L184.759 114.151L188.812 126.469L185.861 126.629Z" fill="#77BDE0"/>
</g>
<g style="mix-blend-mode:multiply">
<path fill-rule="evenodd" clip-rule="evenodd" d="M155.3 125.129L154.399 113.393L148.617 114.061L150.617 125.384L155.3 125.129Z" fill="#77BDE0"/>
</g>
<g style="mix-blend-mode:multiply">
<path fill-rule="evenodd" clip-rule="evenodd" d="M157.443 110.986L157.039 103.555L151.273 103.435L152.777 111.239L157.443 110.986Z" fill="#77BDE0"/>
</g>
<g style="mix-blend-mode:multiply">
<path fill-rule="evenodd" clip-rule="evenodd" d="M147.134 103.661L148.291 89.958L142.976 90.2471L143.184 103.279L147.134 103.661Z" fill="#77BDE0"/>
</g>
<g style="mix-blend-mode:multiply">
<path fill-rule="evenodd" clip-rule="evenodd" d="M132.386 72.7067L150.7 72.8867L150.618 80.5528L131.616 80.3208L132.386 72.7067Z" fill="#77BDE0"/>
</g>
<g style="mix-blend-mode:multiply">
<path fill-rule="evenodd" clip-rule="evenodd" d="M147.854 66.3851L148.724 60.1185L146.674 60.23L145.792 65.8759L147.854 66.3851Z" fill="#77BDE0"/>
</g>
<g style="mix-blend-mode:multiply">
<path fill-rule="evenodd" clip-rule="evenodd" d="M189.535 65.7597L184.619 78.7033L190.59 78.3785L197.018 66.4263L189.535 65.7597Z" fill="#77BDE0"/>
</g>
</g>
</g>
<defs>
<linearGradient id="paint0_linear_9_2618" x1="23.7997" y1="188.235" x2="21.0175" y2="137.085" gradientUnits="userSpaceOnUse">
<stop stop-color="#52BAFF"/>
<stop offset="0.53" stop-color="#60BBFF"/>
<stop offset="1" stop-color="#72BDFF"/>
</linearGradient>
<linearGradient id="paint1_linear_9_2618" x1="46.8524" y1="183.259" x2="44.9787" y2="148.811" gradientUnits="userSpaceOnUse">
<stop stop-color="#0CFFCC"/>
<stop offset="0.34" stop-color="#07DCC9"/>
<stop offset="0.77" stop-color="#02B5C6"/>
<stop offset="1" stop-color="#00A7C5"/>
</linearGradient>
<linearGradient id="paint2_linear_9_2618" x1="192.893" y1="243.958" x2="190.562" y2="201.1" gradientUnits="userSpaceOnUse">
<stop stop-color="#4A98FF"/>
<stop offset="0.22" stop-color="#5384FF"/>
<stop offset="0.73" stop-color="#655DFF"/>
<stop offset="1" stop-color="#6D4FFF"/>
</linearGradient>
<linearGradient id="paint3_linear_9_2618" x1="82.4867" y1="251.062" x2="80.133" y2="207.789" gradientUnits="userSpaceOnUse">
<stop stop-color="#72D1FF"/>
<stop offset="0.64" stop-color="#6EADFF"/>
<stop offset="1" stop-color="#6D9FFF"/>
</linearGradient>
<linearGradient id="paint4_linear_9_2618" x1="95.8732" y1="250.333" x2="93.5035" y2="206.767" gradientUnits="userSpaceOnUse">
<stop stop-color="#4A98FF"/>
<stop offset="0.22" stop-color="#5384FF"/>
<stop offset="0.73" stop-color="#655DFF"/>
<stop offset="1" stop-color="#6D4FFF"/>
</linearGradient>
<linearGradient id="paint5_linear_9_2618" x1="124.872" y1="4.2161" x2="135.705" y2="203.374" gradientUnits="userSpaceOnUse">
<stop stop-color="#4A98FF"/>
<stop offset="0.22" stop-color="#5384FF"/>
<stop offset="0.73" stop-color="#655DFF"/>
<stop offset="1" stop-color="#6D4FFF"/>
</linearGradient>
<linearGradient id="paint6_linear_9_2618" x1="145.701" y1="3.08323" x2="145.701" y2="3.08323" gradientUnits="userSpaceOnUse">
<stop stop-color="#72D1FF"/>
<stop offset="0.64" stop-color="#6EADFF"/>
<stop offset="1" stop-color="#6D9FFF"/>
</linearGradient>
<linearGradient id="paint7_linear_9_2618" x1="171.125" y1="246.24" x2="168.756" y2="202.674" gradientUnits="userSpaceOnUse">
<stop stop-color="#4A98FF"/>
<stop offset="0.22" stop-color="#5384FF"/>
<stop offset="0.73" stop-color="#655DFF"/>
<stop offset="1" stop-color="#6D4FFF"/>
</linearGradient>
<linearGradient id="paint8_linear_9_2618" x1="182.288" y1="202.233" x2="175.619" y2="79.6261" gradientUnits="userSpaceOnUse">
<stop stop-color="#4A98FF"/>
<stop offset="0.22" stop-color="#5384FF"/>
<stop offset="0.73" stop-color="#655DFF"/>
<stop offset="1" stop-color="#6D4FFF"/>
</linearGradient>
<linearGradient id="paint9_linear_9_2618" x1="128.895" y1="206.077" x2="119.973" y2="42.0362" gradientUnits="userSpaceOnUse">
<stop stop-color="#72D1FF"/>
<stop offset="0.64" stop-color="#6EADFF"/>
<stop offset="1" stop-color="#6D9FFF"/>
</linearGradient>
<linearGradient id="paint10_linear_9_2618" x1="195.663" y1="67.0663" x2="195.485" y2="63.7943" gradientUnits="userSpaceOnUse">
<stop stop-color="#4AD9FF"/>
<stop offset="0.62" stop-color="#80D7FF"/>
<stop offset="1" stop-color="#9DD6FF"/>
</linearGradient>
<linearGradient id="paint11_linear_9_2618" x1="158.311" y1="68.0567" x2="157.336" y2="50.13" gradientUnits="userSpaceOnUse">
<stop offset="0.02" stop-color="#361545"/>
<stop offset="1" stop-color="#59355C"/>
</linearGradient>
<linearGradient id="paint12_linear_9_2618" x1="158.187" y1="65.7661" x2="157.375" y2="50.8348" gradientUnits="userSpaceOnUse">
<stop offset="0.02" stop-color="#FFCEC7"/>
<stop offset="1" stop-color="#FFE9F5"/>
</linearGradient>
<linearGradient id="paint13_linear_9_2618" x1="156.75" y1="61.4168" x2="156.504" y2="56.9001" gradientUnits="userSpaceOnUse">
<stop offset="0.02" stop-color="#361545"/>
<stop offset="1" stop-color="#59355C"/>
</linearGradient>
<linearGradient id="paint14_linear_9_2618" x1="142.557" y1="51.6408" x2="140.447" y2="12.8453" gradientUnits="userSpaceOnUse">
<stop stop-color="#6D9FFF"/>
<stop offset="0.36" stop-color="#6EADFF"/>
<stop offset="1" stop-color="#72D1FF"/>
</linearGradient>
<linearGradient id="paint15_linear_9_2618" x1="118.692" y1="214.18" x2="117.674" y2="195.46" gradientUnits="userSpaceOnUse">
<stop stop-color="#0CFFCC"/>
<stop offset="0.34" stop-color="#07DCC9"/>
<stop offset="0.77" stop-color="#02B5C6"/>
<stop offset="1" stop-color="#00A7C5"/>
</linearGradient>
<linearGradient id="paint16_linear_9_2618" x1="188.687" y1="208.391" x2="187.768" y2="191.48" gradientUnits="userSpaceOnUse">
<stop stop-color="#0CB69F"/>
<stop offset="0.03" stop-color="#0BB3A0"/>
<stop offset="0.67" stop-color="#038CBA"/>
<stop offset="1" stop-color="#007EC5"/>
</linearGradient>
<linearGradient id="paint17_linear_9_2618" x1="120.052" y1="204.519" x2="118.972" y2="184.672" gradientUnits="userSpaceOnUse">
<stop stop-color="#72FFFF"/>
<stop offset="0.19" stop-color="#6AEFFF"/>
<stop offset="0.72" stop-color="#58C8FF"/>
<stop offset="1" stop-color="#52BAFF"/>
</linearGradient>
<linearGradient id="paint18_linear_9_2618" x1="186.95" y1="198.008" x2="186.027" y2="181.024" gradientUnits="userSpaceOnUse">
<stop stop-color="#3EC3FF"/>
<stop offset="0.07" stop-color="#3FBDFF"/>
<stop offset="0.68" stop-color="#4C96FF"/>
<stop offset="1" stop-color="#5288FF"/>
</linearGradient>
<linearGradient id="paint19_linear_9_2618" x1="118.486" y1="197.317" x2="117.121" y2="172.222" gradientUnits="userSpaceOnUse">
<stop stop-color="#4A98FF"/>
<stop offset="0.22" stop-color="#5384FF"/>
<stop offset="0.73" stop-color="#655DFF"/>
<stop offset="1" stop-color="#6D4FFF"/>
</linearGradient>
<linearGradient id="paint20_linear_9_2618" x1="186.187" y1="189.823" x2="185.057" y2="169.043" gradientUnits="userSpaceOnUse">
<stop stop-color="#594FFF"/>
<stop offset="0.44" stop-color="#563FFF"/>
<stop offset="1" stop-color="#5431FF"/>
</linearGradient>
<linearGradient id="paint21_linear_9_2618" x1="117.377" y1="188.833" x2="116.171" y2="166.658" gradientUnits="userSpaceOnUse">
<stop stop-color="#0CFFCC"/>
<stop offset="0.34" stop-color="#07DCC9"/>
<stop offset="0.77" stop-color="#02B5C6"/>
<stop offset="1" stop-color="#00A7C5"/>
</linearGradient>
<linearGradient id="paint22_linear_9_2618" x1="185.725" y1="177.877" x2="184.911" y2="162.919" gradientUnits="userSpaceOnUse">
<stop stop-color="#0CB69F"/>
<stop offset="0.03" stop-color="#0BB3A0"/>
<stop offset="0.67" stop-color="#038CBA"/>
<stop offset="1" stop-color="#007EC5"/>
</linearGradient>
<linearGradient id="paint23_linear_9_2618" x1="115.219" y1="177.83" x2="114.218" y2="159.435" gradientUnits="userSpaceOnUse">
<stop stop-color="#72FFFF"/>
<stop offset="0.19" stop-color="#6AEFFF"/>
<stop offset="0.72" stop-color="#58C8FF"/>
<stop offset="1" stop-color="#52BAFF"/>
</linearGradient>
<linearGradient id="paint24_linear_9_2618" x1="114.661" y1="172.16" x2="113.296" y2="147.064" gradientUnits="userSpaceOnUse">
<stop stop-color="#4A98FF"/>
<stop offset="0.22" stop-color="#5384FF"/>
<stop offset="0.73" stop-color="#655DFF"/>
<stop offset="1" stop-color="#6D4FFF"/>
</linearGradient>
<linearGradient id="paint25_linear_9_2618" x1="185.591" y1="169.047" x2="184.731" y2="153.24" gradientUnits="userSpaceOnUse">
<stop stop-color="#3EC3FF"/>
<stop offset="0.07" stop-color="#3FBDFF"/>
<stop offset="0.68" stop-color="#4C96FF"/>
<stop offset="1" stop-color="#5288FF"/>
</linearGradient>
<linearGradient id="paint26_linear_9_2618" x1="184.647" y1="161.609" x2="183.57" y2="141.807" gradientUnits="userSpaceOnUse">
<stop stop-color="#594FFF"/>
<stop offset="0.44" stop-color="#563FFF"/>
<stop offset="1" stop-color="#5431FF"/>
</linearGradient>
<linearGradient id="paint27_linear_9_2618" x1="147.873" y1="152.328" x2="146.999" y2="136.256" gradientUnits="userSpaceOnUse">
<stop stop-color="#0CFFCC"/>
<stop offset="0.34" stop-color="#07DCC9"/>
<stop offset="0.77" stop-color="#02B5C6"/>
<stop offset="1" stop-color="#00A7C5"/>
</linearGradient>
<linearGradient id="paint28_linear_9_2618" x1="185.197" y1="148.952" x2="184.221" y2="131.011" gradientUnits="userSpaceOnUse">
<stop stop-color="#0CB69F"/>
<stop offset="0.03" stop-color="#0BB3A0"/>
<stop offset="0.67" stop-color="#038CBA"/>
<stop offset="1" stop-color="#007EC5"/>
</linearGradient>
<linearGradient id="paint29_linear_9_2618" x1="149.858" y1="145.075" x2="148.744" y2="124.597" gradientUnits="userSpaceOnUse">
<stop stop-color="#72FFFF"/>
<stop offset="0.19" stop-color="#6AEFFF"/>
<stop offset="0.72" stop-color="#58C8FF"/>
<stop offset="1" stop-color="#52BAFF"/>
</linearGradient>
<linearGradient id="paint30_linear_9_2618" x1="184.085" y1="142.298" x2="183.072" y2="123.687" gradientUnits="userSpaceOnUse">
<stop stop-color="#3EC3FF"/>
<stop offset="0.07" stop-color="#3FBDFF"/>
<stop offset="0.68" stop-color="#4C96FF"/>
<stop offset="1" stop-color="#5288FF"/>
</linearGradient>
<linearGradient id="paint31_linear_9_2618" x1="146.604" y1="134.982" x2="145.618" y2="116.847" gradientUnits="userSpaceOnUse">
<stop stop-color="#4A98FF"/>
<stop offset="0.22" stop-color="#5384FF"/>
<stop offset="0.73" stop-color="#655DFF"/>
<stop offset="1" stop-color="#6D4FFF"/>
</linearGradient>
<linearGradient id="paint32_linear_9_2618" x1="181.373" y1="135.004" x2="180.572" y2="120.274" gradientUnits="userSpaceOnUse">
<stop stop-color="#594FFF"/>
<stop offset="0.44" stop-color="#563FFF"/>
<stop offset="1" stop-color="#5431FF"/>
</linearGradient>
<linearGradient id="paint33_linear_9_2618" x1="145.311" y1="126.748" x2="144.065" y2="103.827" gradientUnits="userSpaceOnUse">
<stop stop-color="#0CFFCC"/>
<stop offset="0.34" stop-color="#07DCC9"/>
<stop offset="0.77" stop-color="#02B5C6"/>
<stop offset="1" stop-color="#00A7C5"/>
</linearGradient>
<linearGradient id="paint34_linear_9_2618" x1="179.588" y1="126.97" x2="178.228" y2="101.969" gradientUnits="userSpaceOnUse">
<stop stop-color="#0CB69F"/>
<stop offset="0.03" stop-color="#0BB3A0"/>
<stop offset="0.67" stop-color="#038CBA"/>
<stop offset="1" stop-color="#007EC5"/>
</linearGradient>
<linearGradient id="paint35_linear_9_2618" x1="146.553" y1="111.956" x2="145.677" y2="95.8634" gradientUnits="userSpaceOnUse">
<stop stop-color="#72FFFF"/>
<stop offset="0.19" stop-color="#6AEFFF"/>
<stop offset="0.72" stop-color="#58C8FF"/>
<stop offset="1" stop-color="#52BAFF"/>
</linearGradient>
<linearGradient id="paint36_linear_9_2618" x1="176.868" y1="111.407" x2="175.933" y2="94.2178" gradientUnits="userSpaceOnUse">
<stop stop-color="#3EC3FF"/>
<stop offset="0.07" stop-color="#3FBDFF"/>
<stop offset="0.68" stop-color="#4C96FF"/>
<stop offset="1" stop-color="#5288FF"/>
</linearGradient>
<linearGradient id="paint37_linear_9_2618" x1="148.776" y1="103.571" x2="147.773" y2="85.1274" gradientUnits="userSpaceOnUse">
<stop stop-color="#4A98FF"/>
<stop offset="0.22" stop-color="#5384FF"/>
<stop offset="0.73" stop-color="#655DFF"/>
<stop offset="1" stop-color="#6D4FFF"/>
</linearGradient>
<linearGradient id="paint38_linear_9_2618" x1="174.069" y1="100.219" x2="173.319" y2="86.419" gradientUnits="userSpaceOnUse">
<stop stop-color="#594FFF"/>
<stop offset="0.44" stop-color="#563FFF"/>
<stop offset="1" stop-color="#5431FF"/>
</linearGradient>
<linearGradient id="paint39_linear_9_2618" x1="84.618" y1="249.847" x2="84.1446" y2="241.144" gradientUnits="userSpaceOnUse">
<stop stop-color="#00CCD9"/>
<stop offset="0.36" stop-color="#03DAD5"/>
<stop offset="1" stop-color="#0CFFCC"/>
</linearGradient>
<linearGradient id="paint40_linear_9_2618" x1="128.316" y1="246.596" x2="127.957" y2="240.009" gradientUnits="userSpaceOnUse">
<stop stop-color="#00CCD9"/>
<stop offset="0.36" stop-color="#03DAD5"/>
<stop offset="1" stop-color="#0CFFCC"/>
</linearGradient>
<linearGradient id="paint41_linear_9_2618" x1="27.1501" y1="213.537" x2="23.8557" y2="152.97" gradientUnits="userSpaceOnUse">
<stop stop-color="#0CFFCC"/>
<stop offset="0.34" stop-color="#07DCC9"/>
<stop offset="0.77" stop-color="#02B5C6"/>
<stop offset="1" stop-color="#00A7C5"/>
</linearGradient>
<linearGradient id="paint42_linear_9_2618" x1="145.608" y1="3.0882" x2="158.478" y2="239.7" gradientUnits="userSpaceOnUse">
<stop stop-color="#00CCD9"/>
<stop offset="0.36" stop-color="#03DAD5"/>
<stop offset="1" stop-color="#0CFFCC"/>
</linearGradient>
<linearGradient id="paint43_linear_9_2618" x1="184.052" y1="242.314" x2="183.835" y2="238.321" gradientUnits="userSpaceOnUse">
<stop stop-color="#00CCD9"/>
<stop offset="0.36" stop-color="#03DAD5"/>
<stop offset="1" stop-color="#0CFFCC"/>
</linearGradient>
<linearGradient id="paint44_linear_9_2618" x1="96.268" y1="249.214" x2="95.7945" y2="240.51" gradientUnits="userSpaceOnUse">
<stop stop-color="#0CB69F"/>
<stop offset="0.03" stop-color="#0BB3A0"/>
<stop offset="0.67" stop-color="#038CBA"/>
<stop offset="1" stop-color="#007EC5"/>
</linearGradient>
<linearGradient id="paint45_linear_9_2618" x1="138.77" y1="246.028" x2="138.412" y2="239.44" gradientUnits="userSpaceOnUse">
<stop stop-color="#0CB69F"/>
<stop offset="0.03" stop-color="#0BB3A0"/>
<stop offset="0.67" stop-color="#038CBA"/>
<stop offset="1" stop-color="#007EC5"/>
</linearGradient>
<linearGradient id="paint46_linear_9_2618" x1="170.457" y1="245.178" x2="170.124" y2="239.066" gradientUnits="userSpaceOnUse">
<stop stop-color="#0CB69F"/>
<stop offset="0.03" stop-color="#0BB3A0"/>
<stop offset="0.67" stop-color="#038CBA"/>
<stop offset="1" stop-color="#007EC5"/>
</linearGradient>
<linearGradient id="paint47_linear_9_2618" x1="193.026" y1="242.322" x2="192.781" y2="237.834" gradientUnits="userSpaceOnUse">
<stop stop-color="#0CB69F"/>
<stop offset="0.03" stop-color="#0BB3A0"/>
<stop offset="0.67" stop-color="#038CBA"/>
<stop offset="1" stop-color="#007EC5"/>
</linearGradient>
<linearGradient id="paint48_linear_9_2618" x1="46.1265" y1="223.695" x2="42.4915" y2="156.867" gradientUnits="userSpaceOnUse">
<stop stop-color="#4A98FF"/>
<stop offset="0.22" stop-color="#5384FF"/>
<stop offset="0.73" stop-color="#655DFF"/>
<stop offset="1" stop-color="#6D4FFF"/>
</linearGradient>
<linearGradient id="paint49_linear_9_2618" x1="57.5363" y1="156.105" x2="20.0563" y2="158.144" gradientUnits="userSpaceOnUse">
<stop stop-color="#0CFFCC"/>
<stop offset="0.62" stop-color="#03DDC7"/>
<stop offset="1" stop-color="#00CFC5"/>
</linearGradient>
<linearGradient id="paint50_linear_9_2618" x1="59.3518" y1="152.039" x2="43.1599" y2="152.92" gradientUnits="userSpaceOnUse">
<stop stop-color="#0CFFCC"/>
<stop offset="0.62" stop-color="#03DDC7"/>
<stop offset="1" stop-color="#00CFC5"/>
</linearGradient>
<linearGradient id="paint51_linear_9_2618" x1="51.2677" y1="225.114" x2="47.6059" y2="157.791" gradientUnits="userSpaceOnUse">
<stop stop-color="#52BAFF"/>
<stop offset="0.28" stop-color="#58C8FF"/>
<stop offset="0.81" stop-color="#6AEFFF"/>
<stop offset="1" stop-color="#72FFFF"/>
</linearGradient>
<linearGradient id="paint52_linear_9_2618" x1="39.3882" y1="157.036" x2="38.2502" y2="136.114" gradientUnits="userSpaceOnUse">
<stop stop-color="#52BAFF"/>
<stop offset="0.28" stop-color="#58C8FF"/>
<stop offset="0.81" stop-color="#6AEFFF"/>
<stop offset="1" stop-color="#72FFFF"/>
</linearGradient>
<linearGradient id="paint53_linear_9_2618" x1="145.416" y1="58.9721" x2="144.423" y2="40.7063" gradientUnits="userSpaceOnUse">
<stop stop-color="#4A98FF"/>
<stop offset="0.22" stop-color="#5384FF"/>
<stop offset="0.73" stop-color="#655DFF"/>
<stop offset="1" stop-color="#6D4FFF"/>
</linearGradient>
<linearGradient id="paint54_linear_9_2618" x1="102.147" y1="156.909" x2="101.596" y2="146.785" gradientUnits="userSpaceOnUse">
<stop stop-color="#0CFFCC"/>
<stop offset="0.34" stop-color="#07DCC9"/>
<stop offset="0.77" stop-color="#02B5C6"/>
<stop offset="1" stop-color="#00A7C5"/>
</linearGradient>
<linearGradient id="paint55_linear_9_2618" x1="139.322" y1="54.4581" x2="138.941" y2="47.4632" gradientUnits="userSpaceOnUse">
<stop stop-color="#0CFFCC"/>
<stop offset="0.34" stop-color="#07DCC9"/>
<stop offset="0.77" stop-color="#02B5C6"/>
<stop offset="1" stop-color="#00A7C5"/>
</linearGradient>
<linearGradient id="paint56_linear_9_2618" x1="133.76" y1="56.1154" x2="133.505" y2="51.4263" gradientUnits="userSpaceOnUse">
<stop stop-color="#0CFFCC"/>
<stop offset="0.34" stop-color="#07DCC9"/>
<stop offset="0.77" stop-color="#02B5C6"/>
<stop offset="1" stop-color="#00A7C5"/>
</linearGradient>
<linearGradient id="paint57_linear_9_2618" x1="155.855" y1="42.8094" x2="155.707" y2="40.0925" gradientUnits="userSpaceOnUse">
<stop stop-color="#0CFFCC"/>
<stop offset="0.34" stop-color="#07DCC9"/>
<stop offset="0.77" stop-color="#02B5C6"/>
<stop offset="1" stop-color="#00A7C5"/>
</linearGradient>
<linearGradient id="paint58_linear_9_2618" x1="149.611" y1="46.8829" x2="149.314" y2="41.4303" gradientUnits="userSpaceOnUse">
<stop stop-color="#0CFFCC"/>
<stop offset="0.34" stop-color="#07DCC9"/>
<stop offset="0.77" stop-color="#02B5C6"/>
<stop offset="1" stop-color="#00A7C5"/>
</linearGradient>
<linearGradient id="paint59_linear_9_2618" x1="137.263" y1="14.5614" x2="136.666" y2="3.57469" gradientUnits="userSpaceOnUse">
<stop stop-color="#4A98FF"/>
<stop offset="0.22" stop-color="#5384FF"/>
<stop offset="0.73" stop-color="#655DFF"/>
<stop offset="1" stop-color="#6D4FFF"/>
</linearGradient>
<linearGradient id="paint60_linear_9_2618" x1="145.229" y1="13.8849" x2="144.645" y2="3.14069" gradientUnits="userSpaceOnUse">
<stop stop-color="#594FFF"/>
<stop offset="0.44" stop-color="#563FFF"/>
<stop offset="1" stop-color="#5431FF"/>
</linearGradient>
<linearGradient id="paint61_linear_9_2618" x1="154.544" y1="20.4774" x2="153.946" y2="9.49257" gradientUnits="userSpaceOnUse">
<stop stop-color="#4A98FF"/>
<stop offset="0.22" stop-color="#5384FF"/>
<stop offset="0.73" stop-color="#655DFF"/>
<stop offset="1" stop-color="#6D4FFF"/>
</linearGradient>
<linearGradient id="paint62_linear_9_2618" x1="162.509" y1="19.8009" x2="161.925" y2="9.05857" gradientUnits="userSpaceOnUse">
<stop stop-color="#594FFF"/>
<stop offset="0.44" stop-color="#563FFF"/>
<stop offset="1" stop-color="#5431FF"/>
</linearGradient>
<clipPath id="clip0_9_2618">
<rect width="202.684" height="244.179" fill="white" transform="matrix(-0.998524 0.0543128 0.0543128 0.998524 202.385 0)"/>
</clipPath>
</defs>
</svg>
